<?xml version="1.0" encoding="UTF-8"?>
<svg id="Layer_1" data-name="Layer 1" xmlns="http://www.w3.org/2000/svg" width="115" height="30" version="1.1" viewBox="0 0 115 30">
  <path d="M94.833,4.86c-5.1-2.5-12.5-4-20.9-4-8.2,0-15.6,1.6-20.7,4h0c-.3,0-.5.4-.5.7,0,.4.3.7.7.7s.2,0,.3,0h0c4.7-2.4,12-3.9,20.1-3.9h.1c8.1,0,15.4,1.6,20.2,3.9h.3c.4,0,.7-.3.7-.7s-.1-.5-.4-.7h0" fill="#000" stroke="#000" stroke-miterlimit="10"/>
  <path d="M8.395,14.032c1.851,0,3.319.415,4.405,1.245,1.085.831,1.628,2.139,1.628,3.926v7.564c0,.469-.091.825-.271,1.069-.181.245-.452.474-.814.687-.511.298-1.187.559-2.027.781-.841.224-1.803.336-2.889.336-2,0-3.548-.395-4.644-1.182-1.096-.787-1.644-1.926-1.644-3.415,0-1.404.457-2.463,1.373-3.176.915-.713,2.202-1.154,3.862-1.324l4.533-.447v-.894c0-1.063-.319-1.841-.958-2.33s-1.5-.734-2.585-.734c-.894,0-1.735.128-2.521.383-.788.256-1.49.543-2.107.862-.17-.148-.325-.319-.463-.511-.139-.191-.207-.404-.207-.639,0-.297.074-.543.223-.734.148-.191.383-.372.702-.542.575-.298,1.234-.527,1.979-.687s1.553-.239,2.426-.239h0ZM8.427,27.533c.894,0,1.633-.09,2.219-.271.585-.181,1.005-.356,1.261-.527v-4.628l-3.958.415c-1.107.106-1.926.356-2.458.75-.532.395-.798.974-.798,1.739,0,.81.309,1.432.926,1.867.617.437,1.553.654,2.809.654h0Z" fill="#000" stroke-width="0"/>
  <path d="M19.087,14.51c.106-.042.271-.09.495-.144.223-.053.463-.08.718-.08.894,0,1.34.394,1.34,1.181v8.203c0,1.383.362,2.367,1.085,2.952.723.585,1.724.878,3,.878.851,0,1.575-.091,2.17-.271s1.064-.367,1.405-.559v-12.161c.106-.042.271-.09.495-.144.223-.053.452-.08.686-.08.915,0,1.373.394,1.373,1.181v11.107c0,.446-.059.804-.175,1.069-.118.267-.399.526-.846.782-.49.276-1.165.542-2.027.798-.862.255-1.899.383-3.112.383-2.128,0-3.761-.468-4.899-1.404-1.139-.937-1.708-2.404-1.708-4.405v-9.288.002Z" fill="#000" stroke-width="0"/>
  <path d="M47.047,25.267c0,1.362-.5,2.426-1.5,3.191-1,.767-2.447,1.149-4.341,1.149-.809,0-1.553-.069-2.234-.208-.682-.139-1.261-.318-1.74-.542-.479-.224-.852-.479-1.117-.767-.266-.287-.399-.579-.399-.877,0-.256.069-.5.208-.734.138-.234.346-.437.623-.606.574.426,1.245.804,2.011,1.133.766.33,1.638.495,2.617.495,2.213,0,3.319-.745,3.319-2.234,0-1.213-.734-2-2.202-2.362l-2.649-.702c-1.298-.34-2.245-.835-2.841-1.484-.596-.648-.894-1.483-.894-2.505,0-.554.112-1.086.335-1.597.223-.51.569-.957,1.037-1.34s1.048-.686,1.74-.91c.691-.223,1.505-.335,2.441-.335,1.489,0,2.692.218,3.607.654.915.437,1.373.941,1.373,1.517,0,.276-.069.521-.208.733-.139.213-.325.373-.559.479-.383-.256-.926-.532-1.628-.83s-1.532-.447-2.49-.447-1.718.182-2.282.543c-.564.362-.846.872-.846,1.532,0,.489.16.904.479,1.244.319.341.851.597,1.596.767l2.203.542c1.447.362,2.532.899,3.255,1.612s1.085,1.676,1.085,2.889h0Z" fill="#000" stroke-width="0"/>
  <path d="M57.484,14.032c.979,0,1.893.16,2.745.479.851.319,1.591.798,2.219,1.437.627.639,1.117,1.447,1.468,2.426.352.979.526,2.128.526,3.447,0,1.341-.181,2.501-.542,3.479-.362.979-.867,1.787-1.517,2.426-.649.638-1.431,1.111-2.346,1.42s-1.915.463-3,.463c-1.042,0-1.984-.123-2.825-.367-.841-.244-1.527-.526-2.059-.846-.447-.276-.755-.548-.926-.814-.17-.266-.255-.622-.255-1.068V8.51c.106-.042.271-.09.495-.144.223-.053.462-.08.718-.08.894,0,1.341.383,1.341,1.149v5.713c.468-.298,1.026-.559,1.676-.782.649-.223,1.409-.335,2.282-.335h0ZM57.101,16.138c-.745,0-1.42.133-2.027.399-.606.266-1.123.58-1.548.941v9.033c.319.234.782.457,1.388.67s1.314.319,2.123.319c.723,0,1.377-.112,1.963-.335.585-.224,1.09-.569,1.516-1.038.426-.468.755-1.058.989-1.771.234-.712.352-1.559.352-2.537s-.117-1.83-.352-2.554c-.234-.723-.563-1.313-.989-1.771-.426-.457-.931-.798-1.516-1.021-.586-.223-1.219-.335-1.899-.335Z" fill="#000" stroke-width="0"/>
  <path d="M70.25,23.32c.575,2.788,2.404,4.182,5.49,4.182.894,0,1.702-.148,2.426-.447.724-.298,1.298-.617,1.724-.957.511.298.766.702.766,1.213,0,.298-.133.585-.398.861-.267.277-.628.521-1.085.734-.458.213-.99.383-1.597.511s-1.261.191-1.963.191c-2.469,0-4.42-.67-5.856-2.011s-2.154-3.298-2.154-5.873c0-1.213.175-2.293.526-3.24.351-.946.84-1.75,1.468-2.409.628-.66,1.378-1.165,2.251-1.516.872-.352,1.819-.527,2.84-.527.958,0,1.841.16,2.649.479.809.319,1.505.772,2.091,1.356.585.586,1.042,1.277,1.372,2.075s.495,1.676.495,2.633c0,.469-.106.804-.319,1.006s-.511.324-.894.367l-9.831,1.372h-.001ZM74.656,16.107c-1.299,0-2.373.452-3.224,1.356-.852.904-1.299,2.197-1.341,3.878l8.777-1.213c-.106-1.17-.516-2.134-1.229-2.889-.714-.755-1.708-1.133-2.984-1.133h0Z" fill="#000" stroke-width="0"/>
  <path d="M97.606,26.767c0,.426-.091.756-.271.989-.182.234-.463.469-.846.702-.426.277-1.032.538-1.819.782-.788.244-1.692.367-2.714.367-1.148,0-2.202-.149-3.159-.447-.958-.298-1.782-.76-2.474-1.388s-1.225-1.426-1.596-2.395c-.373-.968-.559-2.133-.559-3.495,0-1.383.191-2.569.574-3.559s.898-1.804,1.548-2.442c.648-.638,1.415-1.105,2.298-1.404.883-.298,1.824-.447,2.825-.447.681,0,1.341.085,1.979.255.639.17,1.191.383,1.66.638v-6.416c.106-.042.271-.09.494-.144.224-.053.452-.08.687-.08.915,0,1.373.383,1.373,1.149v17.335ZM95.052,17.223c-.426-.297-.915-.553-1.469-.766-.553-.213-1.191-.319-1.915-.319-.659,0-1.282.102-1.867.304-.585.202-1.101.532-1.548.989-.446.458-.804,1.059-1.069,1.804-.267.744-.398,1.648-.398,2.713,0,1.958.468,3.372,1.404,4.245.936.872,2.181,1.309,3.734,1.309.744,0,1.356-.08,1.835-.239.479-.16.91-.356,1.293-.591v-9.448h0Z" fill="#000" stroke-width="0"/>
  <path d="M112.861,25.267c0,1.362-.5,2.426-1.5,3.191-1,.767-2.447,1.149-4.341,1.149-.809,0-1.554-.069-2.234-.208s-1.261-.318-1.739-.542-.852-.479-1.117-.767c-.267-.287-.399-.579-.399-.877,0-.256.069-.5.208-.734.138-.234.346-.437.622-.606.575.426,1.245.804,2.011,1.133.767.33,1.639.495,2.617.495,2.213,0,3.32-.745,3.32-2.234,0-1.213-.734-2-2.203-2.362l-2.648-.702c-1.299-.34-2.245-.835-2.841-1.484-.597-.648-.894-1.483-.894-2.505,0-.554.111-1.086.335-1.597.224-.51.568-.957,1.037-1.34.468-.383,1.048-.686,1.739-.91.691-.223,1.506-.335,2.442-.335,1.489,0,2.691.218,3.606.654.915.437,1.372.941,1.372,1.517,0,.276-.069.521-.207.733-.139.213-.325.373-.559.479-.383-.256-.926-.532-1.628-.83s-1.532-.447-2.489-.447-1.719.182-2.282.543c-.564.362-.846.872-.846,1.532,0,.489.159.904.479,1.244.319.341.851.597,1.596.767l2.202.542c1.447.362,2.532.899,3.256,1.612s1.085,1.676,1.085,2.889Z" fill="#000" stroke-width="0"/>
</svg>