<svg xmlns="http://www.w3.org/2000/svg" width="181" height="179" fill="none" viewBox="0 0 181 179"><path fill="#1E1E1E" d="M87.5.413c5.546.09 10.986.84 16.422 2.077.655.146 1.945.468 2.508.768.435.233.024.79.567.746.065-.008.028-.45.694-.362 1.251.153 3.842.917 5.115 1.367 10.81 3.71 20.769 9.415 28.741 17.194l-.047-.496c.415-.012.831-.023 1.248-.029.876.601 1.744 1.22 2.6 1.854.005.273.008.546.01.818a87.282 87.282 0 0 1 3.772 3.962c-.411.1-.821.202-1.229.307.33.341.656.686.98 1.032.341-.119.684-.236 1.027-.352.397.279.792.561 1.186.848-.533.369-1.065.74-1.595 1.112a79.624 79.624 0 0 0-1.241-.03v.028c.025.133 1.454.344 1.369.792a1.012 1.012 0 0 1-.058.189c.169.21.337.422.503.633.085-.42.167-.844.245-1.268.375-.167.751-.332 1.127-.496.647.457 1.29.926 1.928 1.404-.161.247-.324.494-.486.74.624.21 1.249.428 1.873.656.031.341.06.683.086 1.023l.653-.049a88.9 88.9 0 0 1 1.138 1.607 85.202 85.202 0 0 1-.02 1.52c.465.16.931.324 1.396.493a86.135 86.135 0 0 1 3.293 6.6c2.322.563 1.925 5.174 3.248 4.205a86.623 86.623 0 0 1 2.542 5.726c-.075.484-.154.968-.239 1.446a84.68 84.68 0 0 1 2.637 5.64c.347 2.62.567 5.23.663 7.816.501-.38.999-.766 1.494-1.156.16.799.308 1.602.445 2.408a71.14 71.14 0 0 1-.907 1.68c.434.379.865.765 1.293 1.157-2.752 1.11.886 2.136.2 4.36 2.606.797-1.331 2.863 1.212 3.94.027-.027.059-.056.09-.084.16.026.324.035.481.066-.12.226-.195.476-.286.709-.652-.13-.637-.343-.307-.669l-.738-.112c.015.437.026.875.035 1.313.386.878.759 1.77 1.117 2.662l-1.128.128a97.28 97.28 0 0 1-.108.758.64.64 0 0 1 .36.035c.259 1.2-1.013 1.367-1.043.421-.003-.102.097-.212.24-.299-.191-.12-.383-.241-.576-.36-.092.335-.186.67-.282 1.005a77.78 77.78 0 0 1 1.068 3.282c.247-.043.497-.076.737-.04.251.449.28 1.795.233 2.894l.032.006-.062.59c-.031.505-.064.887-.068.99a1.083 1.083 0 0 1-.104.461c-.044.355-.091.71-.14 1.063a.683.683 0 0 1 .028.102l.545-.198a92.761 92.761 0 0 1-.417 2.74c.257.425.786.582.858-.039.174-1.605.565-1.233 2.276-1.323.246-.014.445-.455.735-.31.292.145.434 1.205 1.199.76.145-.086-.286-.695.419-.685-.144-.131-.294-.206-.441-.316 1.622-.678 2.154-.702 2.06 1.072-.315-.103-.634-.205-.949-.309.362.313.717.594 1.075.942-.357 1.899.365 4.735-.473 6.353-.725 1.39-.451-.694-.504-.753-.538-.529-.963.082-1.376-.007-.413-.091-.848-1.067-.818-.283.01.102 1.021 1.4 1.178 1.479 1.313.626 1.596-.029 1.644 1.668.019.604-.213 2.324-.295 2.973-.089.72-.925 1.113-.945 1.544-.019.432.521.158.477.667-.091 1.016-.905 2.293-1.139 3.18-.263 1.008.334 1.506.05 2.488-.199.681-.997 1.411-1.034 2.235-.42.049-1.673-.764-1.748-.243-.091.638 1.016.099 1.321.542.005.685-.452.047-.485.049-.364.204-.36.78-.626 1.099.363-.14.699-.288 1.07-.447-.806.85.335.686.24 1.578-.03.234-1.216.325-1.213 1.163.005.205-.006 2.183-.278 2.722-.116.23-.732.414-.79.486-.205.261.414.501.322.791-.687 2.153-2.15 4.32-3.098 6.23-.908 1.821-1.414 2.81-2.44 4.613-.962 1.675-.988 3.723-2.723.168-1.149.986-.102 1.164.37 1.937.274.456-.272.495-.256.627.063.447.697.162.734.506.156 1.405-2.864 4.069-3.412 4.737-2.489 3.179-4.335 5.775-6.933 8.467-1.659 1.708-3.435 3.041-5.199 4.598-1.091-.44-2.176-.883-3.251-1.342.3-.149.517-.159.796-.406.278-.247 1.039-.741.869-1.258-.582-.138-1.528.577-1.799.818-.516.465.132.535-.153.937-.29.406-1.33.422-1.614.993-.675 1.347 1.554-.029 1.843-.436.611.949-1.121.724-.907 1.683.304.089 1.28.107 1.367-.22.08-.327-.675-.546-.107-.787.695.206 1.448.399 2.154.598-.34.514-1.251.839-1.642 1.195-2.405 2.204-4.969 4.136-7.645 5.891a80.81 80.81 0 0 1-7.343 3.125c.041.013.081.031.119.046a.777.777 0 0 0 .199.061l-.003-.018c.081.014.183-.007.285-.028.141-.029.286-.058.393-.003l-.159.19-.387.384c-.285-.159-.57-.32-.853-.481-.78.283-1.565.554-2.349.812a.855.855 0 0 0-.185-.085l-.167-.053-.206.026c-.356.047-.771.15-1.104.235-.09.023-.176.048-.254.068a9.89 9.89 0 0 1-.602.142l-.063.013a.39.39 0 0 0-.075-.066c-.199-.136-.34-.056-.434.121l-.027.062-.25.057a9.444 9.444 0 0 1-1.028.171c-.238.025-.474.038-.729.051h-.005c-.135.006-.275.013-.423.022-.2.011-.413.027-.613.052-.19.023-.43.064-.667.146-.505.182-2.505.841-3.487 1.103-.434.119-.776.459-.83.802-.257.048-.514.096-.771.142a.225.225 0 0 1-.032.105.982.982 0 0 1-.241.201c-.194.132-.415.279-.364.477.234-.081.468-.162.701-.245l.048-.013c.208.077-.47.795-.832.701-.287-.072-.416-.665-.45-1.023l-.361.058c-.015.058-.015.127-.015.197-.001.111-.001.232-.06.347-.297.59-1.587.654-1.293-.06-.331.043-.334.174-.335.333 0 .169-.001.368-.399.518-.476.17-.715.092-.939.016-.118-.04-.235-.08-.38-.082-.133-.001-.346.053-.586.112-.524.127-1.185.277-1.43-.024-.276-.331-.047-.521.164-.657a95.6 95.6 0 0 1-1.925.182c.025.104.056.226.094.366-.804.311-1.032.073-.982-.296-.817.062-1.624.109-2.435.149a4.18 4.18 0 0 1-.422.259c.089.128.267.095.433.062.141-.028.275-.055.341.02.501.614-.975 1.729-.894.712.02-.247.041-.532-.149-.685-.143-.112-.602-.112-.75-.021v-.038c-.012.006-.026.035-.045.077l-.069.164a2.354 2.354 0 0 1-.205.426 2.726 2.726 0 0 1-.309.321c-1.284 1.176-.245.531-1.879.12-.128-.027-.258.003-.382.031a.755.755 0 0 1-.303.026 2.764 2.764 0 0 1-.466-.122c-.277-.092-.545-.182-.899-.111-.009.004.014.026.051.058.898.796-.594-.162-.644-.184-.038-.012-.07-.021-.074-.036-.035-.15.253-.278.584-.429.312-.142.666-.305.83-.522l-.433-.002a.577.577 0 0 1-.495.13c-.054-.014-.057-.073-.06-.132l-.001-.003-.39-.004a.259.259 0 0 0-.004.11l-.001.02c-.205.105-1.114.132-1.242-.029a.332.332 0 0 1-.07-.129c-.339-.009-.678-.02-1.016-.032a.187.187 0 0 1-.097.057c-.077.021-.167-.018-.256-.072l-.503-.019v.036c.002.086.002.177-.026.205.867-.121.727.106.57.364-.072.119-.148.246-.13.344.028.129.198.147.358.163.201.02.389.04.267.279-.517-.141-.837-.006-1.161.131-1.027.43-1.292-.333-.519-.367.162-.007.33-.016.44-.118.13-.114.14-.337.15-.537.004-.095.009-.187.025-.259l-.025.019c-.033.022-.733.27-.806.27-.423.066-.417-.003-.404-.12.007-.06.015-.134-.031-.208-.019-.023-.074-.036-.13-.049-.072-.017-.145-.037-.14-.078 0-.046.024-.098.057-.15l-.326-.019c-.053.06-.105.107-.156.116-.03-.001-.542-.111-.552-.131 0-.004.002-.015.008-.03a118.854 118.854 0 0 1-3.199-.257l-.028-.024-.049-.045-.135-.129c-.163-.157-.408-.393-.632-.568a2.597 2.597 0 0 0-.609-.369c-.24-.1-.631-.201-1.088-.084-.309.079-.607.213-.833.421-.291.267-.43.573-.478.752a.54.54 0 0 0-.019.152l-.13.202c-.274.169-.28-.009-.281-.144a.57.57 0 0 0-.006-.084c-.02-.072-.098-.399-.133-.573a131.26 131.26 0 0 1-3.485-.497 152.683 152.683 0 0 0-3.522-.506c-.757-.1-1.516-.198-2.276-.292.05.143.07.284-.17.423-.34.191-1.159-.238-1.28-.306-.026.014-.057.049-.093.089-.086.096-.208.233-.406.265-.433.081-2.606 1.237-3.033.897l-1.172-.142c-.141-.042-.277-.079-.405-.117a.732.732 0 0 0-.126-.176c-.56-.566-1.726-1.139-2.3-1.849.218-.115.462-.206.688-.31l-.318-.616.122-.215a97.038 97.038 0 0 1-1.223-.674l-.005.028c-.168.024-.223-.057-.243-.166a60.293 60.293 0 0 1-.592-.342c-.072.025-.152.049-.231.077l-.298.606a85.4 85.4 0 0 1-.257-.448c-.376.072-.722.032-.869-.352a70.051 70.051 0 0 1-.603-.09.914.914 0 0 1-.44-.035c-.271.207-1.319 1.594-2.345 1.542.185-.529.369-1.059.552-1.589-.303.01-.606.018-.91.025l-.519.951.146-.832a82.202 82.202 0 0 1-1.637-.37l-.005.012c-.074-.002-.122-.022-.151-.05l-.223-.054.258-.666c-.007-.006-.013-.014-.021-.019-.142-.078-.3-.073-.47-.036l.066.351a84.143 84.143 0 0 1-2.353-.03l-.109-.539a.298.298 0 0 1-.098-.018c-.002-.008.03-.097.055-.188l-.044-.219c-.013-.005-.026-.011-.04-.015-.309.358-.62.716-.934 1.071a73.102 73.102 0 0 1-1.205-.413 23.689 23.689 0 0 1-.802-.547 81.256 81.256 0 0 1-1.1-1.406 2.68 2.68 0 0 1-.326.327 29.781 29.781 0 0 1-.249-.204l-.19.235c-.194-.182-.391-.563-1.196-.407.24-.457.477-.915.715-1.373a1.46 1.46 0 0 1-.105-.289c-.843.22-1.693.428-2.552.621.056-.82.12-1.64.193-2.456a81.399 81.399 0 0 1-1.808-1.338c-.077-.022-.155-.048-.232-.071.065.383.133.767.204 1.151-.526.504-1.055 1.005-1.59 1.502a88.591 88.591 0 0 1-.412-2.096c-2.389-.324-2.8-3.787-3.803-.616.323.053.645.103.967.151a80.04 80.04 0 0 1-1.752.619 80.946 80.946 0 0 1-.315-1.541c-.465-.1-.93-.203-1.396-.312.103-.389.209-.778.315-1.167-.497.099-.997.193-1.5.282.102-.695.211-1.387.326-2.076a85.305 85.305 0 0 1-4.481-2.836c-1.16-2.762-1.544-.334-3.36-1.085a80.197 80.197 0 0 1-1.084-2.654c-.472.056-.947.107-1.422.155a81.402 81.402 0 0 1-.182-1.027 85.796 85.796 0 0 1-2.673-2.905c-.272.614-.54 1.232-.802 1.852a62.142 62.142 0 0 1-.79-.282c.091-1.001.2-1.995.324-2.981a81.347 81.347 0 0 1-1.541-.669 83.82 83.82 0 0 1-1.081-1.889l.992-.951c-.728.281-1.46.556-2.194.825a86.319 86.319 0 0 1-2.225-2.152c.646.275 1.293.542 1.94.798a80.731 80.731 0 0 1-.238-1.782c-.501-.307-1-.621-1.498-.941-.333.041-.666.081-1 .119a84.326 84.326 0 0 1-1.275-3.338 85.762 85.762 0 0 1-2.204-3.473c-1.569-.483-.918-3.285-3.565-1.988a85.335 85.335 0 0 1-.969-3.349c-.26-.149-.518-.299-.777-.451.287-.287.576-.574.865-.858a81.135 81.135 0 0 1-1.544-.861 86.278 86.278 0 0 1-.773-1.874c.33.086.662.17.992.252a83.939 83.939 0 0 1-1.122-5.643c-.716.163-1.432.324-2.15.482a85.143 85.143 0 0 1-.128-2.238c-.453.057-.906.112-1.36.166a87.827 87.827 0 0 1-1.277-3.359 79.34 79.34 0 0 1 .723-3.962c-1.505-1.145-3.446-4.221-1.011-5.418a85.869 85.869 0 0 1-1.778-5.53c.447.054.895.106 1.342.157l.32-.538c-.659-.066-1.319-.135-1.978-.208.39-.715.79-1.414 1.198-2.108.396.208.792.412 1.189.614.036.263.073.527.112.789.402-.41.807-.814 1.214-1.214l.038.045c.214-1.762.71-3.293 1.231-4.606l.136-.315a4.67 4.67 0 0 1 .686-1.063 81.446 81.446 0 0 1 3.897-26.373c-.245.199-.706.266-.864.026.268-1.28 1.058-1.383 1.09-.714.258-.779.526-1.552.807-2.32-.065-.036-.258-.16-.296-.09-.307.62-.4 1.735-1.202 1.385.707-.429.214-1.406.492-1.748.278-.338.656.06.74-.797l.076.012c.29.1.347.619.281.995.178-.48.36-.959.546-1.435-.285-.026-.591-.027-.822-.176-.002-1.052 1.912-4.995 2.12-5.376.587-1.244 1.071-.606 1.192-.156a81.29 81.29 0 0 1 2.91-5.477.743.743 0 0 1-.475.02l.007.004c.207.968-1.167 2.847-1.793 1.827.864-.93.394-2.35-.24-1.255-1.02 1.807-1.122 1.272-2.537.907-.204-.051-.601.41-.755.16-.156-.25.302-1.518-.547-1.213-.162.061-.146.887-.702.682.044.193.124.323.182.491-1.647.348-2.09.223-1.068-1.811l.59.62c-.12-.464-.253-.886-.352-1.385 1.3-2.086 2.334-5.51 3.962-7.074 1.408-1.352-.042.893-.031.977.128.739.83.17 1.113.383.279.217.063 1.425.496.536.05-.121-.006-1.823-.085-1.967-.696-1.053-1.322-.406-.343-2.3.35-.679 1.579-2.487 2.054-3.169.52-.757 1.457-.954 1.746-1.412.291-.46-.332-.311.027-.846.715-1.06 2.218-2.188 2.997-3.055.883-.985.713-1.67 1.604-2.604.62-.647 1.788-1.174 2.381-2.002.393.067.909 1.246 1.33.736.515-.622-.804-.385-.762-.92.468-.701.418.092.45.086.451-.105.843-.686 1.291-.93-.409.038-.797.09-1.226.147 1.275-.628.182-.788.877-1.652.187-.225 1.273.023 1.857-.808.133-.2 1.539-2.15 2.16-2.589.262-.189.933-.185 1.037-.237.368-.192-.007-.605.282-.857 2.145-1.87 5.023-3.446 7.3-4.888 2.173-1.37 3.374-2.091 5.68-3.331 2.148-1.14 3.748-2.874 2.638.769 1.821-.459.99-.964 1.14-1.786.093-.483.627-.328.715-.444.285-.4-.524-.38-.297-.684.92-1.262 5.807-2.363 6.858-2.68 4.825-1.612 8.634-2.838 13.266-3.672 2.945-.517 5.723-.642 8.676-.86.722.828 1.436 1.66 2.134 2.5-.412-.047-.63-.146-1.096-.114-.464.032-1.6.003-1.84.443.467.37 1.957.34 2.41.31.872-.061.286-.43.885-.56.601-.13 1.642.381 2.367.148 1.714-.549-1.553-.777-2.158-.638.138-.942 1.677.075 2.209-.666-.226-.214-1.18-.721-1.52-.545-.336.18.239.703-.51.582-.523-.484-1.112-.987-1.648-1.467.734-.184 1.885.05 2.548.01A65.295 65.295 0 0 1 87.5.412Zm6.644 177.353c.763-.036.746 1.42-.125.21-.031-.045-.065-.092-.1-.139a.448.448 0 0 1 .225-.071Zm-14.33-2.745c.763.088.392.536.221.739-.042.05-.072.086-.067.097l.071.019c.77.219 1.346.373 2.045-.107.103-.245-.068-.231-.267-.214-.168.014-.357.03-.414-.107-.124-.361.573-.133.888-.035.066.021.116.036.137.039.204.004.332-.036.438-.069.221-.068.342-.106.87.312.065.049.076.114.085.17.021.128.039.211.702-.057-.579.754.49 1.111 1.282.706.121-.065.203-.19.287-.316.17-.259.346-.528.879-.345.285.106.206.614.12.661-.028.015-.094 0-.17-.018-.152-.035-.344-.081-.357.089.271.101.6.149.936.182a23 23 0 0 0 .259.023c.373.033.737.063 1.023.149.052.019.062.065.072.116.09.464 1.549.221 1.657-.185a.67.67 0 0 0 .09-.142c.153.124.282.254.418.389.075.075.152.153.238.233.06.055.115.107.166.157-.349.305-.47-.087-.831-.113-.372-.025-1.66.335-3.092.593-2.553.471-5.46.573-4-1.597.02-.029.03-.049.023-.058-.801-.888-3.326 3.486-4.157-.352-.028-.134-.05-.24-.066-.253-.066-.056-.293.001-.557.065-.426.104-.956.224-1.036-.058.189-.134.453-.138.7-.142.151-.002.297-.006.412-.04.155-.044.263-.15.37-.256.16-.156.318-.313.625-.275Zm-7.645-2.522c.074-.009.15-.017.223-.027l-.149-.044-.074.071Zm64.486-3.373c-.408.399-1.371.507-1.028 1.315.424-.106.85-.212 1.275-.324-.081-.33-.163-.662-.247-.991Zm-77.366-.166.245.154c.291-.014.683.031 1.094.097a71.36 71.36 0 0 1-.669-.72 81.71 81.71 0 0 1-.67.469Zm78.515-1.798c-1.015.59-.589 1.625.088.64.143-.21.037-.426-.088-.64Zm-2.982.626c-.86-.597-2.415-.07-.992.311.362.092.685-.197.992-.311Zm6.897-1.971c-.298-.107-.159-1.287-.884-.825-.292.514.381.705.392 1.17.007.47-1.451 1.122-.098 1.487.427.113 1.692-1.67 2.502-1.4-.603-1.939-.905-.092-1.912-.432Zm13.203-10.318c-.29-.039-.417-1.58-1.468-1.132-.335.146-1.09 1.324-1.698 1.317.243.542 2.558 1.464 2.796 1.447 1.523-.091 1.284-1.654 2.568-1.974-1.13-.947-1.231.437-2.198.342Zm-8.166-.121c-.584-.144-1.028.941-.274.951.612.004.862-.807.274-.951Zm11.99-1.989c-2.38-.248-1.628 1.431-.543.973.134-.056.794-.701.543-.973Zm-2.898-4.106c-.532.296.491.683-.041 1.021-.188.117-.631-.294-.698-.301-.754-.027.488 1.232.831 1.144.344-.092.541-.851 1.182-.488-.101.585-.739.586-1.01 1.144-.321.664.723.859.71.546-.035-.627-.74-.896.241-1.032.841-.122 1.225 1.655 1.733 1.283.645-.481-.176-1.012-.744-1.268.248-.468.506-.92.752-1.383-1.014 1.057-1.854.265-2.956-.666Zm6.314-6.64c-.3-.046-.924.653-.814.878.245.489 1.08.051.932.791a94.39 94.39 0 0 1-1.799 1.904l1.047.71c.014-.241.028-.488.037-.73.204-.041.409-.08.611-.123 1.255 2.146-1.493 1.447-1.692 3.291-.317-.377-.658-.757-.963-1.128-1.957 1.309-.477.6.418 1.404.511.463-.438.575-.461.762-.156 1.323 2.196.281 2.701-.338.51-.608.641-2.109 1.176-2.798.321-.409.714-.088 1.036-.505.482-.619 1.388-1.67 1.561-2.452.061-.284-.744-.769-.86-.791-.28-.043-.143.567-.321.664-.179.094-.373-.289-.556-.116-.183.178-.887 1.364-.894 1.484-.016.729.839.457.337.954-2.76-1.686.053-2.032.124-2.435.247-1.47-.614-.738-.99-.694-.375.044-.331-.694-.63-.74v.008Zm-8.716 5.296c-.6.202-.505 1.039.22 1.288.22.075 1.246-.458 1.657-.167-.434-.26-1.496-1.247-1.877-1.121Zm-6.448-.439c-.454.323-.912.64-1.371.952l.149.103c.387-.377.798-.721 1.222-1.055Zm11.846-1.411c.11.3.217.604.325.905l.484.038c-.169-.412-.346-.823-.518-1.233-.095.097-.194.195-.291.29Zm-3.816-2.781c-.953-.042-1.111 1.953.181 1.636.802-.206.626-1.604-.181-1.636Zm-3.212.548c.358.224.827.502 1.153.198-.414-.112-.826-.226-1.238-.342l.085.144Zm14.22-2.661c-.11.881-1.413 1.612-.45 2.424 1.338-.459.711-.385.586-1.286-.085-.608.867-.563-.136-1.138Zm-8.996-.011c-1.195.945-.603 2.887.278 1.054.046-.106-.523-.787-.278-1.054Zm3.304.653c.182-.015.368-.03.551-.047l-.493-.564c.177-.072.353-.148.531-.223l-.632-.415c.016.416.031.833.043 1.249Zm-2.367-3.3c-.149.194-.298.388-.448.58.012.012.024.028.037.04.196-.214.393-.433.588-.65l-.177.03Zm8.089-3.966c-.502-.244-.778.698-1.089.934-.133.098-.534-.129-.571-.119l-.002.003c-.338.206-.055.622-.224.942-.082.146-.744-.14-.657.179.094.323.581 1.445.921 1.719.615.491 1.534.259 1.31-.557-.111-.397-1.18-.851-.217-1.178.128-.042 1.367.21 1.517-.169.349.796-.538 2.16-1.083 2.612.653.511 1.018-.616 1.591-.774.484-.134 1.831.967 1.923.944.888-.462-.054-1.914-.845-1.856-.459.033.029 1.193-.807.468 1.076-.794.209-1.18.057-1.249-1.08-.505-.928-1.465-1.824-1.899Zm-6.951 4.343c.264-.295.528-.597.789-.895l-.383-.317c-.132.402-.268.809-.406 1.212Zm-1.372-2.182.05-.032a.207.207 0 0 0-.017-.024l-.033.056Zm5.73-2.267c-.282.125-1.292 1.573-.352 1.63.131.003.805-1.323.352-1.63Zm-4.635.15a93.25 93.25 0 0 1-.47.952c.123.092.259.206.403.347.349.339.752-.989.767-1.317.007-.141-.13-.336-.225-.519l-.192-.034c-.106.213-.201.403-.283.571Zm2.591.941c1.507.081 1.873-2.616.842-2.173l-.346.589c.058.06.107.121.068.191h-.004c-.102.187-1.794 1.32-.56 1.393Zm8.747-3.132c-.653-.966-1.119 1.021-1.47 1.108-.348.085-1.383-.645-1.234.22.057.329.711.365.933.125-.096 2.926 2.133-.927 1.771-1.453Zm-8.799-2.648.378.008a1.18 1.18 0 0 1 .037-.304l-.415.296Zm12.067-2.971c-.124.523-.929 1.542-.652 2.07.598 1.143 2.584-1.064.652-2.07Zm-10.247-1.688a6.425 6.425 0 0 1-.05.124c.197.35.393.703.585 1.058-.438.237-.877.468-1.316.694l-.228.536c.317.316.634.634.95.954-.264.199-.528.396-.792.591.603-.156 1.54-.459 1.137-1.114-.205-.327-1.462-.596-.566-1.167.661-.426 1.277.693 2.156.279-1.198-.278-1.512-1.35-1.425-2.051l-.451.096Zm8.208 1.715c-.667.355-1.048.185-1.192.991.506-.114 1.561-.332 1.192-.991Zm4.068-2.069c-.451-.698-1.285.244-.812.699.476.455.924-.518.812-.699Zm-11.124-.774c.327-.115.681.002.981-.055l.07-.177c-.289-.257-.58-.512-.871-.766-.058.332-.118.665-.18.998Zm11.532-.545c.33-.502-.502-2.568-.463-.719l-.716-.247c.393.319.789.64 1.179.966Zm-7.784-1.26c-.825.247 1.531 1.761.77.456-.075-.125-.704-.472-.77-.456Zm1.793-5.091h.027l-.021.062c.031.281.06.565.087.847.271-.167.541-.337.811-.507-.318-.292-.639-.586-.957-.874l.053.472Zm6.156-2.723c-.385 1.135 1.107.668.656 1.635.327.241.308-.39.486-.227.867.802-.65 1.073-.299 1.934.397.025.803.041 1.204.062-.439-.798-.332-1.366.092-2.071-.712-.449-1.422-.896-2.139-1.333Zm-7.904 2.64.615.031c.103-.029.07-.081-.421-.265l-.194.234Zm4.087-.205c-.652-.306-1.266-.474-1.852-.162.623.341 1.219.268 1.852.162Zm2.806-2.306c-.172.685-1.329.164-1.448.209-.985.382.287 1.625.991 1.743.205.032-.013-.569.308-.5.322.072 1.842 1.179.811-.138-.348-.437-.805-.549-.662-1.314Zm-3.577-1.788c-.158.22-.317.438-.477.655 2.58.157 2.252-1.322.782-1.665-.1.337-.201.675-.305 1.01Zm4.418-3.603c.098-.595-2.044-.409-2.102-.345-.869 1.085.753 1.186 1.189 1.445.941.569-.119 1.186.736 1.557 1.421-1.074-.589-1.901-.775-2.056-.939-.813.92-.477.952-.601Zm2.438.791c.41.329.818.664 1.225.999a84.289 84.289 0 0 0-.514-1.541c-.234.183-.475.364-.711.542Zm-1.734.405c.431-.002.863-.005 1.294-.01.222-.612-.668-1.259-1.351-1.328.022.445.042.892.057 1.338Zm-3.518-1.369c.195-.433-.788-1.258-.853-.188.004.052.615.61.082.787a.87.87 0 0 1-.371.014l.264.389c.297-.127.616-.422.878-1.002Zm4.243.068.471.156c.116-.331.232-.664.344-.998-.158-.05-.315-.103-.473-.153-.111.332-.227.665-.342.995Zm-.504-3.22c.153.62.297 1.245.435 1.872.071-.835.03-1.152.997-1.447-.476-.142-.955-.285-1.432-.425Zm-2.939-1.492c-.13.081-.327.067-.517.065-.055.494-.113.988-.176 1.481l-.296.455c.276.133.583.259.721.436.117-.816.195-1.61.268-2.437Zm.903-3.063c-1.074-.357-1.311.207-1.329.434-.071.824-1.092 1.109-.075 1.668.74-.35.061-.837.184-1.055.279-.481 1.183-.331 1.22-1.047Zm4.62.04c.051.491-.636 1.163.157 1.349.192-.388.381-.779.566-1.171-.24-.06-.48-.121-.723-.178Zm-2.292-.125c-.744.132-.575.602-.553 1.136l.774-.019c-.07-.371-.146-.747-.221-1.117Zm2.98-.588c.165-.325.331-.654.491-.98l-.728-.165c.082.38.159.764.237 1.145Zm-3.427-17.894c.146-.035.826-.476 1.27.077.125.156.193.329.218.507-.169-.06-.338-.117-.507-.175-.004.137-.009.274-.016.41a25.382 25.382 0 0 0-1.31-.163c-.463.194.162.366.151.395h.004c-.166.472-1.061.445-.007.74a17.8 17.8 0 0 1 .5-.949l.661-.003-.008.19.533-.121c-.056.453-.33.93-.64 1.345a21.292 21.292 0 0 0-.801-.418c.219.538-.328.239-.621.619 1.053.084.814.3.741.619-.07.317.7-.1.797.222.194.669-1.06 1.776.458 1.976-.958.832-1.069-.213-1.443-.273-1.588-.262-.952 1.455-.091 1.755-.077.033-.159.061-.241.086-.473.145-.969.21-.829.762.224.882 1.173-.972 1.264.228.055.805-.694.651-.896 1.032-.369.707-.083 2.016 1.017 1.645.442-.153-.07-.752.39-.937.261-.101 2.416.315.773-.486-.165-.076-.98.238-.97-.318.007-.16.747-.656.554-1.123-.048-.116-.376-.45-.584-.803-.16-.271-.248-.554-.083-.767.401-.534.584.305.935.11.352-.2.335-.883 1.056-.845.811.39-.458.406-.406.529.222.476 1.476.126 1.309.811-.606.07-2.103-.46-2.091.162a.72.72 0 0 0 .064.256c.02.012.458-.217.596.113.235.57.344 1.653.275 2.336 1.001.018.981-.835 1.689-1.234.128.95.363 2.03-.638 2.634-.109-.362-.224-.726-.337-1.084.02.415.035.832.05 1.245-.407-.19-1.39-1.177-1.67-.55 1.077.131 1.196 1.049 1.746 1.447 1.158.832 1.691.262.365 1.533-1.11-1.559-2.128.298-3.267.125-.64-.093-.174-.687-.483-.928-.475-.367-1.364-.049-1.647-.442-.28-.39.488-1.53.503-1.93.024-.763-.331-1.45-.329-2.086.003-.42.272-.98.474-1.435.103-.231.191-.434.218-.573.079-.41-.034-.818-.102-.889-.397-.41-1.328-.185-1.34-.734.909-.023 2.36-.798 2.892.04.027-.12.2-.27.181-.387-.104-.545-1.361-.248-1.576-.5-.357-.423.612-.134.663-.14.746-.423-.121-.21-.508-.39-.197-.097-.631-.893-.614-1.067.023-.17.513.035.539-.078.096-.496.213-1.012.089-1.501-.127-.49-.993-.724.238-.773.195-.008.388.263.835.154h.007Zm-4.629 12.342.701-.08c.283-.407.491-.75-.255-1.061a79.09 79.09 0 0 1-.446 1.141Zm-.013-2.605c.272.17.545.343.816.517-.076.208-.153.415-.231.621.129.026.243.031.279-.09.134-.455-.233-.965-.45-1.46l-.414.412Zm1.671-3.902c-.409.332-.122.698.069 1.004.097.156.171.296.115.404-.166.318-.759.129-.48.775l-.091.01c-.46.004-.806-.572-.776-.856.008-.01.382.063.397-.008.014-.1.014-.211.01-.325-.017-.494-.096-1.04.756-1.004ZM2.022 87.047a86.987 86.987 0 0 0-.045 2.453l-.002-.002c-.139-.038-.276-.079-.414-.12.143-.783.298-1.56.461-2.33Zm.215-3.413c.053-.037.646.473.644.793-.01.329-.438 2.327-.537 2.389-1.156.528-.13-1.616-.083-1.837.113-.66-.495-.897-.024-1.345Zm176.618-.227-.72.162a1.28 1.28 0 0 0 .001-.322l.107.04c.089-.206.178-.41.266-.617l.346.737Zm-1.114.096c-.043 0-.087-.003-.131-.003a.127.127 0 0 0 .001-.02c.043.007.087.017.13.023ZM2.993 69.647c.271-.03.54-.044.812-.073-.037.252-.072.502-.107.754.33-.216.682-.39 1.009-.588.908.92.215.768-.177 1.631-.246.554.065.877-.073 1.597-.646 3.39-.728 6.971-1.272 10.441-.928-.101-1.15-.209-1.202-.88.272.06.548.11.82.168-.05-.441-.117-.88-.186-1.314-.21.373-.42.745-.635 1.112a10.673 10.673 0 0 1-.01-.771c.001-.232-.366-.34-.285-.646.175-.654 1.419-1.352 1.236-2.116-.105-.446-1.224-.052-.773-1.01.654.728 1.234 1.242 1.184-.334-.802.765-.428.117-.714-.271-.186-.246-.323 1.08-.606.155-.068-.184.002-2.934.616-2.686 1.304.521 1.109.622.704-1.23-.988 2.012-1.477-.143-.871-1.008.308-.435.741.541.885-.623-1.313.32-.593-2.071-.156-2.972-.068.22-.134.443-.199.664Zm-1.01 12.882-.014-.005-.004-.001.017-.028.001.034Zm171.933-10.745c1.1-.196 1.384-.181 1.619.298-.33.036-.664.076-.994.114.173.307.366.609.563.908.142-.334.288-.668.441-1 .068.145.133.333.213.565.062.17.516.142.505.39-.025.536-1.265 1.399-.832 1.906.253.295 1.425-.313 1.186.518-.968-.349-1.794-.557-1.269.583.699-.79.46-.204.908-.004.286.127.049-.883.651-.285.13.127.895 2.135.119 2.128-1.665-.014-1.482-.145-.415 1.094.485-1.744 1.737-.31 1.334.496-.207.404-1.034-.188-.806.703 1.394-.592 1.382 1.338 1.214 2.116a32.365 32.365 0 0 0-.012-.54c-.299.096-.6.18-.899.275l-.145-.579c-.3.247-.641.472-.943.704-1.362-.42-.519-.499-.37-1.23.093-.467-.372-.614-.455-1.18-.391-2.652-1.352-5.273-1.613-7.98Zm.417 9.795c-.85-.274-.394-1.869.033-1.603.017.538-.007 1.07-.033 1.603ZM6.064 71.074c.56.594-.38 2.437-.619 1.98.18-.665.398-1.329.62-1.98Zm169.481 1.03-.01-.022.021-.004a.278.278 0 0 0-.011.026Zm-1.491-3.078c1.213-.737.531 1.16.536 1.335.031.517.795.514.363.982-.054.042-.864-.16-.943-.395-.073-.24-.06-1.845.044-1.922Zm-167.314.32c.508.388.34.663-.15 1.013-.114-.08-.24-.136-.352-.221.182-.244.339-.532.502-.792Zm1.53-17.481c.083 2.131 1.837.242 2.655.758.46.287-.217.854-.094 1.223.19.562 1.056.434 1.08.976.02.535-1.161 1.678-1.368 2.156-.395.902-.443 1.826-.745 2.588-.305.76-1.226 1.744-1.472 2.218-.246.472-.339.998-.316 1.102.13.612.96.604.727 1.278-.724-.23-2.196.296-2.25-.874-.075.138-.277.269-.311.416-.155.696.958.694 1.018 1.063.102.623-.54-.015-.578-.019-.765.303.005.291.233.623.113.175.12 1.285.036 1.489-.088.2-.39-.195-.454-.063-.28.578-.578 1.176-.674 1.814-.093.636.494 1.18-.491.877-.155-.05-.203-.436-.594-.434l-.005-.001c-.126 0-.833.342-.967-.466a1.794 1.794 0 0 1 .028-.687l.328.367c.057-.168.118-.335.177-.502.316.205.647.42.96.589.437-.102.024-.493.038-.53.32-.532 1.008-.24.301-.907-.249.346-.512.683-.773 1.016a72.173 72.173 0 0 0-.518-.192l.083-.226-.467-.01c.225-.538.631-1.04 1.044-1.456.14.24.302.505.458.744.048-.722.354-.194.74-.577-.79-.41-.512-.605-.322-.974.19-.368-.594-.078-.532-.502.127-.87 1.599-1.86.494-2.533 1.12-.732.747.56 1.013.742 1.13.772 1.396-1.49.858-2.091.512-.12 1.058.114 1.23-.713.236-1.127-1.376.836-.89-.631.331-.983.852-.588 1.192-.986.626-.745 1.048-2.39-.005-2.251-.424.06-.312.917-.763 1.008-.251.05-1.757-1.053-.843.366.095.137.887-.011.614.651-.08.19-.899.572-.964 1.188-.032.272.328 1.595-.188 2.077-.554.528-.324-.533-.687-.398-.366.139-.656.967-1.204.716-.466-.703.54-.36.553-.523.038-.636-1.105-.572-.667-1.343.567.098 1.661 1.394 1.783.071-.02-.015-.46.127-.417-.302.074-.75.497-2.075.881-2.87-.781-.302-1.172.717-1.916.994.344-1.17.679-2.514 1.77-2.955-.094.462-.18.924-.264 1.382.185-.5.377-1 .57-1.496.226.34.519 1.789 1.047 1.121-.787-.457-.425-1.584-.66-2.201-.5-1.298-1.212-.78.488-1.9Zm166.12 15.032c.002.622-.005 1.243-.017 1.862-.158-.611-.32-1.22-.492-1.828l.003.004c.168-.014.337-.027.506-.038Zm-170.533.61c-.054.13-.1.262-.13.395l-.069-.079-.448.676c.006-.334.009-.665.017-1l.63.008Zm.384.236-.008.024-.095-.062.103.038Zm8.48-10.705c-.099-.079-.198-.134-.298.017-.267.407-.294.937-.33 1.467.205-.497.415-.992.629-1.484Zm.919-2.035c-.54.561-1.197.917-.73 1.606.238-.538.48-1.074.73-1.606Zm1.113-4.199c.274.86-.288 1.503-.743 2.278-.543-.529.494-1.629.743-2.278Zm-5.25-3.058c.164.13.33.258.494.387.138-.458.285-.919.432-1.377-.31.328-.622.66-.926.99Zm7.896-2.337c-.8.195-.532.935-.758 1.153-.502.475-1.145.056-1.58.868.66.7 1.168.118 1.314-.138.527-.925 1.523-.975 1.024-1.883Zm-4.257 1.485c.67.05.798-.533 1.085-1.148l-.634-.19c-.154.443-.305.893-.451 1.338Zm5.67-1.28c-.125-.04-.249-.068-.387.206-.12.23-.232.593-.36.985.246-.4.495-.797.747-1.191Zm-6.811-1.068c-.374.389-.745.784-1.112 1.183.16.133.32.269.483.4.23-.577 1.163-1.156.629-1.583Zm7.847-.508c-.674.338-1.288.645-.773 1.171.255-.392.512-.783.773-1.17Zm-.608-2.507a56.71 56.71 0 0 0-1.685 2.66c.315-.114.629.28.954.048l.003.003c.326-.234 1.12-1.012 1.23-1.448.108-.436-.494-.828-.502-1.263Zm2.048.439c-.08-.006-.165.02-.26.113-.08.08-.092.215-.088.372.115-.162.232-.323.348-.485Zm-4.466-2.448c-.564.906-.718 1.27-1.68 1.337.303.287.607.578.91.864.245-.734.502-1.47.77-2.201Zm5.213 1.427c-.495-.058-.902-.139-.351.475.116-.159.234-.317.351-.475Zm.902-1.91c.453-.047-.012-1.614-1.902.203-.43.422-.133 1.595.589.435.03-.054-.128-.832.426-.882.373-.019.432.295.89.24l-.003.003Zm.577-.021c-.248.032-.487.132-.713.48-.075.118-.036.248.037.385.223-.29.449-.578.676-.865Zm-2.87-3.566c-1.865.776-.71 2.225-.658 2.44.265 1.143-1.059.272-1.16.4-.446.624 1.428 1.002 1.517.948 1.395-.955.121-1.502-.076-1.903-.421-.873.848-1.255.377-1.886Zm-4.236 3.271c.099.098.194.198.293.296.293-.335.59-.67.887-1-.097-.098-.192-.2-.287-.298-.298.332-.599.665-.893 1.002Zm1.509-2.267c-.564.607-.227 1.56.292 1.819.255-.493.514-.987.78-1.477-.356-.114-.714-.23-1.072-.342Zm6.7 1.193c-.356-.022-.769-.027-.97.36.175.05.36.105.546.16.141-.173.282-.348.424-.52Zm-7.695-2.298c-.184.605-.36 1.213-.527 1.817.304-.136.61-.269.915-.4-.134-.469-.261-.943-.388-1.417Zm10.364-.774c-.303.128-.63.235-.996.311.206.083.346.19.434.312.186-.21.373-.417.562-.623Zm-3.246-3.355c-.224-.163-.773-1.74-.776-.075.005.574.337.813-.371 1.647.611-.824 1.287.11 1.42.092 1.08-.136.836-1.786.32-2.103-.153-.088-.37.6-.593.439Zm-1.494-2.786c-.16.952-.627 1.519-1.442 2.144.303.67.61 1.336.926 1.995 1.062-1.095-.497-1.012.515-1.906-.117-.343-.514.325-.557.105-.203-1.08 1.253-.95 1.53-1.94-.32-.135-.648-.266-.972-.398Zm125.304 3.38c.057.175.143.336.244.487l.302-.214a2.64 2.64 0 0 0-.546-.273ZM28.549 30.74c.072.39.146.782.221 1.168.268-.49.541-.982.82-1.468-.348.097-.695.199-1.041.3Zm1.424 1.028c-.046.002-.07.016-.06.059l.06-.06Zm-3.112-.71c.348.498.753.843 1.464.68-.298-.526-.855-.615-1.464-.68Zm4.816-.94c-.064-.212-.341-.279-.78.12-.172.159-.167.578-.07.692.28-.273.564-.543.85-.812Zm4.5-3.944c-.527.26-1.05.53-1.572.8l.261.297c.42-.356.846-.706 1.274-1.054.013-.014.024-.029.038-.043Zm-2.024.569c.9-.012-.085-2.178-.351-.668-.022.147.284.668.351.668Zm-5.874-3.465c-.633.401-1.342 2.72-.101.853l.446.448a75.42 75.42 0 0 1-.345-1.301Zm12.1-.397c.028.02.053.039.077.059l.095-.068c-.053 0-.11.002-.171.01Zm-9.633-1.25c-.095-.587-1.173.247-1.197.457-.097.817 1.286.124 1.197-.458Zm5.603-.99c-.532-.041-1.627-.143-1.774.602.846-.147 1.06.127 1.774-.602Zm-1.522-1.773c.291-1.27-3.045.259-2.06 1.804.48-.472 1.924-1.219 2.06-1.804Zm15.296-2.544c-1.493-.65-4.27 2.231-1.88 1.526.409-.118.058-.367.288-.494h.003c.232-.134 2.678-.558 1.589-1.032Zm-7.684-.772c2.274-2.614-2.626.161-2.683.778-.13 1.092 1.765-.591 2.153-.558.38.03.772 1.02 1.285.19.196-.316-.374-.56-.756-.41Zm6.529-.264c-.115-.052-1.755.895-1.573 1.319.354-.023 2.4-.958 1.573-1.319Zm-3.578-4.746c-1.165.11-1.395 1.704-.625 1.91.446.12.873-1.06 1.092-.146-1.592.348-1.085.98-1 1.089.606.798-.257 1.603.235 2.28.276.377 1.243-.374 1.71-.48.2-.046.398.294.437.292.47-.071.529-.532.93-.756.186-.101.58.37.743.062.16-.311.568-1.448.462-1.8-.195-.632-1.225-.742-1.638.044-.2.384.442 1.133-.697 1.101-.15-.005-1.099-.634-1.523-.344.282-.824 2.13-1.723 2.983-1.928-.215-.662-1.407.187-2.053.137-.548-.043-.955-1.457-1.056-1.46Zm8.063 4.188.112.397.002.004c.438-.294.88-.59 1.326-.879-.48.155-.962.316-1.44.478Zm5.2-1.603c1.875-.33 2.82-2.083.547-.952-.125.065-.118.812-.547.952Zm-3.176-1.257c-.223-.004-.446-.005-.671-.006l.271.57c.308-.35.62-.702.934-1.049-.185-.054-.374-.106-.56-.158l.026.643Zm7.878-1.026c-.83-.14-1.663.769-1.312 1.21a81.148 81.148 0 0 1 1.856-.585c.115-.27 0-.528-.544-.625Zm.18-5.925c1.186-.95-1.888-1.106-2.85-.814-.965.274-2.26 1.407-3.3 1.758-.62.206-.744-.197-1.373.02-.94.32-2.604.851-3.367 1.44-.275.214.104.9.197.962.23.135.572-.42.814-.434.24-.013.125.373.43.297.306-.082 1.895-.794 1.996-.887.584-.586-.44-.683.425-.898 1.304 2.388-1.635 1.63-2.009 1.94-1.368 1.122.004.83.394.93.388.1-.224.689.02.836l.007-.005c.247.144 1.379-.201 1.451-.424.147-.489-.982-.439-.267-.988 1.05-.306 2.131-.592 3.196-.858a215.18 215.18 0 0 1-.444-.966c-.2.187-.405.378-.603.568-.225-.045-.45-.09-.676-.131.474-2.195 2.546-.591 4.183-1.947.01.418.04.848.042 1.257 2.898-.235.927-.274.696-1.252-.129-.564.867-.27 1.038-.404Zm-11.08 3.107c-1.607-.091-.96.07-1.538.873-.389.54-1.24.173-.748 1.007.777-.713 2.561-.863 2.286-1.88Zm14.038-.384c.215.377.464 1.561.933 1.626.743.099 1.313-.565.803-1.058-.156-.15-1.567-.18-1.736-.568Zm-6.238 1.002.004-.001c.166-.04.336-.08.504-.116.13-.28.265-.563.398-.841-.144-.073-.287-.148-.431-.22-.161.39-.319.786-.475 1.178Zm5.663-5.113c-.996.092-.624.836-.274 1.263-.61.252-1.213.492-1.813.747 1.806-.395 2.003.554 2.334 1.712.747-.003.059-.718.839-.75.274-.01.38.49.44.52.709.336.498-1.127.095-1.206-.405-.078-1.194.41-1.528-.128.556-.4 1.176-.131 1.879-.433.835-.357-.031-.948-.263-.706-.458.482.013.976-1.042.667-.905-.26.114-1.754-.667-1.686Zm14.974 2.922c-.602-.305-1.484.125-1.017.51.462.382 1.754-.13 1.017-.51Zm20.41-.748c.401.882 2.331 1.553 1.216.437-.287-.282-.825-.313-1.216-.437Zm10.421.075c-.365-.59-1.801-.066-1.583.421.298.672 1.646-.299 1.583-.421ZM73.6 2.07c-1.563-.63-2.557.605-4.05.279.355 1.181 1.531.22 2.4.72.256.155-.839 1.323.541 1.47l.003.002c.44.044 2.116-.453 2.7-.162.188-.492-1.342-2.208-1.594-2.308Zm24.286 2.2c1.452.253 1.817-.624.401-.438-.302.041-.362.235-.401.439Zm2.618-.485c.703.01 1.738.547 2.009-.14-.498-.203-1-.404-1.505-.598-.169.245-.339.492-.504.738Zm-9.073-2.3c-.894 1.557.817.559 1.556 1.342h-.005c.215.235-.829.893.25 1.015.686-.154.162-.657.51-.951.353-.298 2.282.142 1.23-.86-.33-.32-2.957.069-3.541-.546Zm-23.563.981c-.179-.015-1.313.185-1.287.492 2.107 1.19 2.702-.364 1.287-.492Z"/></svg>