<svg preserveAspectRatio="none" xmlns="http://www.w3.org/2000/svg" width="439" height="77" fill="none"><path fill="#97d7ed" d="M33.968 76.385c.271-.098 1.364.14 1.837.099-.536 1.032-2.817.256-1.837-.1ZM82.482 1.38l-1.176.766c1.115.165 2.613-.022 3.648.22.17.041-.27.78.13.814.402.033.325-.978.907-1.086.654-.118 3.647.586 4.683.57 3.876-.07 7.785-.646 11.669-.226-4.01.747.03 1.507 1.153 1.183.249-.075.21-1.953 4.233-1.48 2.556.3.195 2.986 4.46 1.64-3.28-1.878-.054-1.747 2.517-1.81.443-.01 4.024.272 5.606.19.541-.03 1.365-1.014 2.083-1.04.493-.017.868.52 1.601.493 3.419-.12 6.782-.162 10.207.02-2.001 2.528 1.571 1.077 1.732 1.198.815.686-2.875.882-1.415 1.312l6.119-.236c-1.674-.31 2.216-2.129 2.932-1.301-.315-2.235 9.295 1.943 10.759 1.198.305-.158-1.689-1.262 2.938-.757.501.056.312.73.575.668.158-.04 1.11-2.18 2.125-.997.371.432-2.001 1.84 3.207 1.274-2.074-2.18 7.22-1.181 8.93-.635l-1.025-.878c1.69.79 1.996.048 2.377.088 1.535.163 3.645.91 5.074.842 1.673-.078 1.679-1.435 3.629-.907l-1.389-.897 4.041.215c-3.119 1.795.673.086.923.047.399-.065-.174.67.493.578.068-.015-.031-.707.997-.785 2.145-.16 1.806.71 2.707.701.082-.004-.206-.629 1.35-.776 4.946-.47-.025.478-.215.564-.248.115 1.446 2.72-2.755 1.795 1.411.294 1.554 1.448 1.712 1.477.144.023 2.585-.14 2.72-.179 1.201-.391.144-1.18.378-1.321.192-.114 3.137.913 3.827-1.457 1.409 2.186-.811 1.986-3.174 2.322-.344.449 2.251.885 2.387.884 3.347-.004 1.494-1.803 2.226-2.952.384-.6 1.747.626.488-.987 3.038-.17 1.196.765 1.393.903.296.202 1.357-.258 1.491-.197.195.09-.483.649.287.845.13.027 1.367-.933-.232-1.391 2.138.136 1.962-.682 2.687.968 1.472-3.122 1.068 1.846 1.647 2.02 1.542.462 1.095-1.99 1.176-2.11.562-.765 4.828.077 5.885-.277-.417 1.766-3.383.02-4.046.363-2.211 1.14 3.116.882 1.511 3.101l2.019-1.828c1.234 1.427-.517 2.049 2.805 1.527.543-1.23-2.349.195-1.769-.775.342-.57 2.268-.691 2.307-.991.038-.362-1.703.066-1.429-.49.6-1.198 6.948-.057 2.116.597 1.348-.02 2.043 2.365 3.212 1.622.755-.482-3.498-3.777 2.883-3.173.136 1.125-2.545.335-2.621.418-.098.125.387 2.662.472 2.792.297.413 6.814-.947 8.191.33-.545-1.47 4.924-.263 5.52-.71.158-.125-.434-1.023-.265-1.119 1.058-.567 3.918 1.04 5.245 1.081 1.485.047 1.297-.73 1.38-.728.654.043.132.57.531.568.605-.002 4.75.105 4.958-.005.061-.034-.615-.921.289-1.09.156-.029.057 1.023 2.735.569 3.223-.547-2.239-1.31-.9-2.411 2.072 1.569 2.004.014 2.566.136.195.046 1.643 1.367 3.214 1.284l-3.385.643c1.109.232 3.263-.055 4.177.207.445.128.078 1.214 1.046 1.185.205-.012 1.021-2.659-1.515-1.472-.203-.945 1.003-.33 1.563-.597.085-.041.419-1.62 1.134-.638.171.244-1.696 4.844 3.123 1.512.156-.107-.384-.684-.232-.803.104-.081 1.335.152 1.471.07.137-.089-.456-.717-.29-.84.848-.64 1.962 1.857.212 1.667l1.755.927c-.626-1.882.919-.53 1.729-.588 5.187-.37 1.714-1.594 2.605-2.227 1.435-1.017.339 2.204 2.469 1.236.196-.091-2.376-1.458 2.649-.687l-2.226.16c.428 1.82 2.679-.125 2.852-.15 1.974-.25.64.406 3.571-.531.262-.084.832.365 1.391.14 2.32-.923-3.061-.56-3.209-1.296-.069-.362 5.719-.27 5.917-.1.843.76-2.623.336-1.963 1.28.244.334 8.491-.354 10.146.013 1.909.427 2.769 2.895 2.781.122.539 2.722 1.016.865 1.26.884 2.953.252 2.959.279 5.491.018.559-.056 1.031.77 1.229.63.115-.084-.1-.967.464-1.24.783-.373 5.492.536 5.841 1.024.349.489-1.987.212-1.569 1.015 1.692.081 3.315-.117 5.019-.032.707.037.344.599.65.61.135.006 2.573-.488 2.47-.695-.243-.482-7.788-.158-5.801-1.142.383-.19 1.738 1.105 1.522-.47l20.223 1.072c-3.873 1.178-8.232.124-12.289.234-.557.014-2.435-.138-2.207.658 3.45.207 7.739-.208 11.052.311.104.019-.283.732.113.846.742.211 3.159-.942 3.565-.644.068.07-1.304 1.012-.887 1.611 1.073 1.539 1.346-1.868 2.269-1.828.715.033 5.51 1.68 6.705.64 1.271-1.11-3.533-.644-3.179-1.55 3.251-.912 6.543.06 9.615-.053.054-.002-.416-.713.269-.813 1.193-.173 1.507.835 2.087.996.626.172 2.841.028 3.137.396.036.051-.41 1.045-.478 1.076-.965.412-1.308-.886-1.396-.903-.33-.049-.653.447-.954.418-.495-.049-.768-.509-1.422-.55-.451-.03-.016.853-.451.813-.163-.022-1.881-2.032-2.041.024-.043.65 14.027 1.482 15.433.963l-3.329-.681c2.387.418 5.111-1.007 5.312 1.33l27.266.596c1.622.208.732 1.772 3.402 1.317l-2.069-1.494c1.368.35 7.431 1.031 8.413.709.127-.043.304-1.458 1.819-1.58 1.344-.107 1.561.954 2.279 1.157.604.167 1.281-.11 1.46-.052.138.047.192.696.523.809 1.044.35.198-1.476 1.234.62l-.757.24c1.26.304 2.981 1.255 1.125 1.725-.319.08-.045-.546-.283-.545-9.319.116-1.877 1.335 1.389.361.838.93 5.539.363 5.695.546.216.265-.587 1.008.467 1.65.222.135 6.507-.385 4.244.85-.467.255-3.481-.013-4.207.023 1.709 1.97 5.714-.851 6.166-.78 1.817.307-3.491 1.708.603 1.937 3.148.175.193-1.14 1.404-1.702.681-.314 4.243 1.134 4.146-.743 1.223-.2.508.794.658.865.152.062 2.553-.498 3.332-.103.095.05-.203 1.025-.105 1.105.19.136 2.507-.058 2.603-.141.059-.057-.494-.912-.267-1.12.265-.238 2.496-.037 2.619-.282.173-.368-2.58-.126-2.121-1.08 1.27.24 3.337-.397 4.176-1.166-.206.22-1.436.252-1.864.174.202-1.398 2.845-1.38 1.941-.272.574-.595.182-.91.506-1.472.086-.142.901-.17 1.058-.413.021-.048-.822-.576-.653-.86.306-.513 2.779-.398 2.982-.263.57.382-1.447.844-1.616 1.434-.018.093 1.693 1.246 1.719 1.348.1 1.095-1.809.306-1.591 1.292l1.417.625c-1.821 1-5.191.486-6.06 1.622 2.7-.338 5.526-.298 5.52 2.261-.002 1.078-1.167 1.71-1.122 1.983.172.98 1.79-.085 1.85-.033.049.06.071.119.071.175-.001.574-2.304.987-2.421 1.249-.194.465.831 2.381.83 2.806-.036.085-1.677.538-1.123 1.278.561.747 1.998.764 2.048.842.274.447-2.238.854-2.314 1.118-.04.133 1.31.954 1.349 1.19.034.236-.992.752-1.396 1.498-.302.555.576.98.422 1.068-.114.057-2.486.048-2.603.145-.173.145.382.807.302.973-.115.238-.882 0-.783.244.076.183 3.049 2.469 3.03 3.08-.035 1.04-3.183-1.355-.253 2.753.02.027.73-.264.754-.24.44.756-1.846 1.919.949 1.716-5.201 1.313-.647 1.565-1.416 3.318-.297.674-2.314.952-2.323 1.053.196.854.838.192 1.056.61.12.234-1.683 1.139-1.277 1.726.211.302 2.123.195 2.203.254.758.556-.171 1.155-.005 1.55.111.265 1.267.287 1.297.334.043.103-1.521 1.17-1.848 1.546-.248.29.684.743.511.87-1.044.754-3.266-1.17-1.125 1.527.131.165.936.1.964.132.501.764-.99.83-1.257 1.457-.458 1.078 1.685.477-.097 1.236 1.337.706 2.082.676 3.647.48-4.333.548-5.862 3.34-1.052 3.27-1.529-.043-1.36 1.532-1.816 1.56-.284.016-2.504-1.55-1.486 1.965.127.44 1.475-.118 1.053.78-3.233-.229-.072.572-.065.691-.042 2.071-7.945.376-9.304.611-1.576.274-2.976 1.906-3.319 1.909-1.127 0-.193-.828-.445-1.133-.256-.302-3.458 1.284-3.62 1.198-.621-.35.009-1.332-.055-1.382-.77-.601-5.074.168-6.279-.06.038.636 2.457.687.947 1.71-1.758 1.192-1.86-1.611-1.906-1.739l-24.178.08c.101 1.494 5.368.367 5.489.564.704 1.164-8.195 1.144-9.289.616l2.488.968c-1.416 1.718-4.551-.514-6.599.244-.662.246.608.909.582.954-.744.667-1.937.154-1.045-.742-1.816.858-1.551-.089-2.944-.16-.072-.003.526.69-.576.977-.516.134-3.272.137-3.641.743-.151.257 1.246 2.943 1.418.63 2.997 1.128.958-1.055 2.123-1.002.178.013-.232 1.304 2.699.697-.559 2.328-3.933.587-4.513.869-1.193.58 3.725 1.782 4.627-.033-.422 1.817.349.245 1.445.32 1.2.081.677.622 1.326.625 1.776.013 1.04-1.27 2.504-.113-1.427-3.58 2.507-.472 3.653.466l-5.596.544.32.564c-.491-.027-.982-.052-1.473-.08l.236-.54c-2.533 1.171-3.152-.145-3.358-.16-2.659-.152-5.73-.141-8.418-.146-.404 0-.127 1.171-3.067.254-.937-.292-.052-1.203-1.115-1.066-1.329 2.476-1.305.5-1.7.498-1.134 0-1.828.613-1.933.62-1.401.096-3.454-.006-4.993.085-.029.01.772.77-.228.545-.354-.083-3.503-3.328-6.255-2.27.716.22 1.433.438 2.149.657-.842-.306-6.743.513-5.301 1.382.885.532 3.045-1.562 3.282.451-1.964-.602-12.81.3-13.655-.169-.115-.067.602-.72.441-.803-.129-.063-2.609.09-2.939-.16-.195-.15.901-.55.813-.785-.078-.167-3.182-.447-3.359.371.762-.328 2.904-.041 1.781.649-.145.085-.893-.442-1.069-.334-1.628 1.003 3.238.763 3.991.771-3.056 1.044-7.784-.186-11.326.494-1.431-.682 2.121-1.043.502-1.608-3.358-1.17-.894.943-.998 1.03-.835.686-3.675-2.998-3.677-.193-1.217-.422-.824-.776-2.543-.41l.679.584c-1.908 1.624-5.945-2.474-5.643-2.787.813-.837 2.917.468 3.096.436.266-.048 1.002-2.891 3.91-.347 1.191-1.909-4.611-1.288-1.97-2.59-1.783.214-9.12-1.114-10.176-.276-.125.112.459 2.01-1.352 1.042-.86-.46 1.214-.483.821-.917-1.215-1.329-17.688-.478-20.818-.408-.202.002-.128-.588-.328-.583-.613.017-2.848.897-3.945.625 2.274 1.093-2.142 1.178-3.266 1.058-1.705-.183-1.599-1.222-2.336-1.444-2.839-.851-7.238 1.616-9.443-.69.121 2.288-3.815-1.121-5.606-1.142-1.402-.016-3.436 1.498-1.543 2.42-2.421-.105-4.969.322-7.24.461-.375.024.141-.653-.499-.593-.058.011-.138.675-.688.744-4.54.578-2.331-.832-3.181-1.246-.475-.232-.826-.347-1.083-.385 2.646-.13 5.699-.39 6.515-.41-.696-1.464-5.865.281-7.379-.113-.052-.016.13-.821.077-.827h-.003c-.567-.062-4.18.237-3.436 1.2.2.256 1.863.256 3.835.168-.534.18-.137 1.083-.23 1.123-1.142.447-3.941-.435-4.934-.554-.226-.026-.21.553-.248.554-.902-.131-.533-1.785-1.459-.08-1.634-2.06 3.065-.305 2.734-1.644-.255-1.03-10.691-.477-10.661 1.146-.036-.173-.18-.388-.474-.633-.653-.545-3.558-.375-4.06-.076-.084.063-.05 1.633-.155 1.65-.262.036-3.813-1.2-5.139-.269l2.148.663c-3.784.012-3.746.373-2.712.779l.496.175c.072.005.142.064.211.07 1.117.35 2.55.685 2.571.81.081.474-7.256.738-5.844-.724.197-.2 3.591.45 1.91-.593-.296-.182-2.475.115-2.589 0-.765-.765 3.994-1.78 3.413-2.866-1.155 1.034-2.639.49-3.964.756-.602.121-.751.91-.825.926-1.112.207-.488-.622-.859-.601-.2.014-2.391 1.777-1.977-.654-7.218 1.789-1.997 1.787 2.432 1.65-1.4.885-4.143.456-5.374.662-.442.075-.18.886-.926 1.049-1.536.333-8.868-.599-10.778-.819 1.173-.286.83-1.169-.076-1.108-.905.062-.144 1.24-.321 1.367-.189.132-4.437-.425-5.144-.272 3.198-.427 2.476-1.308-.239-1.4l1.178-.762c-1.591.356-4.936-.988-5.856-.588-.145.064.374.805.293.842-.807.314-3.549-.44-3.679-.189-.108.21 1.062.832.628 1.138-.091.064-1.22-.937-2.331-.69-.413.09-.165.79-.269.83-.866.337-.355-.842-1.937-.653-1.16.14-2.023 1.294-3.625.912 5.261 1.47.837.856-1.363 1.302-.352.072-.05 1.343-2.156.724 4.482-2.3-1.278-1.216-2.457-1.24-.065-.009-.087-.848-.665-.861-.048.002.021.568-.516.611-5.094.41-1.837-.23-2.804-.79-.412-.238-2.891.564-3.558.583-.153.001-.083-.586-.676-.563-1.05.042-1.991.669-2.684.719-.081.002-.085-.927-1.399-.625-.369.084-.784.414-.259.681 1.74.879 5.041-.643 7.008.235 1.793.798-3.863.874-4.157.879-.105.001.996-.46-.125-.55-.958-.076-2.71 1.529-4.139 1.18-.11-.03-1.245-1.383-1.197-1.467.048-.057 1.801-.354 1.546-.748-.034-.044-1.144-.036-1.289-.329-.178-.358-.659-3.86-.897-3.947-.61-.217-.213.582-.607.527-.846-.118-3.783-1.154-3.879.06l1.455.217c-2.698.125-1.548.641-1.93.869-.412.246-.297-.82-1.206-.92-.202-.023-4.005.2-3.936.648 2.103-.712 1.327.603 1.422.63.369.085.84-.655 1.335-.64 3.48.115-.029 1.283.792 1.584.283.1.847-.53.967-.498.389.105.396.932.656.865.607-.155-.101-1.325-.054-1.387.542-.732 2.668.179 1.345 1.452.794.46.888-1.088 1.517-.47 1.252 1.225-.624.91-1.132 1.114-1.823.733-2.364.14-4.945.344-.929.071-2.03.822-2.462.864-.271.026-2.836-2.59-2.912 1.504-.997-.396-2.561-3.093-3.589-2.97-.922.113-.629 1.56-.715 1.616-.133.088-1.247-.026-1.624.179-.442.242-.222.794-.923 1.02-1.746.559-1.7-.92-1.879-1.015-2.083-1.11-1.171.992-1.633 1.161-.431.155-6.457-.655-7.727-.123l1.549-.888c-.924-.922-1.903.582-1.921-1.071-.187 2.669-2.095.885-2.668.954-.225.029-.207.483-.49.503-1.104.08-3.592-.282-4.191-.052-2.589.993 4.029 2.644 4.552 2.744-1.044-.029-6.946.569-4.233 1.852.42.198 1.163-.996 1.399-1.043 1.594-.308.34.763.465.865.214.163 1.263-.871 1.539-.748.092.04-.502 1.009 1.018 1.03-.748.94-5.022.174-5.583.395-.199.08 1.051 2.085-2.605.136l.126.56-6.11.23c.221-.43 1.364-1.293-.076-1.11-.828.107-.216 1.062-.291 1.09-.744.264-13.916-.055-16.469.052-.868.035-3.285.803-3.473.818-1.103.077-5.01-.424-5.79-.315-.487.07-.025.87-.46.832-.403-.036.014-.807-.105-.84-.995-.281-8.549.732-10.343.003 1.097.219 6.567-1.325 6.457-1.87-.025-.075-1.352-.662-1.627-.376-.453-.67-2.009 1.368-2.855.968-.096-.046.28-1.188-1.23-1.396-.52-.07-1.882.82-3.254-.178-1.984.48-12.42-1.003-13.137.225-.021.065 1.448.488.456.992-1.32.67-.136-1.586-1.674-1.781-.235-.03-4.505.198-4.651.338-1.296 1.266 2.439 1.78 2.39 1.927-.13.37-3.238.595-3.364.508-.117-.093 2.413-1.77-.63-1.133l1.045.601c-1.431.39-1.568-.769-1.915-.84-1.079-.225-2.246 1.538-3.975-.64-.456-.578.303-1.22.245-1.307-.548-.778-1.25 1.303-2.075-.249-.059-.117 1.857-1.045-1.499-1.048l.694.447c-.474.332-3.872.53-4.33.45-1.337-.229-.172-1.297-1.515-1.17.861 1.465-3.222 1.656-2.987.395-.57 1.583-4.04.362-5.67.325-1.03-.023-3.128.668-3.455.587-.399-.099-.278-1.179-.997-1.42-.204-.068-2.346.724-4.225-.394-.364-.216-1.13-2.047-.452-2.505 1.158-.783 3.35.692 3.322-.39-.033-1.157-2.984-.47-3.78-.62-3.668-.7-1.55-1.93-1.644-2.303-.245-.906-2.25-.878-2.333-.96-.346-.361 1.074-1.078 1.096-1.63.025-.72-1.907-2.018-1.468-2.261.629-.344 2.405.738 2.518.687 1.465-.698-.543-2.36-1.097-3.177-.168-.251.5-.665.361-.738-2.124-1.119-.448 2.335-1.86 2.105-1.26-.206.36-1.298.313-1.358-.068-.066-1.57-.127-1.805-.512-.116-.194 3.8-2.319 3.637-3.272l-3.75.63c-.097-1.242 1.7-.328 1.886-.456.374-.257-.67-.885-.625-1.278.025-.25 1.25-1.142.143-1.509-.38-.127-1.179.744-2.564-.145 4.82-1.137 1.482-1.835 1.338-2.275-.139-.44 2.162-1.476-.632-1.293-.12-2.417.061-.763.855-1.188.972-.523-1.275-1.32 2.28-.715-.203-1.132-3.06-1.051-3.212-1.142-.13-.082.504-.638.279-.827-2.678-2.187-.84-1.189-1.615-2.585-.069-.125-2.6-.643-.673-.846 3.51-.37 4.978 1.234 5.568-2.195-2.597-1.489-5.742.723-6.532.76-1.208.055.042-.644-.106-.84-.052-.063-1.093-.006-1.107-.061-.742-2.615 4.636-.044 6.329-.498L9.1 34.89l1.847-.047c-2.933-.788-.103-.299.628-2.416.164-.476-1.762.34.436-.983-1.622-.305-1.105-.737-2.573-.14.038-.849 3.341-1.807 4.644-2.242-4.602-.954-1.978 2.16-5.957.512-.737 1.05 1.16.847 1.007 1.02-.556.624-1.858-.366-3.43 1.82-.255.358.827 1.463-.775 1.41-.178-.008-1.198-.953-1.184-1.021.136-.739 1.145-.462 1.187-.77.039-.293-1.087-.117-1.092-.198-.035-.926.94-.354.799-.643-.306-.631-4.36-2.624.931-2.04-4.394 1.046-.563 1.022 1.149.62.436-.101.547-.654 1.169-.846.8-.249 1.736.016 2.15-.085.445-.112-2.084-1.42 1.574-1.03-1.862-1.3-5.15.086-6.98-.827-3.689-1.845 2.571-2.24 3.225-2.42.174-.048-.408-.795-.293-.841.19-.07 3.744.275 4.095-.343.35-.618-1.302.028-1.412-.616-.072-.434 4.213-1.203 1.893-1.5-1.6-.202-4.55 1.54-5.046-.333l7.058-.465-3.863-2.139c2.64-.226 4.925.58 7.433-.441-6.025-2.284 1.951-1.823 2.045-2.1.029-.167-2.342-2.02-2.725-2.36 2.037-.691 8.094-1.04 5.073-3.143l-.255-.166c.713.396 2.255-.805 2.234-.898-.21-1.011-3.791-.355-3.207-1.269.677-1.06 1.626.378 2.668.263 5.345-.599 3.879-5.878 9.238-5.043l-.32-.563 17.48.897C52.23 1.892 58.296.91 61.275 1.088c.6.035 3.547.88 3.769 1.03.411.284-1.852.392-.83.925.217.11 5.203.465 4.847-.436-.558-.105-2.308.348-2.594.135-2.009-1.516 13.363-.305 14.126-.916L79.572.947l2.91.433Zm-44.58 72.448c-.583.905-2.042.226-2.904.48-1.191.355-3.217 3.84-2.345.347l5.248-.827Zm25.569 1.349c-1.173-.486-.264-2.437.698-1.626.107.092.889 2.28-.698 1.626Zm-12.3-.926c.053-.026 1.064.026 1.1.057.908.783-2.148.623-1.1-.057Zm59.413-1c-1.293.083-.357 1.857.446 1.127.051-.046-.36-1.128-.446-1.128Zm-.92-.048c-1.004-1.588-3.025 1.63-1.418 1.307.158-.035 1.464-1.23 1.418-1.307Zm-50.375 1.198c.133-.608 1.342-.314 1.858-.168-.014.555-1.35.1-1.858.168Zm30.68-.168c.052-.48-4.153-.452-4.44.178.665-.267 4.392.251 4.44-.178Zm10.788-.672c-.107-.083-1.56.042-1.518.464.71.554 1.997-.09 1.518-.464Zm21.438.028c.079-.106-1.009-2.793 1.57-1.025.378.26-.972.96-.839 1.057.281.188.505.276.683.292-1.2.223-2.448.327-2.569.164-.565-.768 1.113-.445 1.155-.488Zm11.256-2.002c.248-.438 1.826-.205 2.187-.024.061.034-.207 1.186.505 1.1.57-.072-.283-1.251.83-1.062 1.124.19-.378 1.03-.28 1.09.132.078 1.871-.451 1.817.235-.041.508-1.904.164-2.365.272-.589.14.126.986-.86.804-.619-.114-.277-1.602-.407-1.678-.11-.06-2.276.796-1.424-.733l-.003-.004Zm-94.046 2.034c-.01-.484 1.786-.517 1.886-.446.61.46-1.2 1.048-1.886.446Zm85.643-.986c1.783.373.471.885-1.114 1.212.503-.28.515-1.337 1.114-1.212Zm-50.647.62c.075.111.123.284.13.568-.198-.31-.216-.478-.13-.568Zm4.162.508c1.426-.867-1.472-.832-1.455-.212.009.234 1.397.246 1.454.212Zm33.678-.428c-.129-.086 1.896-2.701-1.047-.738 1.57.308-.084.593-.061.822.064.659 2.702.026 3.287.31.457-1.178-1.747-.115-2.175-.394h-.004Zm39.238-.686c.357-.69 1.492-.469 2.257-.428-.357.69-1.492.468-2.257.427Zm202.568-.33c-5.245.639-5.925-2.172-1.126-1.061.094.023 1.443.776 1.126 1.061Zm-45.015-.728c-.494-1.225 1.141-1.422 2.215-.916.243.114 1.142 1.355.116 1.597.033-1.485-1.554-2.052-2.331-.681Zm-182.976.259c.519-.818 2.118-.235 2.961-.113-.515.673-2.216.369-2.961.113Zm210.755-.996c-.552-.093-.925.97-.831 1.061.428.407 1.461-.454.831-1.061Zm-215.916.869c-.073-.489 2.044-.959 2.192.249-.453-.088-2.14.057-2.192-.25Zm31.398.132c-.329-.249 1.374-.693 1.889-.447-.042.52-1.672.608-1.889.447Zm175.617-.64c-.495-.093-1.732-.12-1.869.31-.17.539 1.644.355 1.869-.31Zm89.412.306c-1.615-.675 2.629-1.372 2.704-1.237.063.194-1.852 1.59-2.704 1.237Zm-75.277-1.217c1.56 1.013-.173.032-.105 1.1 1.051.038 3.664.09 1.868-.96-.35-.203-1.273-.071-1.763-.14Zm-1.441-.358c-.167.346-1.292 1.437-.32 1.359.45-.038 1.175-1.25.32-1.359Zm67.554.813c-1.398-.945 5.016-.438 5.2-.273.098.088.161.17.198.24.235-.299 1.447-.353 1.588.405-.364-.063-1.356.004-1.471-.08a.49.49 0 0 1-.112-.104c-.428.658-5.135-.009-5.403-.188Zm-10.629-.973c1.601-1.394 1.884.977 1.746 1.053-1.74.969-.609-.773-.659-.86-.122-.136-1.36.675-1.082-.193h-.005Zm8.45.583c.066-.03 1.406.043 1.465.08 1.102.797-2.701.593-1.465-.08Zm-264.666.353c-.052-.031-.227-1.002.622-.794.962.236.018 1.107-.622.794Zm198.523-.54c-.223-.165-5.931-.787-5.589.53.485-.156 6.972.523 5.589-.53Zm-42.659-.32c1.006.01-.091 1.253-.628.79-.199-.173.374-.792.628-.79Zm-179.138.733c-1.045.682-.829-1.608.077-.823.035.033-.036.796-.077.823Zm187.18-.019c-3.472.753-2.649-3.186 1.864-1.856l-.424.526c5.209.591.356.278-.92.498-.484.084-.078.742-.517.837l-.003-.005Zm-13.335-.79c-3.343-2.796 3.038-.975 4.869-1.339-1.775 1.155-4.084.98-.942 2.162-4.595.228-2.682-.885-2.866-.978-.217-.104-.919.275-1.061.155Zm8.818-.018c.193-.082 1.649.487 2.174.394-.734.955-3.457.16-2.174-.394Zm85.684.667c.121-.749.42-1.3 1.569-1.02-.355.376-1.089.7-1.569 1.02Zm-63.129-.86c-.169-.092-4.521-.154-3.018.672.456.249 4.413.143 3.018-.672Zm-286.46.315c-.791-.054-2.368-.336-1.885.45.053.068 1.882-.009 1.885-.45Zm309.001-.221c-.364-.008-1.845.133-1.876.31-.099.612 1.717.276 1.876-.31Zm-312.994-.545c-.106-.077-2.521.06-2.256.423.504.687 2.613-.156 2.256-.423Zm112.633-.95c.202-.027.468.785.539.795.164.011 3.863-.301 2.45.742-.236.175-5.558-.226-6.25-.33-.267-1.114 2.005-.054 2.558-.168.098-.022.161-.956.701-1.034l.002-.004Zm244.727 1.354c-.928-.502 1.245-.668 1.886-.447.007.477-1.749.52-1.886.447Zm-51.747-1.913c-.274.014.052-.963-.867-.596-.437.173.905 1.207.606 1.409-.192.125-1.169-.262-1.48.061-.089.103.907 1.076 1.195 1.034.409-.056.013-.821.459-.827 1.483-.016 2.797.53 4.187.517.125-.003-.848-.544.222-.536.166 0 1.16.806 2.441.686 2.828-2.494 4.904-.045 8.493-.944-.136-.235-2.82-.865-2.978-.889-3-.41-8.374-.454-11.516-.46-.806-.002-.415.526-.762.545Zm-301.2 1.735c-.377-.977-1.701-.36-2.546-.41.297.881 1.72.193 2.546.41Zm333.424-.578c-.424.037-1.736-.257-1.845.037-.14.383 1.754.626 1.845-.037Zm-204.348-.32c.047-.027 1.06.025 1.099.056.91.784-2.147.623-1.099-.057Zm24.378.188c.772-.12 1.552-.426 1.811.366-.492-.121-1.902.185-1.811-.366Zm33.632-.024c-.16-1.037 2.165-.365 2.605-.272-.163.46-2.488 1.02-2.605.272Zm161.916-1.438c1.421.061 1.121-1.51 2.024-.799.147.12.624 3.393-.939 2.167-.282-.22.819-.999-1.085-1.368Zm-78.402 1.574c.362-.686 1.492-.482 2.256-.427-.172.51-1.712.378-2.256.427Zm-279.379-.413c-.666-.969-3.747-.25-2.986.39.109.083 2.554-.427 2.986-.39Zm101.233.38c1.268-.762-1.358-.999-2.187-.253.376-.049 2.097.303 2.187.254Zm86.554-.667c.067-.03 1.403.042 1.464.08 1.102.797-2.701.593-1.464-.08Zm-33.571-.672c.485-.628 3.668-.12 4.382.508-.687.917-4.983.276-4.382-.508Zm197.713.244c1.015-.032 1.977.161 2.909.433-.196.528-2.802-.038-2.909-.433Zm-22.706-.371c-.85-.209-.675.76-.622.79.64.314 1.584-.554.622-.79Zm-321.416.658c-.295-.874-1.724-.196-2.547-.404.239.69 1.884.496 2.547.404Zm252.058.085c-1.068-.948 3.277-2.049 4.193-1.438.068.585-4.037 1.568-4.193 1.438Zm6.379-1.039c.408-.209 1.36.467 1.025.879-.43.528-1.13-.818-1.025-.879Zm-168.948.451c-.085-.685-1.909.141-1.522.465.245.206 1.573-.04 1.522-.465Zm205.581-1c-.178-.105-2.579.597-1.587 1.296.687.485.797-.503.958-.508.181.004 4.036 1.216.629-.789Zm-67.351.99c.906-.263 2.001.043 2.949.024-.386.424-2.564.54-2.949-.023Zm-131.193-.173c-.22-.277-6.213-.444-2.808.409.201.048 3.476.43 2.808-.41Zm252.821-.155c.238.027.446.073.627.108a2.749 2.749 0 0 1-.627-.108Zm-15.524.004c.327-.498-1.322-.631-1.808-.366-.15.61 1.763.436 1.808.366Zm-103.084-.347c.546-.286 1.538.02 2.214-.014-.115.463-1.978.485-2.214.014Zm-38.357-.522c1.084.276 2.418.149 2.439-.418a.666.666 0 0 0 .163.277c.092.093 1.251-.17 1.755.024 3.021 1.15-11.671.675-3.155-.926l-1.202 1.043Zm-50.282-.16c-.616-.69-2.339.175-1.892.447.313.186 2.508.248 1.892-.447Zm23.69-.408c-.184-.123-1.868.36-1.911.723.968.383 2.749-.151 1.911-.723Zm-28.423-.4c-.385-.103-.876 1.003-.834 1.057.393.406 1.483-.437.834-1.057Zm209.66-1.057c-.575-.319-2.407.486-2.806 1.221-.074-.142-.274-.327-.641-.55h.003c-.495-.296-15.308-.621-5.372.795.311.045-.113-.615 1.152-.499.084.01.126.547.383.574.595.057 3.76.396 4.398-.037.005.1.047.195.134.282.781.776 3.195-1.54 2.749-1.786Zm-177.9 1.358c-.339-.2-1.41-.01-1.521.465.532.233 2.307 0 1.521-.465Zm-72.787-.263c-.69-.391-2.439.34-1.91.728.325.239 2.706-.28 1.91-.728Zm269.005.705c-.631-.161.111-1.536.805-.79.219.237-.452.877-.805.79Zm28.498-.428c-.539-1.22 2.092-.503 1.066.334-.052.026-1.028-.288-1.066-.334Zm-21.827.225c1.786-.234.129-.968 1.914-.723-.429.83-.708.929-1.914.723Zm-238.369-.324c-.496-.703-1.885-.651-1.471.057.041.066 1.268.463 1.471-.057Zm210.574-.052c.066.127.032.208-.077.283a.523.523 0 0 1 .077-.283Zm-200.97.146c1.212-.91-1.277-.699-2.149-.667-.049.525 2.064.729 2.149.667Zm-59.859-.132c.333-.412-.616-1.086-1.025-.879-.109.055.594 1.41 1.025.88Zm294.635-.7c.67 0 1.612 0 1.786.644-.449-.098-1.799-.172-1.786-.644Zm14.786-.047c-.791.757-2.598.755-3.751.63-.021-.996 3.008-.396 3.751-.63Zm-43.97-.117c-.058-.041-1.733-.337-1.504.329.335.978 1.977.033 1.504-.33Zm-263.217.705c.75-.46-.977-1.87-1.768-.78-.407.558 1.642.857 1.768.78Zm45.491-.348c-.456-.056-1.455-.512-1.806-.376-.99.386 1.463 1.073 1.806.376Zm31.89-1.08c-3.12-2.01-1.422 1.655-.868 1.334.078-.046.941-1.284.868-1.335ZM22.113 64.944c.131-.416-1.136-.803-1.419-.625-.44.28 1.206 1.292 1.42.625Zm224.131.189-.391.018a.84.84 0 0 1 .391-.018Zm-89.678-3.295c2.197 2.838 1.967.651 2.158.663.412.031 1.371.798 2.148.672l-2.671.959c.706.205 6.814 1.25 6.942.789.182-.655-1.74-.45-1.796-.508-.081-.086-.382-1.904-.56-1.974-.298-.11-5.402-.148-6.221-.601Zm36.16 2.303c.501.216.644.938.877.766.079-.059.093-.747.364-.925-.414.053-.828.105-1.241.159Zm-40.093.249c-.622-.842 2.166-.522 2.256-.428.476.57-1.748 1.115-2.256.428Zm23.659-.122c-.103-.05-2.243-.312-2.226.155.567.356 3.43.46 2.226-.155Zm18.01-.334c.752.08 2.174.774 2.01-.263h-.002l-2.008.263Zm-69.863-.87c-1.393-1.65-.733.436.501.97.374-.742-.272-.7-.501-.97Zm-4.46-1.231c-.388-.297-4.385.028-3.775.902.217.312 2.513-.473 2.62-.413.161.09-.572 1.056.654.865-.072-.328.633-1.255.501-1.354Zm3.307.174c-1.385-1.256-1.697 1.06-.655 1.067.407.004.853-.886.655-1.067Zm5.658.197c-.498-.22-1.826-.54-2.741.23l3.674.198c.141-.436-.496-.235-.936-.428h.003Zm308.439-3.472c-1.101-.657 1.435-.909 1.542-.748.318.536-1.05 1.04-1.542.748ZM12.097 43.275c-.306-.262-.506-1.124-1.179-.672l2.031 1.908c.526-1.458-.518-.948-.852-1.236Zm-2.585-5.326c.093-.041-.426-2.274.808-.78.835 1.01-3.706 1.995-4.525 1.001.905-.462 2.893.067 3.717-.22Zm-7.953-9.7c-.053-.179 1.671-.441 1.872-.315 1.048.664-1.589 1.272-1.872.315Zm5.503.428c-.81-.435.981-.716 1.516-.466.052.417-1.39.529-1.516.466Zm419.174-2.402c-.875-1.523-1.658 1.756-.311 1.095.064-.031.349-1.02.311-1.096Zm-424.508.178c-.05-.416 1.394-.528 1.517-.465.808.435-.983.716-1.517.465Zm423.892-3.806c-1.162-1.096-.754 2.578-.608 2.73.598.585 2.651-.858 3.07-1.217-3.071.552-1.915-.997-2.462-1.514Zm-3.158 2.326c-.536.049-1.897-.23-2.204-.117-1.079.392 1.678 1.142 2.204.117Zm-8.751-1.297c-.58-.132-2.305-.447-2.594.132.633-.105 2.349.463 2.594-.132Zm-1.313-1.734c-.906-.787-1.124 1.504-.079.822.041-.027.113-.779.079-.822Zm-5.095-.828c-.595-.91-1.274 1.309-.31 1.369.286.012.373-1.264.31-1.369Zm16.862-2.425c-.852-.39-1.949 1.198-.131 1.373l-1.916.728c2.382.89 2.207-1.313 2.891-1.222.955.13.88 1.947.688 2.519.784-1.114 4.112-1.132 6.035-1.344-1.69-.467-4.434-1.278-6.102-1.574-.476-.086-.939.412-1.345.357-.65-.093-.074-.809-.117-.837h-.003Zm-23.562 2.392c-1.747-1.032-.641 1.197.346.8.042-.031-.302-.775-.346-.8Zm-400.58.02c-.108-.09.159-2.181.904-1.885 2.335.931.638 2.166 5.523.29-2.052 1.328-.114.956-.514 1.491-.322.423-1.525.073-.826.926-.92-.928-4.913-.672-5.092-.822h.004Zm413.68-3.253c-.583-2.704-.812 1.588-1.958-.654-1.526 3.255 4.215.001 4.91 2.75-6.234-.319 4.12 2.724-.232-1.391 3.585 1.493 1.175-.51 1.728-1.034.593-.558 2.619.048 2.517-.958h-.003l-3.722.21c1.214 2.173-1.321 1.522-2.18-.248l-1.06 1.325Zm7.021 2.04c-.123-.05-2.819.254-2.647.69.36.278 4.189-.055 2.647-.69Zm11.873-.475c-.969-.005-2.466-.429-2.994.39.968.005 2.466.43 2.994-.39Zm-49.88-.155c-1.235.672 2.566.871 1.467.075-.058-.037-1.407-.106-1.467-.075Zm28.178-1.001c-1.256-.826-.663 1.803.267 1.118.054-.04-.209-1.08-.267-1.118Zm-408.076.64c.084-.645 3.473-.193 4.074-.199-.342.6-4.168.937-4.074.198Zm431.483-1.895c-1.928-2.317-4.543.359-4.83.3-.285-.059.161-1.072.096-1.099-.151-.056-3.183.028-3.332.099-.105.055.444 1.478-.182 1.927 1.223-.81 6.775-.304 7.063-.461.223-.127-1.459-1.62 1.181-.766h.004Zm-7.431.441c-1.144-.492 1.784-.521 1.884-.45.759.596-1.369.67-1.884.45Zm-3.234-1c-.245-.134-2.436-.255-2.622.409 1.038.861 3.173-.098 2.622-.41Zm-24.403.09c-.569.084-2.135-.426-2.225.155.57-.085 2.136.424 2.225-.156ZM14.38 13.828c-.946-.486 1.246-.684 1.886-.451.034.387-1.804.493-1.886.451Zm396.302-1.123c-.342-.176-7.216.264-8.182.536.945.439 7.758.473 8.071.259.091-.064.154-.767.111-.795Zm14.879-.268c.631-.854 1.043.171 1.123.184.78.13 2.397-.062 2.043.76-1.377-.331-4.421.754-3.166-.944Zm-26.816.226c-2.336.317 2.151 1.218 1.563.324-.038-.054-1.321-.357-1.563-.324Zm12.705-.207c.515-.69 7.398-.095 8.503-.094-.99 1.274-1.788.306-3.117.371-.357.02-.263.547-.301.55-.621.025-.157-.587-.539-.596-.242-.005-5.271.742-4.546-.23Zm14.471-.61c.385-.49 4.682-.7 4.855-.57 1.293.969-4.521.74-4.855.57Zm-15.102-.523c.741-1.48 4.158-.489 1.819.25-.224.066-1.17-.575-1.819-.25Zm-11.825-.07c-.119-.044-2.55-.339-2.594.132.352.183 3.902.347 2.594-.132Zm-1.785-.653c1.495 1.602 5.997-1.466 3.048-.94-.055.016.509.918-.629.804-.095-.01-.274-1.032-1.709-.658-.291.077-.741.75-.71.794Zm28.791.418c-.231-.432.327-1.71.831-1.062.215.28-.188 1.047-.831 1.062Zm-34.729-.178c1.415-.775-3.025-.923-3.255-.725.142.483 3.114.8 3.255.725Zm-373.618-.447c-1.372.759-5.628-3.224-1.058-2.552h-.003c1.19.176.454.82.509.842 2.536.947 1.864-.514 2.26-.687.822-.36.722 1.286 2.008.734-2.142 1.004-.07.579-.005 1.198.266 2.58-3.158-1.208-4.34-.667-.163.076 1.051.897.63 1.132Zm409.566-.55c.552-.758 4.743-.023 3.633.601-.179.1-4.445.503-3.633-.601ZM231.436 8.726c1.006-.656-1.328-1.428-1.761-.917-.215.254 1.318 1.205 1.761.917ZM215.067 5.92c-1.197.133-2.458 2.868-.969 2.443.159-.049 1.106-2.063.969-2.443Zm78.595 1.405c-1.25-.977-1.175.838-.258.813.323-.01.297-.78.258-.813Zm-47.701.235c-.127-.064-1.57.053-1.518.47.534.25 2.327-.035 1.518-.47Zm48.098-.494c-.741.328.534 1.641 1.44.358-.46.105-1.364-.391-1.44-.358Zm114.178.245c-.62.745-2.376.52-3.384.648-.108-.966 2.664-.473 3.384-.648Zm-188.09-.291c-1.132.68 1.295 1.237 1.073.337-.034-.05-1.028-.366-1.073-.337Zm113.837-.052c-.823.576 1.791 1.35 1.072.338-.043-.044-1.027-.37-1.072-.338Zm11.42.334c-.625-.195-3.29-.135-2.253.428.162.086 2.206.1 2.253-.428Zm-325.972 0c-.337-.993 1.617-.757 1.897-.583.11.072-1.458 1.874-1.897.583Zm266.113-.132c-.647.124-2.324-.112-2.619.41.791-.109 2.831.627 2.619-.41Zm-60.231-.155c-.986-1.079-2.672-.972-2.255.437 1.862-.094-.23-1.267 2.255-.437Zm72.91-1.11c-.519-.082-.916 1.27-.858 1.335.562.607 1.373-.808.858-1.335ZM259.31 7.02c-.03-.579-1.692-.316-1.47.056.076.125 1.493.41 1.47-.056Zm127.157-.038c-.762-.528 1.563-1.044 2.252-.428.334.887-2.154.488-2.252.428Zm-73.863-.738c.078-.858-2.52-.373-1.498.338.257.178 1.471-.05 1.498-.338Zm41.712.188a4.586 4.586 0 0 1-.291-.06l.291.06Zm-16.838-1.217c-1.743 1.023 5.575 1.75 3.652.475-.139-.092-3.501-.562-3.652-.475Zm11.952.639c-.301-.114-.151-2.997 1.093-1.885.164.144-.599.906-.467 1.08.078.1 2.783.506 2.909.438.134-.076-.024-1 .112-1.104.153-.116 1.819.696 2.692.705 1.643.015 1.821-.754 1.956-.757.392-.005 1.052.54 1.848.54 4.013-.006 10.149-.657 13.33.974-2.831-.655-5.528.04-8.344.254.824-1.606-4.144 1.237-1.238-.617-1.338.402-12.906.724-13.888.372h-.003ZM210.343 5.11c.735-.984-3.037-.763-3.358.376.499.158 3.266-.264 3.358-.376Zm17.406-2.401c.35-.17.683-2.095 2.521-1.12h.004c.538.286-.075.756.024.923.04.07 1.709 1.026.32 1.18-2.122.236-.2-1.433-1.332-1.454-.142 0-2.28 1.041-2.155 1.27.013.026.657-.194.764-.099.401.358.207.958.263.987.188.072 3.572-.95 4.065-.056.153.288-5.393.952-5.616.804-.137-.095-.079-1.764-.221-1.928-.079-.08-2.308.543-2.599.39a1.115 1.115 0 0 1-.196-.131c.338.516-1.686.479-1.624-.104.036-.228 1.425-.097 1.478-.057.022.017.041.041.059.057-.288-.629 4.429-.6 3.411-1.537 1.368-.513-.194 1.374.834.875Zm4.215.503c1.506-.607.682-1.924 2.36-1.532l-.424.526c2.395-.43 5.158.415 7.916.408.7 0-.105-1.073.813-.78.735.235 1.548 1.231 1.148 1.453-.098.055-1.594-.593-2.342-.526-2.212.197-1.653 1.117-1.783 1.141-.144.026-1.534-.62-2.294-.591-1.91.074-2.784.64-5.394-.099Zm91.614.428c.091-.58 1.658-.066 2.228-.15-.09.58-1.658.065-2.228.15ZM90.07 2.889c-.48.95 3.126 1.185 2.176.394-.21-.175-1.722-.387-2.176-.394Zm16.206.577c.482-.263-1.46-.947-1.457-.211.003.236 1.395.245 1.457.21Zm159-.85c.092-.03 1.42.181 1.461.23.879 1.009-3.49.425-1.461-.23Zm-139.299-.32c-1.682.623 3.38.893 1.834.099-.08-.04-1.754-.13-1.834-.099Zm7.037-.174c-.404.033-2.194-.275-2.217.015-.034.467 2.013.787 2.217-.015Zm165.559.193c-.193-1.07 2.168-.26 2.988-.395.195 1.072-2.167.26-2.988.395Zm-14.902-.79c9.953-.844 7.759 1.444-.593.522-.012-.687-.035-.468.593-.522Zm12.746.127c-.362.686-1.492.483-2.256.428.137-.477 1.705-.304 2.256-.428ZM85.775 1.417c.625-.866 3.388.202 2.897.56-.12.076-3.126-.084-2.897-.56Zm180.335.282c-.231-1.041 2.758-.617 2.987-.385.922.93-2.745.155-2.987.385Zm46.591-.3c.528-.816 2.027-.397 2.991-.386-.439.697-2.173.4-2.991.386Zm-6.96-.64c.062-.031 1.406.042 1.466.08 1.101.797-2.702.592-1.466-.08ZM14.944.007c.051-.026 1.057.026 1.098.057.909.783-2.146.623-1.098-.057Z"/></svg>