<svg xmlns="http://www.w3.org/2000/svg" width="1280" height="140" fill="none"><path fill="#1E1E1E" fill-rule="evenodd" d="M1277.01 3.635c1.41-.07 2.31.042 2.99.225V140H0v-7.431c2.704-1.515 6.345-2.67 13.226-2.925-.411-.256-.824-.51-1.235-.765l62.485-5.21c7.86-3.405 29.335-7.25 39.992-8.098 2.147-.172 12.783.043 13.609.193 1.515.292-6.536 1.323-2.801 1.775.802.089 18.625-1.241 17.213-2.526-2.009.047-8.165 1.422-9.228 1.198-7.421-1.629 47.608-5.545 50.226-6.797l-3.792-.999 10.454-.423-4.071 1.654c4.005-.162 9.32-1.022 13.051-1.033.61 0-.831 1.332.601 1.233 1.435-.1.992-1.664 3.05-2.055 2.311-.434 13.102-.46 16.796-.88 13.812-1.576 27.659-3.967 41.58-4.777-14.173 2.697.362 2.364 4.314 1.428.874-.214.425-3.155 14.847-3.934 9.164-.495 1.197 4.63 16.183.894-12.012-1.717-.484-2.733 8.677-3.806 1.588-.186 14.396-1.1 20.02-1.83 1.925-.251 4.703-2.11 7.258-2.422 1.758-.213 3.18.49 5.789.17 12.174-1.487 24.162-2.83 36.408-3.842-6.713 4.742 5.781 1.107 6.378 1.235 3.021.773-10.102 2.48-4.826 2.604 7.261-.896 14.523-1.795 21.783-2.692-6.02.145 7.547-4.192 10.241-3.16-1.498-3.401 33.472-.462 38.573-2.19 1.06-.364-6.236-1.35 10.35-2.308 1.795-.1 1.236 1.032 2.16.836.555-.119 3.598-3.858 7.417-2.377 1.388.542-6.823 3.659 11.649.795-7.759-2.65 25.557-4.598 31.748-4.385l-3.807-.998c6.161.605 7.128-.68 8.493-.76 5.5-.326 13.152.051 18.239-.598 5.952-.758 5.747-2.893 12.791-2.8-1.701-.297-3.401-.596-5.102-.892l14.448-1.19c-10.822 4.01 2.412-.119 3.3-.275 1.407-.253-.508 1.118 1.85.722.243-.05-.226-1.1 3.423-1.611 7.627-1.065 6.565.432 9.777.075.289-.04-.833-.91 4.684-1.731 17.558-2.614-.003.759-.671.968-.867.274 5.611 3.738-9.526 3.875 5.08-.072 5.782 1.691 6.353 1.677.51-.017 9.169-1.194 9.668-1.311 4.216-1.072.325-1.916 1.128-2.228.664-.252 11.342.25 13.407-3.746 5.39 2.91-2.56 3.438-10.93 4.862-1.151.837 8.168.541 8.659.488 11.935-1.275 5.029-3.407 7.445-5.495 1.273-1.09 6.333.322 1.579-1.74 10.796-1.417 4.397.75 5.111.895 1.089.207 4.797-.92 5.288-.877.712.07-1.613 1.207 1.164 1.226.461-.004 4.726-1.99-1.055-2.107 7.644-.595 6.88-1.817 9.741.509 4.727-5.478 4.12 2.505 6.216 2.562 5.562.143 3.578-3.539 3.838-3.772 1.873-1.42 17.235-1.712 20.945-2.669-1.191 2.94-12.058 1.314-14.37 2.103-7.693 2.634 11.258.213 5.903 4.318l6.897-3.645c4.641 1.78-1.497 3.422 10.262 1.342 1.731-2.146-8.34 1.198-6.434-.55 1.124-1.025 7.958-1.949 8.058-2.436.075-.584-6.06.747-5.18-.23 1.935-2.117 24.773-2.727 7.645.136 4.804-.542 7.683 2.955 11.728 1.342 2.613-1.047-13.103-4.63 9.755-6.096.672 1.723-9.047 1.495-9.281 1.656-.318.248 1.833 4.051 2.155 4.218 1.144.535 24.143-4.075 29.266-2.586-2.187-2.107 17.516-2.279 19.567-3.21.543-.254-1.711-1.443-1.133-1.66 3.677-1.294 14.153.152 18.893-.285 5.288-.487 4.504-1.637 4.794-1.672 2.338-.18.568.847 1.992.694 2.154-.233 16.956-1.63 17.684-1.883.21-.078-2.35-1.223.844-1.83.553-.105.38 1.59 9.85-.141 11.406-2.083-8.203-1.212-3.611-3.456 7.648 1.687 7.151-.736 9.174-.757.71 0 6.088 1.527 11.675.8-3.988.767-7.978 1.536-11.965 2.302 3.993-.055 11.626-1.324 14.93-1.258 1.61.032.485 1.881 3.932 1.469.731-.097 3.195-4.576-5.653-1.744-.879-1.41 3.531-.899 5.483-1.532.297-.105 1.227-2.711 3.937-1.438.641.327-5.231 8.272 11.391 1.199.531-.228-1.482-.93-.966-1.176.359-.167 4.783-.267 5.257-.447.478-.191-1.738-.956-1.177-1.215 2.92-1.328 7.314 2.184 1.04 2.548 2.137.264 4.276.531 6.413.796-2.548-2.728 3.191-1.183 6.068-1.581 18.438-2.55 5.848-3.163 8.921-4.498 4.945-2.145 1.58 3.344 9.012 1.012.669-.218-8.708-1.398 9.33-2.087l-7.907 1.097c1.83 2.7 9.513-1.201 10.142-1.316 6.998-1.142 2.351.395 12.645-2.192.919-.231 3.03.261 4.989-.303 8.12-2.334-11.011.275-11.663-.83-.307-.542 20.346-2.594 21.089-2.4 3.131.878-9.293 1.523-6.79 2.758.916.436 30.213-3.772 36.184-3.822 6.883-.05 10.363 3.513 9.943-.86 2.377 4.083 3.768.982 4.642.917 10.574-.722 10.601-.684 19.589-2.054 1.983-.3 3.803.82 4.486.526.396-.176-.517-1.485 1.446-2.129 2.731-.885 19.675-1.236 21.007-.599 1.326.637-7.051 1.087-5.428 2.193 6.049-.514 11.804-1.438 17.889-1.95 2.53-.21 1.34.812 2.43.714.46-.038 9.09-1.745 8.69-2.033-.98-.663-27.797 2.7-20.881.399 1.336-.445 6.384 1.082 5.352-1.319l72.309-5.973c-13.62 3.324-29.35 3.314-43.79 5.025-1.99.232-8.71.708-7.76 1.876 12.34-.982 27.56-3.263 39.46-3.7.38-.011-.88 1.261.55 1.29 2.68.053 11.11-2.68 12.61-2.364.22.096-4.48 2.09-2.9 2.874 4.09 2.016 4.49-3.453 7.79-3.74 2.56-.218 19.93.56 24.02-1.532 4.34-2.229-12.71.323-11.6-1.24 11.44-2.667 23.35-2.384 34.29-3.727.18-.03-1.6-.967.82-1.382 4.22-.725 5.51.745 7.61.78 2.26.033 10.14-1.032 11.25-.566.13.08-1.29 1.807-1.53 1.876-3.36 1.014-4.81-.898-5.12-.893-1.18.048-2.26.951-3.33 1.02-1.78.109-2.83-.51-5.17-.326-1.61.125.09 1.351-1.47 1.452-.58.028-7.05-2.492-7.28.809-.05 1.04 50.28-2.98 55.21-4.33l-11.97.186c8.58-.25 18.04-3.52 19.15.085 32.45-3.13 64.9-6.263 97.34-9.393ZM225.287 107.294c-.783-.197-6.208.04-7.825.201-1.553 1.679 11.348.685 7.825-.201Zm50.073-5.027c1.672-.597-5.368-.939-5.233.218.062.368 5.013-.141 5.233-.218Zm76.622-9.85c-.291-.03-6.276.459-6.559.537-5.887 1.618 12.207.129 6.559-.537Zm18.514-2.402c-1.433.205-7.872.397-7.908.863-.046.75 7.316.477 7.908-.863Zm293.282-25.108c-4.246.664-8.289 5.45-3.05 4.217.557-.136 3.594-3.665 3.05-4.217Zm-16.984.514c2.449-1.828-10.963-.05-11.916 1.865 1.802.06 11.603-1.654 11.916-1.865Zm39.167-.58c-.122-.065-3.688-.19-3.877-.13-3.926 1.502 4.821 1.464 3.877.13Zm14.544-2.091c-3.7-1.325-9.693-.52-7.971 1.543 6.625-.854-1.03-1.908 7.971-1.543Zm22.119.375c3.482-1.415-4.971-1.745-6.431-.777-.719.482 4.901 1.398 6.431.777Zm51.614-7.344c-.459-.052-5.587.68-5.333 1.317 1.949.191 8.286-.937 5.333-1.317Zm47.514-5.91c-.214-.895-6.082.147-5.231.65.3.167 5.395.077 5.231-.65Zm93.596-9.704c-2.287.44-8.306.706-9.273 1.638 2.804-.47 10.204-.084 9.273-1.638Zm28.976-2.83c-4.619-1.066-4.05 1.765-.785 1.379 1.153-.137.931-1.345.785-1.38Zm1.373-.559c-2.587.797 2.181 2.385 5.197.02-1.622.34-4.925-.1-5.197-.02Zm14.658-3.408c-1.861.068-3.049 2.35-2.831 2.43 2.105.74 4.756-1.795 2.831-2.43Zm51.345-4.914c.13-1.382-9.05.365-5.28 1.098.95.182 5.23-.635 5.28-1.098Zm257.49-6.498c-.21-.038-5.03.365-5.25.438-4.29 1.526 9.3.4 5.25-.438Zm-177.23-.339c-.14-.052-3.73-.192-3.88-.124-2.84 1.22 6.61 1.447 3.88.124Zm36.9-3.925c-2.26-.069-11.75 1.032-7.96 1.525.59.075 7.87-.676 7.96-1.525Zm-15.51-.921c-.51-.091-12.58.44-13.11.633-6.04 2.273 20.18.647 13.11-.633Z" clip-rule="evenodd"/><path fill="#1E1E1E" d="M201.897 106.806c2.082-1.602 12.116-.966 10.428-.216-.401.165-11.16 1.052-10.428.216ZM708.47 55.042c1.221-.401 2.087-3.561 8.801-2.72l.02-.002c1.959.246-.135 1.216.234 1.445.14.094 6.277.969 1.343 1.739-7.528 1.176-.955-2.183-4.994-1.786-.505.054-7.948 2.503-7.476 2.818.054.036 2.316-.557 2.711-.448 1.491.41.896 1.434 1.102 1.459.681.043 12.581-2.85 14.487-1.629.576.4-19.095 3.546-19.893 3.392-.504-.098-.578-2.748-1.112-2.953-.286-.097-8.142 1.73-9.204 1.6a5.841 5.841 0 0 1-.72-.133c1.292.685-5.932 1.394-5.81.453.087-.373 5.07-.691 5.265-.648.08.018.153.048.218.066-1.132-.882 15.696-2.626 11.907-3.715 4.791-1.327-.459 2.237 3.121 1.062ZM761.392 48.025c2.66.092 5.726 1.355 4.338 1.856-.364.12-5.788-.334-8.441.054-7.85 1.148-5.71 2.39-6.165 2.48-.515.093-5.579-.4-8.282-.066-6.801.841-9.822 2.06-19.255 1.885 5.271-1.526 2.11-3.288 8.158-3.307l-1.423.99c8.468-1.584 18.466-1.3 28.302-2.355 2.496-.265-.553-1.65 2.768-1.537ZM842.297 40.672c.32-.081 5.062-.248 5.246-.19 3.305 1.258-12.371 1.993-5.246.19ZM845.118 38.912c-.997-1.553 9.731-2.015 10.588-1.737 3.437 1.116-9.761 1.283-10.588 1.737ZM907.723 31.985c35.355-5.101 27.912-.666-2.028 1.045-.158-1.078-.203-.723 2.028-1.045ZM953.2 27.352c-1.175 1.218-5.24 1.328-7.972 1.53.411-.803 6.028-1.126 7.972-1.53ZM971.591 25.825c.873 1.614-7.683 1.231-10.587 1.755-.87-1.613 7.68-1.232 10.587-1.755ZM991.546 21.982c4.062.838-9.534 1.961-5.239.433.213-.072 5.01-.468 5.239-.433ZM1021.84 19.044c-1.46 1.264-7.69 1.451-10.61 1.738 1.75-1.485 7.17-1.39 10.61-1.738ZM1058.33 19.112c-.23.949-5.91.732-7.92 1.081.23-.946 5.9-.731 7.92-1.08ZM1178.99 8.493c14.31-1.53 36.09-4.88 47.71-3.515-10.21.04-19.71 2.157-29.72 3.561 2.67-2.842-14.57 3.52-4.52-.5-4.71 1.14-45.91 6.028-49.47 5.846h-.01c-1.09-.065-1.04-4.664 3.58-3.384.6.168-1.99 1.655-1.48 1.88.29.127 9.99-.26 10.44-.413.47-.172-.25-1.566.22-1.781.54-.24 6.61.407 9.72.09 5.86-.598 6.37-1.879 6.85-1.934 1.4-.157 3.84.453 6.68.15ZM1280 1.348c-2.15.242-4.56.311-4.74.28-2-.386 1.59-1.357 4.74-1.628v1.348Z"/></svg>