<svg xmlns="http://www.w3.org/2000/svg" width="1280" height="80" fill="none"><path fill="#1E1E1E" fill-rule="evenodd" d="M764.188.879c-2.279-2.538 65.576 1.299 78.888.598l3.152.073c.324-.003.616-.01.875-.022.714-.034-.25-.24-.839-.448l-3.188-.074c-.425-.127-.664-.265 0-.387l3.217.073c1.408-.19 6.766-.134 22.631.722 3.705.202 2.24.957 4.192.953 1.17-.001 8.421-2.311 15.828-.616 2.705.622-14.982 1.653 23.63 2.414-15.155-3.207 53.578.574 66.187 1.75l-7.507-1.365c12.442 1.446 14.77.63 17.586.788 11.35.639 26.9 2.17 37.49 2.508 12.39.398 12.56-1.274 26.95-.044-3.4-.508-6.79-1.014-10.19-1.52 9.96.486 19.93.976 29.89 1.469-23.26 1.288 4.98.307 6.83.335 2.96.04-1.35.777 3.59.865.51.002-.16-.886 7.45-.672 15.9.45 13.31 1.43 19.98 1.694.61.02-1.47-.845 10.06-.551 36.66.941-.22.587-1.64.637-1.85.066 10.45 3.828-20.56 1.387 10.42.798 11.36 2.277 12.53 2.361 1.04.072 19.15.63 20.15.623 8.93-.112 1.18-1.425 2.92-1.528 1.43-.084 23.13 2.122 28.47-.621 10.22 3.178-6.19 2.223-23.71 1.903-2.6.45 16.56 1.812 17.58 1.855 24.77 1.056 11.23-1.78 16.75-2.986 2.9-.631 12.88 1.337 3.72-1.08 22.5.751 8.77 1.336 10.21 1.571 2.17.349 10.08.11 11.06.23 1.44.177-3.64.658 2.04 1.152.95.077 10.22-.73-1.58-1.818 15.81.857 14.59-.226 19.79 2.08 11.2-3.442 7.73 2.662 12 3.071 11.36 1.083 8.29-2.14 8.91-2.265 2.41-.445 13.74.166 24.46.759l16.01.713v.69l-16.06-.716c-4.73-.419-8.96-.816-10.81-.737-11.49.492 4.21 1.335 10.67 2.57l16.2.722V80H0V20.14c22.806 1.018 6.688-1.068 29.5-3.2 16.62-2.924 100.077-5.08 122.018-7.098 4.417-.412 26.178-1.817 27.831-1.843 3.059-.049-13.586 1.667-6.004 1.394 1.6-.066 38.337-3.292 35.621-3.838-4.124.306-16.946 1.95-19.076 1.968-14.96.088 98.318 1.433 103.864.374-2.54-.037-5.079-.072-7.618-.106 7.157-.55 14.314-1.097 21.471-1.64l-8.578 1.55c8.228-.623 19.241-.247 26.887-.732 1.25-.078-1.896.935 1.056.69 2.953-.244 2.268-1.163 6.544-1.671 4.797-.571 26.91 1.248 34.539.525 17.665-1.687 35.401 1.23 53.149-.484l4.418-.16c10.994-.26 21.985-.455 32.948-.494-29.721 1.325.228 1.552 8.553 1.073 1.845-.108 1.55-2.067 31.37-2.113 18.951-.019 1.448 3.135 33.07 1.178-24.316-1.6-.403-1.867 18.659-2.259 3.286-.07 29.826-.201 41.549-.476 4.012-.095 10.123-1.277 15.444-1.392 3.661-.078 6.431.475 11.867.36C644.428 1.218 669.355.8 694.745.654c-14.837 3.085 11.646 1.075 12.836 1.198 6.048.709-21.309 1.287-10.49 1.637 15.12-.284 30.241-.563 45.361-.835C730.043 2.448 758.88-.02 764.188.879Zm497.442 19.049c5.54-.995-22.4-1.96-24.88-.634 3.67.36 24.19.743 24.88.634ZM373.059 6.15c-1.571-.03-6.079.693-9.416-2.203-3.432 1.259 16.511 2.341 9.416 2.203Zm114.671-.228c3.576-.34-10.822-.8-10.8-.03.029.244 10.339.074 10.8.03Zm159.631-3.73c-.571-.036-12.993.046-13.593.09-12.468.877 25.059.634 13.593-.09Zm38.57-.858c-2.989.078-16.256-.084-16.436.247-.26.531 14.926.685 16.436-.247Z" clip-rule="evenodd"/><path fill="#1E1E1E" d="M331.847 5.485c4.494-1.274 24.968-2.161 21.393-1.468-.835.153-23.022 2.084-21.393 1.468Z"/></svg>