<svg xmlns="http://www.w3.org/2000/svg" width="29" height="30" fill="none" viewBox="0 0 29 30"><path fill="#E1344E" d="M26.645.861c.036-.005-.042.087-.028.108.02.026.201-.03.178 0-.037.046-.198.1-.206.11-.088.105.116.049.18.047.02 0-.013.049-.002.045.186-.077-.043-.1.068-.17.098-.062.017.057.018.062.01-.004.12-.082.148-.082.014-.002-.2.282-.159.307l.247-.228c.044.034-.11.104-.122.12-.02.03.076-.009.085.006.006.01-.055.11.036.058.032-.02.057-.088.184-.14-.3.307-.05.145-.025.149.022.006-.1.17.08.007.08.07.02.027-.02.085-.05.074.127-.032-.132.158.044.03.238-.147.249-.15.01-.004-.013.047.006.041.247-.093.094-.013.186-.015.007 0 .19-.139.067-.013-.217.225-.365.263-.294.411.214-.113.344-.373.4-.427.075-.073.018.02.031.02.006-.003.063-.06.071-.065.123.033-.297.288-.392.406.042-.017.084-.032.124-.047l-.118.119c.217-.164.011.006.037.118.006.024.095-.12.004.06.106-.09.091-.046.165-.16.02.033-.151.274-.22.376.315-.27.059-.203.352-.403.015-.081-.097.047-.092.03.012-.051.127-.11.16-.275.005-.027-.095.006.009-.093a.585.585 0 0 1 .103-.043c.01.032-.058.087-.052.099.005.01.068-.06.074-.063.026.027-.049.07-.033.07.04 0 .34-.197.001.123.242-.314.007-.07-.088.055-.024.03-.014.054-.048.102-.045.063-.105.109-.13.14-.022.033.172-.09-.064.137.156-.08.308-.334.449-.428.133-.091.115-.038.058.047a.364.364 0 0 1-.07.007c-.03.003.01.002.067-.003-.06.09-.162.212-.178.237-.009.013.046-.003.043.006-.013.018-.233.243-.233.285 0 .043.074-.085.103-.074.012.013-.207.323-.064.177.093-.097.218-.355.303-.332-.135.167-.26.328-.396.497.099-.064.194-.127.29-.194-.14.188-.3.32-.41.53.418-.34-.044.195-.044.217.008.006.2-.092.23-.105-.088.17-.427.64-.142.459-.053.028-.098.192-.096.2.052.019.216-.26.217-.187.003.088-.097.103-.151.185-.263.408.015.511-.299.879l.04-.001c-.314.42-.63.835-.955 1.248-.048.241-.32.735-.488.946-.032.041-.231.212-.251.22-.035.015.08-.153-.001-.107-.021.016-.302.35-.24.373.036-.035.104-.18.132-.193.183-.063-.698.974-.716 1.067l.104-.025-.181.185.021-.126c-.068.069-.139.186-.209.246-.012.009-.029-.064-.053-.037-.023.026.037.079.011.127-.03.054-.235.227-.29.3-.21.278-.392.588-.635.836.181-.328-.09-.09-.136.01-.01.022.105.136-.146.386-.162.16-.192-.174-.355.209.305-.114.108.11-.028.289-.024.031-.243.26-.33.377-.03.04-.015.161-.053.212-.026.034-.081.025-.12.077-.186.242-.381.48-.587.7-.051-.306-.162.033-.18.036-.09.008.109-.254-.003-.184l-.343.432c.117-.09.016.293-.082.285.171.133-.678.494-.714.64-.007.031.188-.025-.122.25-.034.03-.07-.03-.081-.009-.007.013.084.23-.058.213-.051-.007-.01-.26-.278.121.211.014-.105.337-.333.523a1.07 1.07 0 0 1-.152.107l.12-.002c-.152.05-.117.122-.14.143-.076.064-.195.127-.281.195.021.034.037.066.035.077-.012.06-.049.022-.086-.03-.005.006-.012.01-.017.017-.066.082-.03.156-.067.224.008.005.017.013.03.017.015.003-.01-.24.18.11l-.121-.122a.171.171 0 0 0-.023.04h.005l-.008.007c-.03.103.163.104.176.111.1.087.03.071.147.138l-.027-.026c.083.024.055-.025.014-.088l.116.115c-.036-.025-.074-.046-.09.002-.001.002.001.004.002.007l.052.029c.01.006.014.029.023.05l-.067-.066c.062.088.405.39.453.488.06.125-.056.348.12.146-.147.225-.008.115.003.128.122.164.123.168.258.274.03.023.002.107.02.107.011-.002.055-.075.097-.067.06.012.229.309.22.364-.013.053-.11-.082-.138-.004.078.09.169.156.248.247.032.038-.017.06-.003.076.005.007.155.093.162.072.009-.05-.372-.398-.218-.37.029.007.02.165.1.041.306.362.623.724.952 1.09-.262-.112-.429-.406-.636-.6-.03-.028-.113-.13-.146-.063.16.187.399.37.541.574.005.007-.053.039-.039.067.028.051.212.091.22.133 0 .008-.121.006-.132.069-.024.162.168-.064.214-.015.035.04.204.396.32.385.122-.012-.154-.224-.09-.27.216.103.342.34.512.492.004-.006.015-.069.054-.041.072.05.041.134.064.175.026.044.15.15.15.19a.336.336 0 0 1-.075.048c-.072-.023-.03-.128-.034-.134-.015-.02-.056-.004-.07-.021-.025-.03-.019-.074-.052-.11-.022-.026-.041.055-.063.03-.008-.012-.004-.233-.111-.103-.036.042.695.826.8.87l-.168-.24c.108.168.344.221.248.386a64.546 64.546 0 0 1 1.506 1.54c.083.105-.027.136.14.265l-.059-.197c.063.097.374.484.44.526.009.005.07-.054.157.03.077.076.052.14.083.192.027.043.073.071.081.085.006.01-.014.044 0 .07.044.078.062-.056.044.102l-.05-.034c.013.019.026.041.037.063l.07.057c.034.078.045.152-.04.08-.019-.015.018-.026.007-.04l-.069-.056c-.45-.472-.23-.155-.022.03l.066.053a.877.877 0 0 0 .08.072c.005.09.263.354.268.375 0 .024-.066.006-.035.097.012.023.344.394.187.3-.032-.02-.178-.22-.217-.263.02.184.322.324.342.358.08.125-.235-.154-.036.11.152.204.049-.03.128.025.045.033.17.309.227.238.064.07 0 .06.003.072.009.014.137.145.162.208.003.007-.04.02-.04.03.005.015.12.156.127.16.004-.005.006-.06.022-.053.02.01.118.158.13.158.013-.006-.114-.168-.066-.17a.77.77 0 0 0 .224.234.542.542 0 0 1-.089-.115c.051-.028.166.143.095.117.043.02.035-.014.065-.01.009.003.044.054.058.058 0-.006-.019-.07-.004-.068.028.006.13.17.137.19.014.048-.085-.07-.11-.066-.004 0 .038.14.038.151-.025.037-.088-.107-.106-.066l.046.108c-.109-.089-.248-.319-.322-.34.134.16.26.344.191.415-.03.03-.1-.02-.107-.012-.018.038.083.105.087.113v.009c-.017.014-.134-.11-.15-.114-.022.002-.026.116-.038.131-.004 0-.097-.083-.092-.03.007.054.074.136.078.145.002.029-.133-.104-.146-.103-.006.001.038.101.035.113-.004.01-.072-.036-.113-.037-.031 0 .001.06-.01.055-.006-.005-.128-.138-.138-.143-.013-.005-.004.044-.012.046-.013.001-.046-.047-.048-.036 0 .015.085.237.071.259-.03.028-.133-.212-.092.067l.048.033c.003.045-.155-.042.004.1-.321-.235-.081.01-.17.021-.035.005-.155-.086-.162-.087-.013.035.04.049.042.072 0 .012-.127-.049-.122-.012.004.02.113.108.119.116.028.054-.042.027-.045.046 0 .013.065.069.067.074 0 .005-.122-.041-.152-.046-.022-.003.018.054.005.05-.084-.028-.159-.189-.11-.008.003.01.05.045.053.05.009.045-.082-.022-.117-.016-.059.01.089.091-.04.032a.673.673 0 0 0 .208.182c-.278-.184-.459-.166-.155.046-.095-.07-.128-.015-.158-.035-.02-.012-.112-.155-.15-.005-.004.02.094.059.043.068-.194-.14-.03.006-.024.017-.063.06-.522-.318-.614-.366-.108-.055-.252-.053-.274-.066-.071-.044.015-.037.01-.058-.009-.022-.263-.089-.27-.098-.027-.036.046-.049.043-.053-.029-.054-.325-.188-.393-.242-.02.027.13.12-.001.104-.154-.016-.061-.134-.059-.142-.143-.084-.288-.17-.437-.26l.064.052c-.386-.2-.773-.398-1.163-.595-.05.083.338.199.346.216.003.082-.595-.215-.648-.282l.13.137c-.163.047-.287-.18-.456-.206-.052-.007 0 .066.002.073-.077.014-.138-.055-.041-.077-.158-.011-.102-.056-.193-.107-.005-.003.006.058-.08.038-.042-.01-.228-.1-.28-.077-.021.01-.037.215.072.084.158.164.109-.03.186.011.01.008-.067.07.155.13-.132.115-.293-.094-.344-.097-.106-.004.183.223.318.148-.102.09.014.025.086.064.079.044.021.058.065.079.12.056.122-.038.176.072.045-.242.188.055.23.14a73.304 73.304 0 0 0-.403-.145v.042l-.098-.05c.012-.008.025-.017.038-.024-.221-.014-.211-.107-.225-.114-.177-.094-.388-.192-.574-.28-.028-.013-.06.067-.224-.085-.052-.049.048-.076-.03-.103-.2.11-.114-.012-.14-.026-.079-.037-.154-.022-.163-.025-.102-.04-.24-.117-.352-.164-.003 0 .019.076-.041.027-.022-.016-.093-.338-.334-.368l.12.12c-.045-.05-.498-.208-.439-.098.038.068.288.006.211.148-.11-.107-.922-.447-.96-.516-.001-.009.08-.027.073-.039-.009-.01-.189-.094-.2-.125-.005-.017.091-.003.097-.023-.002-.018-.202-.156-.257-.108.07.008.207.114.093.118-.014 0-.04-.066-.058-.067-.168.006.19.182.243.211-.27-.045-.543-.32-.83-.42-.065-.108.206.014.122-.093-.17-.22-.118.017-.126.03-.097.016-.097-.368-.25-.17-.063-.082-.016-.09-.157-.138l.015.071c-.227.035-.277-.442-.237-.452.104-.022.176.166.19.171.024.005.232-.16.292.147.187-.085-.248-.295.007-.273-.137-.062-.56-.49-.682-.482-.015.004-.087.166-.153.012-.03-.073.111.022.11-.028-.01-.147-1.158-.894-1.362-1.06-.013-.01.03-.05.018-.06-.04-.03-.246-.085-.297-.162.073.199-.216-.027-.28-.098-.008-.007-.015-.015-.02-.022l-.121-.121c-.055-.09.012-.15-.01-.2-.01-.021-.026-.039-.04-.057a.262.262 0 0 0-.1.07l.062-.11-.035-.03c-.05.056-.1.113-.14.135-.037.02-.1-.075-.154-.011-.011.014.145.241.204 0 .085.05-.034.087-.047.14-.002.009.1.134-.018.115-.03-.008-.274-.427-.305.102 0 .017.075.02.076.038 0 .012-.092.075-.095.09-.001.015.083.018.083.037-.003.096-.261.004-.141-.097l-.178.053c.183.084-.014.095-.059.15-.286.36.018.216.012.315-.01.158-.189-.123-.245.078-.003.018.256-.057-.11.216l.125-.154c-.165-.09-.156.18-.164.193-.104.144-.07.017-.181.266-.01.021-.08.029-.098.08-.075.208.232-.159.298-.123.033.018-.337.386-.362.387-.108.005.139-.19.027-.209-.04-.003-.51.572-.643.655-.155.096-.391-.003-.189.172-.234-.136-.128.011-.145.026-.212.177-.212.173-.36.355-.034.04-.124.02-.128.04 0 .013.076.054.059.107-.026.075-.407.323-.466.316-.057-.008.12-.142.034-.165-.12.106-.215.224-.339.33-.05.042-.065-.016-.086.003-.003.002-.011.014-.023.03l-.093.1c-.04.051-.116.155-.101.162.016.006.083-.042.163-.103l.095-.102c.156-.131.359-.316.315-.19-.012.035-.196.046-.071.129l-.162.135-.097.106c-.44.334-.863.646-1.307.974.195-.293.561-.476.834-.718.037-.032.175-.131.107-.17-.245.183-.518.462-.778.617-.008.004-.027-.062-.061-.046-.066.031-.16.24-.206.244-.007-.006.024-.136-.041-.148-.17-.033.026.19-.04.239-.054.041-.486.214-.505.344-.02.137.283-.16.315-.086-.165.233-.461.365-.67.544-.001.003.072.018.03.062-.075.077-.157.036-.206.059-.053.024-.202.157-.245.153a.314.314 0 0 1-.028-.089c.044-.077.144-.026.152-.028.025-.015.02-.061.041-.076.038-.024.084-.013.132-.047.033-.024-.049-.05-.016-.072.015-.008.253.01.142-.119-.043-.032-1.069.707-1.14.812l.296-.16c-.204.102-.323.357-.472.236-.65.496-1.306.987-1.967 1.475-.123.075-.138-.04-.304.125l.218-.046c-.115.059-.58.36-.635.426-.006.01.04.082-.06.165-.095.078-.154.043-.216.075-.05.025-.087.072-.103.08-.012.005-.043-.017-.07-.005-.089.041.046.07-.116.042l.045-.05c-.104.056-.265.113-.153-.009.019-.02.026.02.042.007.657-.517.077-.157-.113.062-.097.01-.407.29-.429.294-.006 0-.01-.004-.012-.01-.09.098-.444.376-.509.439.015-.098.104-.116.186-.193.02-.02-.004-.032-.003-.035.038-.036.033.01.057-.01.013-.014.174-.18.25-.23-.008-.005-.02-.009-.042-.004l.04-.044a.173.173 0 0 0-.022.006c-.023.006-.385.36-.295.197.02-.036.214-.19.257-.227-.181.017-.316.339-.35.364-.127.096.152-.26-.115-.027-.207.184.032.048-.024.138-.033.05-.316.224-.24.273-.073.08-.064.01-.076.015-.012.008-.15.172-.216.21-.008.003-.023-.041-.032-.039-.019.01-.163.158-.167.167.002.004.064-.005.057.014-.01.023-.163.153-.165.169 0 .02.176-.156.178-.102a1.035 1.035 0 0 0-.244.286.731.731 0 0 1 .121-.118c.034.05-.15.208-.123.125-.02.05.017.035.013.068-.001.009-.056.06-.06.075.005 0 .075-.034.073-.018-.006.032-.182.175-.2.185-.05.023.073-.106.068-.132-.008 0-.155.07-.16.07-.039-.021.113-.117.069-.129l-.116.072c.093-.137.335-.33.355-.415-.167.176-.361.35-.438.286-.032-.027.023-.116.011-.12-.042-.011-.113.116-.119.119h-.01c-.015-.016.119-.171.118-.185-.004-.024-.127-.007-.14-.017 0-.006.087-.12.03-.104-.057.017-.145.106-.154.111-.029.006.11-.164.107-.178-.006-.003-.11.06-.12.058-.007-.006.036-.084.037-.13 0-.034-.066.014-.06.001.008-.011.147-.166.151-.177.006-.016-.049.003-.05-.006 0-.014.051-.059.039-.059-.016.003-.259.142-.277.127-.028-.03.224-.184-.073-.087-.004.004-.032.058-.034.059-.048.01.04-.177-.108.023.246-.398-.013-.085-.026-.183-.004-.038.093-.189.09-.193-.037-.008-.05.055-.075.06-.012 0 .05-.15.01-.136-.02.008-.115.145-.123.152-.057.041-.028-.04-.048-.039-.015.003-.072.082-.078.086-.002-.006.041-.142.045-.175.002-.024-.058.032-.053.016.027-.096.2-.211.006-.122-.012.007-.048.066-.051.068-.049.018.02-.093.014-.13-.013-.062-.097.114-.036-.04a.92.92 0 0 0-.19.263c.192-.34.167-.532-.052-.161.072-.116.015-.143.034-.179.012-.022.165-.153.002-.166-.02.002-.06.117-.071.062.148-.243-.011-.027-.02-.023-.064-.058.334-.634.388-.748.06-.132.061-.293.076-.321.05-.09.041.01.064-.001.023-.012.108-.318.12-.33.042-.038.051.038.056.039.058-.041.246-.425.328-.523-.03-.017-.164.186-.123.022.017-.07.045-.104.073-.117l.045-.049c.044-.016.093.022.1.024.414-.593.848-1.194 1.277-1.776-.076-.061-.306.375-.32.374-.089-.002.382-.651.469-.707l-.18.137c-.011-.181.267-.309.34-.492.022-.06-.078-.001-.079-.005.005-.085.095-.148.092-.04.054-.174.09-.11.166-.206.004-.005-.063.004-.019-.09.023-.046.168-.245.157-.303-.01-.024-.219-.056-.109.071-.217.163.004.124-.061.206-.01.013-.055-.082-.179.162-.084-.158.175-.315.195-.374.033-.117-.286.185-.244.342-.068-.12-.032.015-.092.091-.065.083-.065.02-.1.068-.095.133.006.139-.125.19.25.065-.11.207-.214.252l.265-.443-.045-.003.082-.107.014.043c.07-.24.172-.227.184-.241.143-.185.309-.417.45-.611.02-.03-.057-.071.149-.24.064-.052.068.06.117-.024-.064-.226.04-.124.063-.15.064-.086.064-.165.07-.174.067-.106.187-.255.261-.369-.008 0-.08.01-.018-.046.022-.021.38-.069.47-.325l-.156.117c.062-.042.337-.513.207-.46-.077.033-.074.307-.204.211.14-.108.678-.94.754-.972.01-.002.012.084.025.079.012-.007.137-.188.171-.197.02-.005-.015.094.003.104.014.006.209-.201.166-.262-.021.073-.16.21-.14.088.003-.015.077-.037.08-.056.03-.179-.23.187-.269.238.103-.281.44-.54.597-.835.122-.057-.05.213.075.135.26-.16-.012-.122-.012-.134.002-.1.399-.069.218-.246.096-.06.1-.012.17-.153l-.074.01c-.004-.234.493-.255.5-.213.007.11-.196.172-.205.187-.013.023.134.25-.199.293.057.202.346-.236.282.027.043-.069.195-.213.34-.357.09-.102.164-.195.162-.241-.005-.017-.163-.094-.004-.158.077-.03-.028.113.022.114.154.003.963-1.2 1.13-1.428.01-.014.05.028.06.014.032-.045.087-.259.167-.319-.204.09.026-.225.097-.299.106-.108.18-.033.237-.07.22-.147.275-.618.575-.624-.181-.142.3-.194.403-.32.08-.096.078-.34-.1-.268.145-.164.256-.371.377-.54.02-.029.042.052.074.004.002-.005-.044-.054-.018-.098.217-.357.2-.11.28-.14a.359.359 0 0 0 .082-.043c-.044-.088-.084-.174-.124-.187-.011-.003-.04.076-.047.076-.065-.024-.148-.23-.173-.222-.021.008-.009.119-.053.116-.008-.004.007-.136-.066-.18-.027-.017-.065.042-.075.042-.068-.025.044-.079-.048-.155-.068-.055-.199-.025-.251-.145.16.408-.021.11-.165.013-.022-.015-.1.09-.16-.074.392.098.023-.158-.033-.228.001-.007.056-.064.03-.097-.002-.002-.04.04-.07.013-.28-.263-.074-.122-.081-.216-.006-.041-.186-.13-.22-.168-.006-.01.037-.046.006-.078-.055-.058-.147-.07-.184-.107-.001-.007.06-.07-.024-.124-.024-.015-.068-.017-.061.031.021.161.293.25.33.425.032.16-.255-.165-.27-.182.007-.001.078.02.033-.045-.042-.061-.243-.054-.287-.16a.832.832 0 0 1 .047-.17c.01.002.113.08.128.039-.001-.008-.052-.07-.039-.097.019-.037.242-.3.237-.32-.014-.05-.052.027-.068 0-.034-.058-.108-.298-.198-.223l.057.1c-.142-.15-.122-.048-.157-.055-.037-.008.043-.073.005-.133-.013-.018-.209-.216-.237-.184.146.072.03.114.025.123.012.028.086.006.11.036.162.21-.09.085-.073.152.007.023.078.015.083.024.012.03-.046.085-.03.096.041.025.088-.092.096-.097.078-.016.119.17-.036.178.008.077.12-.02.109.058-.025.156-.095.024-.135.008-.142-.058-.127-.13-.266-.268-.05-.05-.156-.063-.18-.086-.013-.016.042-.337-.243-.073-.02-.087.087-.357.03-.41-.052-.047-.135.061-.146.063-.012-.002-.058-.076-.09-.085-.037-.01-.064.039-.113.012-.12-.067-.017-.16-.02-.178-.022-.193-.121-.005-.155-.021-.031-.017-.265-.434-.358-.476l.13.036c.017-.113-.126-.077-.019-.182-.184.157-.155-.07-.186-.099-.013-.012-.042.017-.057.001-.058-.064-.151-.237-.194-.26-.184-.096.015.407.036.451-.05-.067-.36-.391-.318-.146.006.038.118.01.133.021.092.079-.031.07-.036.083 0 .024.115.025.121.05.002.007-.089.031-.02.127-.096.012-.244-.301-.283-.322-.014-.007-.088.193-.127-.152l-.03.043c-.094-.12-.194-.245-.29-.369.037-.011.142.008.066-.07-.042-.044-.074.04-.081.046-.05-.029-.617-.88-.73-1.034-.04-.054-.19-.166-.2-.179-.054-.068-.19-.343-.23-.388-.026-.027-.05.046-.067.015-.014-.028.045-.042.042-.052-.034-.084-.398-.51-.441-.672.038.088.349.355.376.32.001-.012-.023-.12-.049-.123.015-.064-.158-.056-.173-.132.001-.01.075-.046.02-.153-.02-.038-.125-.082-.131-.22-.107-.101-.476-.849-.569-.843-.003.003.04.12-.027.077-.088-.057.07-.083.014-.193a4.279 4.279 0 0 0-.208-.287c-.11-.028.01.227.007.242-.024.008-.158-.184-.162-.2.007-.006.182.081.026-.092l.016.098c-.078-.08-.03-.141-.042-.167-.035-.081-.161-.084-.133-.289.007-.053.065-.032.067-.04.012-.066-.108-.027-.076-.148.01-.003.12.073-.019-.143l.01.065c-.036-.019-.183-.233-.196-.265-.048-.099.046-.064-.017-.148-.025.114-.2-.15-.14-.182-.083.028-.185-.259-.247-.364-.036-.064-.155-.187-.164-.211-.012-.03.032-.06.012-.116-.006-.016-.12-.133-.16-.296-.006-.033.026-.14.068-.112.073.046.122.249.156.207.04-.04-.116-.217-.14-.27-.132-.263-.002-.165.008-.183.017-.047-.07-.174-.07-.181 0-.031.08.032.1.017.023-.024-.015-.18.012-.162.036.026.08.171.089.179.092.073.051-.112.053-.17.002-.018.046.008.042-.003-.06-.164-.099.046-.152-.046-.049-.082.054-.02.058-.023-.002-.008-.07-.104-.069-.13.012-.003.25.158.277.12a24.81 24.81 0 0 1-.199-.208c.034-.044.098.1.107.103.024.012 0-.065.013-.077.012-.003.092.034.055-.038-.015-.027-.086-.054-.122-.16.274.255.132.031.137.009.01-.018.156.082.009-.076.07-.08.026-.02.08.013.067.04-.017-.11.14.108.027-.046-.125-.209-.129-.219 0-.007.046.008.041-.009-.064-.21-.005-.082 0-.165-.005-.014-.12-.166-.011-.065.195.179.223.315.365.236-.087-.181-.332-.289-.374-.332-.062-.06.022-.017.02-.03-.004-.008-.053-.054-.055-.06.042-.11.244.242.356.328-.01-.034-.026-.076-.038-.112l.104.099c-.135-.181.005-.013.112-.045.02-.009-.105-.078.056-.009-.08-.094-.03-.072-.138-.137.036-.016.241.111.338.171-.24-.275-.178-.028-.359-.293-.07-.005.03.079.026.083-.054-.013-.087-.098-.25-.124-.023-.002 0 .085-.083.002a.502.502 0 0 1-.035-.093c.03-.011.077.047.089.041.009-.006-.056-.06-.055-.063.026-.027.066.041.065.024-.001-.04-.168-.297.112-.013-.278-.193-.064 0 .048.08.032.023.05.007.091.032.051.031.098.09.127.11.028.017-.071-.148.121.044-.058-.127-.301-.261-.373-.374-.163-.242.219.065.26.087.01.006.002-.043.01-.039.011.005.213.193.25.188.04-.004-.074-.06-.059-.084.01-.017.287.16.158.04-.084-.077-.324-.176-.289-.25.14.102.287.21.44.324l-.163-.251c.162.109.276.246.467.332-.294-.362.187.032.2.022.005-.01-.071-.175-.086-.206.157.073.578.35.42.096.026.05.18.078.181.072.027-.042-.234-.183-.16-.187.08-.008.094.086.164.128.36.206.481-.051.799.205l.002-.036c.373.258.74.52 1.104.79.222.027.666.243.85.384.039.029.184.2.19.217.011.032-.135-.06-.1.01.009.014.304.254.33.193-.03-.03-.165-.086-.172-.109-.046-.166.863.582.947.592l-.016-.095.159.155-.116-.01c.06.058.163.116.214.176.008.01-.061.031-.038.051.023.02.075-.039.118-.018.047.022.196.204.26.25.239.17.526.33.733.533-.288-.142-.092.089-.004.124.02.007.133-.107.35.113.138.14-.17.194.168.314-.076-.27.107-.11.266.008.027.02.226.211.328.285.036.025.148.001.193.034.03.022.017.075.062.108.21.156.421.327.607.502-.287.066.014.146.02.163 0 .085-.228-.083-.173.016.124.095.25.192.374.29-.076-.105.277-.028.263.062.137-.165.4.596.537.625.027.003-.004-.168.222.098.023.03-.034.065-.016.074.013.005.218-.09.192.04-.01.05-.245.023.091.253.04-.255.496.293.55.42l.007-.114c.037.142.107.108.126.13.074.091.138.255.224.327.095.08.188-.002.255.11l.01-.01-.008-.109.02.023c-.007-.035 0-.081.108-.132-.143.448.174.006.258-.067.005-.003.067.055.108.02.001-.005-.041-.04-.008-.076l.159-.16c.085-.071.008.06.086.045.044-.009.153-.213.196-.254.01-.01.047.035.085-.001.067-.066.086-.165.128-.21.006-.005.068.062.137-.038.019-.029.025-.077-.03-.064-.18.043-.29.343-.484.4-.175.049.195-.291.216-.31.007-.007-.034.09.047.031.068-.05.075-.268.197-.329a.83.83 0 0 1 .183.032c-.003.01-.096.131-.054.145.005.001.08-.065.11-.054.037.015.31.23.333.223.056-.022-.025-.054.004-.073.065-.043.332-.145.255-.235l-.111.071c.17-.167.06-.136.068-.173.01-.042.076.039.144-.008.017-.013.256-.252.223-.28-.094.174-.131.036-.14.04-.03.017-.012.096-.046.125-.245.2-.086-.09-.162-.062-.026.01-.022.086-.032.092-.033.015-.09-.041-.103-.022-.028.046.093.085.099.093.014.083-.191.144-.19-.022-.083.015.015.128-.07.122-.166-.012-.02-.101 0-.145.073-.157.148-.147.311-.314.059-.06.084-.177.11-.205.02-.018.366.01.097-.273.095-.03.38.064.444-.006.055-.06-.056-.14-.058-.151.004-.014.087-.072.1-.107.014-.042-.037-.067-.004-.123.083-.137.177-.037.196-.04.214-.044.017-.132.035-.17.017-.031.494-.33.546-.435l-.05.146c.123.008.095-.145.201-.039-.156-.185.085-.173.124-.212.014-.015-.016-.044.002-.062.074-.07.271-.187.298-.235.12-.209-.449.057-.494.082.077-.06.456-.427.185-.359-.042.011-.02.13-.034.146-.093.108-.073-.029-.087-.03-.026.002-.036.127-.063.135-.01 0-.03-.093-.139-.009-.004-.104.347-.293.374-.337.009-.016-.204-.077.174-.152l-.043-.028c.143-.12.286-.237.426-.352.01.04-.019.154.072.065.052-.05-.044-.077-.044-.083.032-.055 1.013-.754 1.193-.892.059-.046.196-.221.21-.232.08-.065.39-.238.443-.285.033-.03-.044-.05-.01-.072.032-.018.043.044.053.042.09-.04.598-.484.773-.539-.094.044-.42.41-.384.437.006.003.134-.034.139-.064.066.014.079-.18.163-.203.01-.002.041.078.163.01.042-.023.099-.141.249-.158.13-.134.976-.596.971-.69-.01 0-.128.047-.08-.024.07-.1.085.07.21-.001a5.69 5.69 0 0 0 .334-.252c.042-.122-.255.034-.265.03-.006-.025.216-.188.233-.193.012-.001-.107.205.099.02l-.108.026c.094-.091.155-.045.185-.059.092-.045.1-.175.329-.17.059.002.03.067.037.07.075.006.042-.12.168-.094.009.002-.095.138.155-.029l-.07.015c.02-.035.274-.22.311-.238.11-.056.066.045.16-.026-.124-.016.185-.23.214-.168-.02-.089.3-.218.42-.292.082-.052.22-.182.247-.194.034-.015.06.033.125.004.021-.01.155-.139.341-.196.037-.01.153.015.117.064-.065.089-.276.144-.24.182.042.04.242-.134.308-.17.297-.158.18-.015.197-.004.048.016.19-.081.203-.086ZM2.457 28.96c-.049.1-.426.435-.44.459-.011.017.148-.049-.052.093.2-.059.284-.29.303-.31.02-.016.028.035.033.036.011-.008.204-.197.213-.21.005-.01-.082-.015-.057-.068Zm-.043.514c.01-.013.283-.283.268-.203-.01.055-.322.286-.268.203Zm.284-.338c-.008.038-.291.304-.308.311-.118.052.279-.295.308-.311Zm-.524.005c-.063.063-.172.146-.18.202.063-.062.174-.145.18-.202Zm.282.122c.104-.075.265-.292.244-.167-.01.063-.076.06-.081.064-.057.045-.158.148-.163.103Zm.154-.628c-.182.125-.09.18-.137.22-.065.057-.126 0-.135-.03-.008.083-.217.297-.332.427.123-.096.326-.25.443-.346.033-.028.044-.071.072-.096.042-.036.036.014.038.018.07-.042.08-.16-.042-.049l.093-.143Zm.112.529c.032-.002.04.069-.017.08-.024.004-.025-.04.017-.08Zm-.29-.13c.092-.058-.098.127-.106.13-.07.031.065-.103.106-.13Zm-.172-.348c-.058.023-.131.198-.145.236.168-.215.155-.097.207-.117.112-.043-.047-.123-.062-.119Zm.57 0c-.098.038-.198.2-.153.175.022-.012.167-.143.154-.175ZM.459 28.67c.07-.068-.037.131-.048.137-.03.011.016-.107.048-.137Zm2.934-.53c-.04-.198-.255.227-.41.184.393-.359-.361.158.07.031-.282.167-.054.088-.067.137-.015.053-.166.158-.121.183l.227-.23c-.162.001.02-.13.145-.118a7.56 7.56 0 0 0 .01-.104c.146.061-.014-.1.146-.084Zm-.523.25c-.034.014-.257.263-.137.186.013-.01.165-.183.137-.186Zm-.3.004c.05-.082-.146.074-.14.139.03-.036.125-.116.14-.139Zm1.046-.013a.142.142 0 0 0 .034-.034.084.084 0 0 1-.016.05l.044-.05c-.043.077-.205.156-.11.036.008-.01.058-.027.093-.051l-.045.049Zm.602-.228c.048.033-.174.162-.22.207.015-.061.153-.149.22-.207Zm-.055-.34c-.085.034-.56.41-.58.439-.003.005.01.021.017.03l.006.006c.036-.016.502-.411.557-.476Zm-1.016.07c-.044.042-.143.11-.136.141.034-.026.122-.092.144-.134l-.024.027a.037.037 0 0 0 .006-.022c-.003.005-.008.01-.014.015l.024-.026Zm1.504-.252c-.175.015-.363.387-.176.205.004-.004-.074-.012.01-.068.007-.004.065.028.15-.065.018-.019.02-.072.016-.072Zm-3.877-.08c.038.026-.117.249-.14.314.007-.083.085-.227.14-.314Zm2.695.15c-.02.018.025.07.035.072.078 0 .03-.124-.035-.071Zm1.206-.148c-.035.012-.292.2-.18.148.012-.006.195-.125.18-.148Zm-.279-.193c-.036.037-.165.104-.147.134.037-.037.166-.103.147-.134Zm1.19-.153c.078-.016-.06.128-.142.14-.063-.023.129-.136.142-.14Zm-.26-.06c-.036-.01-.254.133-.265.147-.064.111.255-.123.266-.148Zm-4.437-.44c.101-.114-.066.265-.073.266a.552.552 0 0 1 .073-.266Zm.423-.034c-.035.056-.082.134-.116.128.026-.034.097-.144.116-.128Zm.123-.765c.069-.044-.044.128-.137.26l-.052.056c-.062.092-.113.169-.12.173a.056.056 0 0 1-.02.009c0 .031-.06.14-.097.126.02-.03.068-.12.078-.127a.044.044 0 0 1 .01-.006c-.002-.026.047-.113.11-.208l.054-.058c.072-.105.161-.216.174-.225Zm6.847-.68c.028-.01.184.162.032.167-.019 0-.01-.082-.03-.086a1.72 1.72 0 0 0-.229.136c-.005.012.057.053.055.068-.005.015-.17.064-.231.11-.114.087-.087.142-.096.15-.028.022-.107.029-.163.073-.284.222-.691.588-1.003.677.234-.118.393-.302.581-.468.028.13.228-.295.121-.036.076-.094.876-.757.963-.79Zm-6.65.88c-.083.141.032.047-.07.17-.01-.063 0-.088.07-.17Zm-.072-.35c-.002.006-.07.102-.077.108-.087.053.111-.228.077-.108ZM26 25.79c-.049-.066.111.036.117.048.005.028-.095-.02-.117-.048Zm-24.03-.189c.04-.038.06.071-.01.093-.02.005-.012-.07.01-.093Zm23.067-.116c.032-.033.206.109.26.13-.073-.007-.19-.08-.26-.13Zm-.723-.077c-.08-.082.209.04.217.05-.002.01-.174-.008-.217-.05Zm-.57-.35c-.053-.087.335.154.35.171a.044.044 0 0 1 .004.017c.027-.003.105.037.088.071-.021-.015-.087-.047-.091-.055a.028.028 0 0 1-.004-.007c-.05.011-.334-.178-.346-.197Zm-21.73.082-.01.055c-.036.103-.127.046-.124.033.047-.17.064-.02.071-.014.013-.005.039-.13.063-.074Zm22.341-.106c.042.025.102.062.091.093-.025-.021-.108-.075-.09-.093Zm-15.744-.27c-.019.007-.159.121-.132.154.054-.023.239-.18.132-.154Zm15.323.087c.124.058.045-.035.15.042-.058.019-.079.013-.15-.042Zm-.79-.13c.155-.017.093.102.08.105-.154-.008-.014-.057-.014-.063-.007-.01-.115-.01-.067-.043Zm-13.985-.13c.057-.158-.493.212-.284.178.014-.001.278-.164.284-.178Zm-6.751.007c.071-.046-.035.124-.078.162-.021-.022.067-.154.078-.162Zm21.146.073c-.036-.03.062-.069.081-.01.006.018-.06.025-.08.01Zm-20.829-.257c-.078.102.014.15-.068.184-.016.005-.19-.109-.054-.167.026-.01.004.106.122-.017Zm19.93.057c-.043-.055.11.006.145.038-.018.025-.139-.03-.145-.038ZM2.976 24.33c-.066-.02-.106.14-.064.124.004-.002.109-.109.064-.124Zm23.677-.454c-.007-.005-.025.076-.07.052.086.049.333.407.353.423.014.01-.02-.14.078.051h.001c-.022-.191-.226-.274-.238-.292-.01-.019.041-.024.04-.03a3.689 3.689 0 0 0-.164-.204Zm.054.323c.046.059.107.163.156.17-.046-.059-.106-.164-.156-.17Zm-4.229.021c.093.05.134-.042.167.025.005.011-.088.2-.147.084-.009-.02.093-.027-.02-.108Zm3.826-.443c.091.174.154.089.185.133.043.063-.019.12-.047.128.076.01.24.21.34.32-.068-.117-.177-.311-.25-.424-.02-.03-.06-.043-.077-.069-.03-.042.022-.033.021-.036-.03-.067-.136-.077-.051.039l-.12-.09Zm-23.123.281c.039-.02.864-1.069.25-.425-.018.02.037.023-.037.107-.005.005-.035-.018-.05-.001-.036.041-.22.251-.235.32a.024.024 0 0 0-.021-.004c-.08.022-.095.303-.06.285.049-.03.104-.195.09-.261.012.001.032-.004.063-.02Zm23.24-.006c-.024-.105-.12.04-.12.057.013.055.163.126.196.14-.172-.162-.066-.147-.076-.197Zm-4.357 0a.74.74 0 0 1 .18.12c-.033.022-.187-.093-.18-.12Zm-19.05-.087c-.055.078-.11.134-.175.193-.012-.042.145-.2.174-.193Zm23.634-.012c-.038-.085.1.09.105.102.018.067-.087-.063-.105-.102Zm-4.143.088c-.005-.006-.103-.076-.115-.033-.015.064.131.068.115.033Zm-12.282-.143c.032.04-.11.1-.145.138-.03-.04.114-.103.145-.138Zm16.557-.193c.035.01.235.277.242.297.03.112-.23-.27-.242-.297Zm-4.797.078c-.258-.143-.699-.36-.24-.042.02.013.019-.04.1.01.005.004-.014.036.003.047.038.024.238.149.298.146a.024.024 0 0 0-.003.02c.022.07.276.023.256-.005-.026-.037-.18-.056-.236-.029 0-.01-.006-.028-.022-.052l-.156-.095Zm4.921-.06c.05.012.215.31.146.257-.011-.01-.218-.274-.146-.258Zm-.831.09c-.07-.048.05.139.11.133-.029-.03-.09-.118-.11-.133Zm.672-.111c.055.011.044.072.047.079.032.054.112.15.071.155-.053-.1-.232-.256-.118-.234Zm-5.519.037c-.026.019.094.095.128.059-.03-.012-.107-.072-.128-.059Zm5.154-.17c.024.096.16.193.142.149-.008-.022-.11-.16-.142-.149Zm.43.113c.004-.029.07-.035.073.019 0 .023-.042.023-.073-.019Zm-.706-.156c.01.032.216.25.16.135-.007-.012-.151-.159-.16-.135Zm-4.826.067c-.035.032.103.086.109.084.04-.02-.064-.083-.109-.084ZM11.12 23.42c.017.083-.115.142-.182.196-.015-.069.124-.15.182-.196Zm14.772-.41c-.195.04.22.258.16.407-.314-.387.12.35.037-.068.133.274.078.053.124.067.05.016.13.162.159.12a18.05 18.05 0 0 0-.195-.223c-.012.157-.12-.022-.103-.144l-.103-.013c.065-.142-.098.014-.079-.145Zm-5.845.453c-.4-.14-.316-.35-.03-.109.006.008.063.1.03.109Zm5.576-.22c.037.032.11.153.143.145-.026-.04-.107-.151-.143-.145Zm.424-.443c.052.004.379.467.431.539-.091-.017-.098-.103-.167-.186-.018-.022-.032.004-.034.001-.032-.038.012-.032-.007-.057-.013-.018-.294-.303-.223-.297Zm-5.52.46c-.048-.041-.079.023-.078.03.03.042.134.02.078-.03Zm-16.815-.13c-.025-.04-.115.1-.118.112.009.049.107-.064.118-.111Zm-.141-.069c-.013-.03-.126.096-.097.137.022-.033.107-.115.097-.137Zm15.572-.56c-.039-.004.002.118-.028.12-.02.001-.069-.061-.106-.052-.012.005.01.11.032.118.031.012.042-.056.073-.04.105.056.17.144.269.195.008.003-.034-.068.04-.028.012.007.044.098.14.137.315-.063.344.176.635.244-.001-.021-.154-.156-.165-.165-.189-.135-.56-.34-.78-.462-.055-.03-.054.02-.08.008-.018-.01.051-.064-.03-.074Zm-8.255.49c-.03.005-.097.09-.08.111.05.06.198-.125.08-.11Zm8.409-.093c.06.127-.015-.003-.062.072.073.041.255.14.179.003-.015-.026-.086-.052-.117-.075Zm.147.048c-.036.038.108.081.147.048-.025-.014-.134-.057-.147-.048Zm6.072-.035c.002-.072-.115-.016-.067.04.015.018.067-.032.067-.04Zm-6.303-.09c-.029.016-.162.049-.09.08.035.014.144-.041.09-.08Zm6.842-.108c.091-.013.229.246.084.126-.013-.012-.039-.099-.084-.126Zm-6.908.094c-.01-.02-.377-.28-.42-.178.044.011.465.302.42.178Zm-.247-.069c-.034-.027-.112.03-.112.042.01.044.126.024.112-.042Zm6.67-.398.063.05c.107.145.314.388.332.397.007.002.034-.021.034-.025a5.271 5.271 0 0 0-.349-.392l-.063-.052a1.188 1.188 0 0 0-.093-.079.7.7 0 0 0 .076.1Zm-13.445.01c.09.054-.125.154-.171.217-.088-.054.126-.156.17-.218Zm5.978.007c-.04.032.098.093.149.055-.03-.027-.116-.078-.149-.055Zm7.779-.16c.031-.046.146.146.189.185-.058-.009-.136-.129-.19-.185Zm-21.632.054c-.054.03-.057.146.01.089.059-.051-.005-.091-.01-.09Zm14.49-.04c-.012-.016-.208-.061-.177.027.023.061.082-.003.093.003.013.009.218.247.084-.03Zm-6.308-.133c.026.039-.089.13-.116.173-.026-.066.062-.127.116-.173Zm12.63.015c.035.027.105.138.131.117-.035-.028-.104-.138-.13-.117Zm-7.052.01c-.01-.016-.307-.203-.248-.08.019.037.303.196.248.08Zm-6.162-.14c-.08-.001-.03.138.04.138.04-.028-.03-.137-.04-.138Zm13.45-.158c.025.164.382.282.202.133-.004-.002-.006.075-.065.002-.003-.008.021-.067-.069-.132-.018-.012-.064-.007-.068-.003Zm-19.954-1.03c-.002-.012-.117.002-.13.025-.02.032.049.05.024.082-.083.107-.184.165-.26.265-.007.009.08-.03.019.047-.01.012-.114.038-.177.136-.004.339-.266.353-.41.66.024 0 .204-.153.215-.163.189-.192.494-.573.665-.79.045-.056-.009-.06.01-.085.014-.02.055.06.085-.027.014-.04-.125-.007-.12-.04.004-.022.081-.068.08-.11Zm19.88 1.023c.013.03.203.242.148.143-.007-.01-.128-.162-.149-.143Zm-12.078-.434c.052.043.037.028.001.072-.572.694-.6.409 0-.072Zm-1.071.394c.023-.069-.154-.067-.12.072.023-.037.117-.065.12-.072Zm-7.907.044c.245-.419.443-.306.122-.025-.008.006-.123.063-.122.024Zm12.732-.18c.037-.11.162-.05.207.035.01.02.003.15-.083.121.086-.106.01-.218-.124-.155Zm-4.818.094c.151-.02.014-.13-.043-.069-.02.022.036.067.043.069Zm12.721-.463c-.01.034.143.217.155.222.107.04-.131-.217-.154-.222Zm-8.109.119c-.286-.11.009-.355.238-.048l-.06.018c.326.285.007.037-.093-.006-.038-.016-.05.05-.085.037v-.001Zm.287-.012c.065-.032.132.035.18.073-.04.03-.14-.051-.18-.073Zm-12.128-.156c-.03-.042-.11.107-.085.152.02-.025.094-.14.085-.152Zm11.578-.106c.019.005.084.115.125.133-.107.035-.246-.154-.125-.133Zm-3.69-.096c-.042.058-.222.143-.133.195.031-.05.153-.143.133-.195Zm-7.862-.025c-.062.075-.208.26-.047.192.031-.014.074-.088.106-.12-.148.054.009-.015-.06-.072Zm19.959.019c-.02-.071.127.036.141.108-.015.067-.138-.1-.141-.108Zm-8.653-.063c.068.05-.083.087-.091.027-.002-.022.074-.039.091-.027Zm-11.147.035c-.012-.032-.017-.174-.065-.101-.022.034.012.155.065.101Zm10.794-.304c-.046-.373.263.082.412.145-.192-.003-.338-.13-.198.112-.327-.212-.126-.2-.133-.215-.01-.018-.08-.026-.081-.042ZM5.34 20.47c-.015.04-.416.467-.276.43.021-.006.377-.376.276-.43Zm10.857.126c.04.006.06.102.014.116-.063.017-.025-.117-.014-.116Zm-11.024-.076c-.046.005-.054.132.018.123.038-.035-.008-.122-.018-.123Zm.607-.187c-.067.018-.012.085-.021.097-.016.016-.303.212.013.093.02-.01.106-.216.008-.19Zm8.443-.04c.094.053-.12.217-.152.216-.127-.001.154-.185.152-.216Zm1.484.057c-.008-.122.345.017.37.108-.033.046-.363-.088-.37-.108Zm7.135-1.499c.036-.054.12-.13.131-.027.003.018-.073.029-.076.047 0 .01.128.18.139.182.01.001.044-.066.056-.066.014.002.068.142.116.19.09.088.134.05.141.056.022.021.035.091.078.134.222.215.589.518.699.793-.131-.197-.31-.306-.476-.445.113-.055-.284-.148-.043-.106-.093-.052-.745-.645-.781-.718l.015-.04Zm-17.097.989c-.025-.045-.114.094-.085.15.033-.028.104-.114.085-.15Zm.406-.329c-.043.018-.254.298-.126.253.014-.004.263-.305.126-.253Zm8.157-.107c-.015-.002-.12.07-.084.1.047.036.126-.09.084-.1Zm-7.455-.568c.03.067-.043.132-.085.18-.026-.043.06-.14.085-.18Zm-.265.088a.18.18 0 0 0 .052-.075c.013-.006.026-.012.037-.021l-.09.096Zm.008-.069a.076.076 0 0 1-.04.041l.037-.04h.003Zm.286-.358c.127-.204.316.076.011.29l-.015-.062c-.307.321-.037.007.011-.093.02-.04-.047-.052-.032-.088l.025-.047Zm-.289.246c.057.021.063.064.047.106l-.007.006a.093.093 0 0 1-.037 0l.004-.008-.007.008c-.044-.006-.103-.032-.073-.095.028.029.059.04.087.043a.187.187 0 0 0-.014-.06Zm15.945.036c-.026-.046-.171-.177-.143-.087.005.014.115.12.143.087Zm-.323-.55c-.145-.018.21.405.17.22a1.929 1.929 0 0 0-.17-.22Zm-15.208.178c-.031-.11.166-.251.14-.127-.005.019-.12.085-.14.127Zm.596-.746c.382-.06-.089.276-.156.426.008-.196.14-.348-.108-.201.22-.336.205-.137.22-.141.019-.009.028-.08.044-.084Zm-.057.392c-.016-.063.117-.028.118-.017-.007.042-.106.065-.118.017Zm-.248-.119c.022-.002.038.076.024.094-.053.07-.085-.085-.024-.094Zm.627-.413c.127-.015-.024.361-.117.386-.045-.033.098-.38.117-.386Zm13.65-.107c.037-.036.089.079.122.101-.035.036-.088-.078-.121-.101Zm-.693-.361c.05-.059-.104-.152-.095-.05.002.025.077.069.095.05Zm.28-.346c.073-.032.121.073.168.122-.061.028-.128-.08-.167-.122Zm-.965-.393c-.02-.029-.118.046-.123.056-.01.072.115.008.123-.056Zm-.271-.122c-.056-.013-.078.146.046.098-.028-.015-.04-.095-.046-.098ZM9.18 16.095c-.008.058-.086.108-.12.158-.03-.039.071-.17.12-.157Zm10.711.098c.002-.132-.109.002-.064.046.016.015.063-.04.064-.046Zm.545-.122c.057-.087.118.088.165.12-.055.087-.118-.089-.165-.12Zm-11.14-.233c-.03.08-.114.138-.165.207-.011-.056.101-.217.166-.207Zm10.949-.003c.036-.027.098.062.132.08-.06.033-.1-.039-.132-.08Zm-.881-.16c.044.033.093.188.15.102-.038-.023-.101-.123-.15-.101Zm.436-.403c.508.434.26.492-.062.008.044-.05.03-.035.062-.008Zm-9.528-.237c.01.017.013.037-.006.067-.004-.008-.014-.016-.023-.026-.048.069-.086.124-.105.148.124.04.255-.264.363-.424l-.027-.05c-.07.095-.141.198-.202.285Zm9.353.097.015.025-.039-.04.024.015Zm-.063-.163c.063.07.122.142.123.156-.005.04-.03.027-.06.007-.041-.066-.085-.138-.065-.163h.002Zm-.091.122h-.003c-.017-.006-.027-.02-.033-.036l.036.036Zm.097-.121-.006-.002-.021-.025.027.027Zm-9.68-.543c.07-.015.192.2.183.285-.103.025-.272-.264-.184-.284Zm-.085-.479c-.04.034.052.17.061.17.128.007-.014-.122-.06-.17Zm-.035.14c.019-.084-.13-.122-.129-.079.002.031.11.163.13.079Zm-.097-.36c.002.057.14.229.124.117-.004-.013-.091-.149-.124-.118Zm-.082.03c-.012-.027-.111.017-.12.026-.01.05.107.055.12-.026Zm-.203-.198c.026-.077-.046-.151-.077-.08-.002.007.03.105.077.08Zm-.149-.313c-.078-.031-.003.16.065.132-.02-.03-.037-.121-.065-.132Zm-.255-.704c-.093.315.047.161.059.169.018.025.011.133.058.17l-.2-.088c.02.055.249.48.29.456.054-.035-.056-.133-.054-.14.006-.015.117-.152.114-.168-.01-.027-.26-.322-.267-.4Zm-1.016.434c.065-.024.105.058.14.107-.067.025-.106-.058-.14-.107Zm.095-.005c.003-.034.116.036.124.083-.039.033-.125-.059-.124-.083Zm.544-.484c.029-.091.143.088.144.104-.017.066-.167-.028-.144-.104Zm-.858-.28c.064-.089.101.116.135.14.006.005.074-.054.105-.028h.001c.01.01-.03.077-.03.085.012.015.205.206.066.193-.025-.003-.249-.34-.277-.39Zm-.134.037c.003-.009.059-.078.085-.016.03.074-.075.075-.085.016Zm-.417-.415c.039.012.083.099.088.129 0 .006-.09.065-.05.102.03.029.07-.098.11-.02.04.079-.083.048-.087.055.003.014.117.083.07.124-.037.031-.102-.103-.131-.124-.037-.025-.061.072-.095.001-.02-.044.097-.122.096-.134-.006-.013-.157-.085-.017-.133h.016Zm14.86-.318c-.03-.032-.166.083-.126.15.022-.03.142-.128.125-.15Zm-15.242-.114c.078-.02.115.114.147.173-.07.012-.129-.111-.147-.173Zm.63.109c.008-.032-.27-.402-.163-.143.007.016.138.236.163.143Zm-.86-.11c.041.011.11-.054.13-.01.059.132-.036.085-.13.01Zm.522-.129c.021.02.08.146.088.149.112.027.001-.146-.088-.149Zm.461.1c-.006-.063-.14-.122-.141-.066 0 .035.148.142.141.067Zm-1.046-.094c.014-.008.138-.233.14.03 0 .039-.104.004-.109.016.001.029.005.049.012.06-.07-.058-.132-.127-.127-.145.025-.082.08.04.084.04Zm.064-.196c.029-.033.154.063.084.147-.016-.033-.102-.125-.084-.147Zm.509.018c.04-.049-.099-.105-.103-.062-.001.028.076.09.103.061Zm.519-.06c.035-.019-.009-.045-.018-.083-.01-.043-.053-.142-.148-.148l.166.232Zm-.293-.294c.042-.186-.063-.016-.04.09.066-.024.033-.06.04-.09Zm-1.24-.206c.05.112-.039.033-.054.046-.039.044.118.167.128.22.095-.044-.072-.114-.073-.158l.036-.013c.06-.019.156-.05-.036-.095Zm.94.038c-.055.011.022.15.033.154.065.015.078-.173-.033-.154Zm.315.033c.016-.16-.15-.033-.102.029.02.024.098-.006.102-.029Zm-1.323-.07c-.063-.073-.133.093-.051.097a.406.406 0 0 0 .051-.096Zm.932-.049c-.009-.002-.062.124-.008.117.043-.006.041-.105.008-.117Zm-.97-.01c.052-.159-.242-.092-.148-.01.01.007.144.018.147.01Zm.971-.247c-.009.032.148.119.153.131.002.015-.096.032-.024.094.019-.025.113-.04.113-.055-.002-.043-.215-.259-.242-.17Zm8.129-.287a.352.352 0 0 0-.12.076.09.09 0 0 1 .037.017l.01.01c.045-.038.093-.084.073-.103Zm-9.621-.068c0 .079.093.119.096.068-.002-.013-.072-.093-.096-.068Zm9.576-.147c-.056-.003-.07.124.018.128.033-.017-.01-.124-.018-.128Zm8.432-.086c-.015-.013-.092.08-.094.087-.01.05.138-.042.094-.087Zm-8.08-.13c-.01 0-.116.045-.094.094.083.02.172-.068.095-.094Zm.261-.104c.038-.086-.172.012-.147.083.034-.024.134-.052.147-.083Zm.517-.411c-.066.032-.535.314-.517.358.034.057.143-.067.155-.071.01 0 .155.109.174.106.027-.009.369-.312.456-.33-.343-.067-.177.073-.19.083-.032.023-.148.027-.19.081l.112-.227Zm-11.335.03c.044.026.18.295.207.274.027-.026-.159-.29-.207-.275Zm11.69-.382c.1.022-.106.164-.12.164-.071-.012.04-.181.12-.164Zm7.79-.02c-.027-.088-.238.15-.142.13a.706.706 0 0 0 .142-.13Zm.319-.221c.014.095-.2.233-.192.176.005-.015.178-.219.192-.176Zm-20.116.036c-.012.013.045.1.051.106.11.045-.018-.138-.051-.106Zm11.518-.335c.04-.002-.046.128-.097.14-.031-.038.07-.137.097-.14Zm.001-.102c.023.068-.07.118-.124.16-.022-.069.07-.12.124-.16Zm.858-.318c.093.06-.132.12-.163.16-.005.008.053.076.022.113-.011.013-.084-.026-.09-.023-.013.01-.245.249-.219.093.008-.029.397-.31.45-.343ZM3.843 7.643c-.026-.102.114-.134.112-.036 0 .011-.082.17-.112.036Zm13.01-.097c.009.001.081.056.011.09-.081.038-.075-.075-.01-.09Zm-13.15-.218c.036-.02.073.073.088.114-.029.026-.063-.084-.087-.114Zm14.466.098c.018.037.05-.013.093-.027.048-.015.16-.073.172-.177l-.265.204Zm-.275-.177c-.038.004-.163.172-.08.157.072-.014.141-.162.08-.157Zm-6.164-.066c-.033.03.066.151.132.109-.025-.017-.11-.123-.132-.109Zm5.943.104c.033.005.456-.33.165-.189-.02.011-.264.17-.165.189Zm-.62-.312c.05-.027.124.09.14.09.01-.002.104-.182.146-.032.012.043-.113.118-.15.127-.009-.004-.065-.09-.107-.045-.034.038.102.068.012.12-.09.05-.042-.09-.052-.09-.015.003-.101.137-.143.09-.03-.038.12-.122.147-.156.032-.043-.073-.06.008-.104Zm1.365.069c.022.07.064.03.096.035.2.027.022-.071-.096-.035Zm.219-.07c-.028.023-.002.106.023.108.174.002.047-.167-.023-.108Zm-.68-.075c-.023.025-.167.102-.17.11-.039.125.16-.013.17-.11Zm1.143-.276c-.034-.007-.142.174-.154.179-.017.002-.028-.102-.1-.018.025.017.036.116.051.116.048-.006.299-.257.203-.277Zm-15.726.164a.752.752 0 0 1 .043.075c0 .096-.118-.113-.043-.075ZM18.22 6.75c-.03 0-.105.092-.075.117.05.04.123-.118.075-.117Zm.5-.014c-.007-.06-.17.04-.172.052-.022.072.185.065.172-.052Zm-.883-.143c.016.083-.133.136-.2.176-.007-.074.131-.151.2-.176Zm.983.052c.004-.01-.13-.056-.127.003.004.046.112.034.127-.003Zm-.963-.302c-.017.046.05.115 0 .141-.149.076-.09-.032 0-.141Zm.348-.032c.035.029-.082.177-.17.107.038-.02.145-.121.17-.107Zm-.16-.144c.088.018-.049.091-.05.096.006.014.245.126-.044.154-.042.003.006-.116-.009-.116a.154.154 0 0 0-.066.019c.069-.08.148-.154.169-.153ZM2.92 5.979c.02-.018.096.096.098.109.005.06-.095-.037-.098-.109Zm7.175.016c-.014.014.066.079.075.082.045.007-.03-.125-.075-.082Zm-7.247-.109c-.062-.001-.09-.125-.134-.171-.064-.065-.29-.07-.112-.147.086.112.163.213.246.318Zm-.262-.159c.016.016.047.098.067.128-.062.008-.122-.182-.067-.128Zm16.206-.069c-.047-.036-.195.149-.253.162.041.1.129-.086.178-.094.014-.002.03.278.12-.012-.13.068-.03-.043-.045-.056Zm-15.868-.18c-.025.053.06.117.087.179.024-.064-.056-.124-.087-.18Zm.046.173c-.03-.054-.082-.163-.095-.102-.001.005.076.12.095.102Zm15.872-.013c.087-.077-.088-.137-.102-.046 0 .005.091.049.102.046Zm.09-.209a.564.564 0 0 0-.021.16c.169.044.117-.268.021-.16ZM2.94 5.354c-.016.045.06.143.091.18.023-.054-.061-.115-.09-.18Zm6.273-.071c-.085.032.12.21.109.122a.516.516 0 0 0-.11-.122Zm-6.49-.056c-.007.06.116.166.112.132-.005-.013-.107-.16-.112-.132ZM9.027 5c.089-.02.202.168.15.166-.012-.002-.19-.15-.15-.166Zm10.583-.032c-.083.005-.137.113-.082.11.013 0 .11-.087.082-.11ZM2.504 4.39c-.03-.018.004.123.039.116.02-.008-.021-.104-.04-.116Zm18.084-.182c-.035.05-.334.22-.317.248.022.032.33-.197.317-.248Zm.667-.397c-.014-.011-.117.06-.12.066-.058.123.154-.033.12-.066Zm6.656-.5c.052.011-.061.15-.08.161-.007-.003.012-.172.08-.16Zm-.01-.24c.05-.123.408-.298.14.015h.002c-.07.08-.052.004-.056.007-.163.146-.081.153-.096.188-.033.076-.09.004-.137.132.084-.208-.011-.04-.037-.058-.106-.073.216-.187.254-.288.005-.013-.084.042-.07.004Zm-25.07.18c.076-.016.004-.061-.003-.09-.007-.025.01-.064-.036-.086l.04.176Zm19.357-.235c.112-.034.14.11.029.12-.015 0-.18-.072-.029-.12Zm.353-.173c.018.037-.089.087-.133.104-.025-.028.097-.073.133-.104Zm-19.88-.19c.069.042.149.157.206.198.006.005.05-.093.071.023.009.075-.255-.138-.276-.221Zm25.306.065c.066-.05-.044.11-.09.149-.012-.013.081-.141.09-.15Zm-23.76-.552.084.057c.068.055.009.05.004.051.137.15.138.063.172.075.067.023-.006.079.114.117-.192-.066-.04.011-.057.038-.08.1-.15-.173-.255-.213-.012-.004.038.078.002.067-.103-.037-.216-.276-.063-.192Zm-1.18.276c-.032-.052.073.025.097.06-.012.014-.094-.053-.098-.06Zm.919-.115c-.04-.055.098.03.132.068-.012.014-.13-.064-.132-.068Zm.55 0c.015-.046.13.042.143.061.004.008-.162.003-.143-.06ZM2.724 2.15a.545.545 0 0 1 .115.085c.038.07-.121-.039-.115-.085Zm.062-.04c.012-.011.093.052.1.06.03.05-.068-.017-.1-.06Zm.071-.212c.007-.003.056-.067.096-.02.106.127-.033.086.318.261-.166-.06-.038.022-.077.019-.033-.004-.09-.067-.077-.013-.026-.068-.277-.257-.26-.247Zm.213.054c.024-.014.212.15.255.185-.046-.004-.281-.17-.255-.185Zm25.392-.197c.02.018-.194.244-.224.28-.002-.038.215-.314.224-.28Zm-4.373.125c.02.02-.115.112-.126.114-.066.01.049-.107.126-.114Zm4.474-.318c.02.01.016.042-.004.058-.15.123-.093-.028-.32.362.082-.183-.022-.037-.014-.082.01-.037.086-.105.023-.085a.851.851 0 0 0 .182-.168l.046-.052c.07-.03.071-.034.087-.033Zm-3.795.291c-.044-.016-.159.074-.206.113.058.021.138-.08.206-.113Zm-.129-.011c-.057-.022-.137.08-.21.114.07.022.145-.074.21-.114Zm-20.116.1c.034.061-.164-.064-.071-.046a.9.9 0 0 1 .071.045Zm20.042-.146c-.01.002-.14.095-.125.115.064-.04.193-.107.125-.115Zm3.37-.063c.062-.039-.04.088-.08.115-.017-.008.07-.107.08-.115Zm-3.535-.1c.076-.073.098-.313.166-.127-.123.095-.246.19-.373.293.009-.068.151-.114.207-.166Zm.527-.025c-.064-.002-.193.14-.156.133.014-.005.19-.132.156-.133Zm3.587-.055-.038.042c-.026.012-.062.03-.113.05a.617.617 0 0 1-.176.035l.003-.004a.936.936 0 0 0 .204-.061c.158-.082.14-.09.142-.086l-.022.024Zm-.775-.195c-.044.068-.192.176-.234.233-.005.007.097.047-.03.076-.084.015.183-.291.264-.309Zm-.667.222c.01.08.066.001.097-.009.028-.009.069.007.097-.046l-.194.055Zm1.248-.122c.017.006-.068.104-.076.11-.06.039.04-.086.076-.11Zm-.039-.063a.635.635 0 0 1-.102.126c-.083.048.064-.14.102-.126Zm-2.42-.086c.022-.032-.133.012-.127.048.005.022.112-.027.126-.048Z"/></svg>