<svg xmlns="http://www.w3.org/2000/svg" width="32" height="30" fill="none" viewBox="0 0 32 30"><path fill="#3DBB2B" d="M14.512 27.059c.01.026.001.054-.016.08l-1.937 2.05-2.084-1.171c-.142-.06-.283-.154-.384-.22.082-.007.227.08.404.175l2.054 1.154 1.91-2.019.053-.05Zm-.029-.087c.022.02-.009.076-.043.12l-1.895 2.004-2.04-1.146a1.034 1.034 0 0 1-.194-.11c-.035-.036.072.005.216.066l2.008 1.128 1.866-1.973a.256.256 0 0 1 .082-.09ZM30.02.348c.054-.034-.076.125-.07.152.01-.002.163-.1.167-.099.043.017-.119.143-.071.15l.121-.094c-.094.158-.36.415-.38.508.177-.211.389-.442.468-.38.034.024-.024.128-.014.133.045.008.12-.143.126-.146.005-.002.008-.003.01-.002.019.012-.123.203-.124.22.002.027.136-.013.15-.003 0 .005-.097.15-.035.122.063-.03.157-.144.164-.148.033-.013-.118.2-.117.216.002.006.12-.088.13-.085.007.006-.04.1-.043.152 0 .038.07-.027.064-.012-.006.011-.163.215-.166.225-.005.017.051-.012.052-.002.001.015-.056.073-.04.071.011 0 .276-.198.297-.186.033.026-.25.252.076.087.002-.002.037-.072.04-.073.05-.02-.05.206.114-.044-.276.492.012.094.023.202.004.041-.106.229-.105.234.041.003.055-.067.084-.08.012-.002-.059.176-.016.156.021-.01.132-.188.139-.194.062-.057.027.042.05.036.016-.004.083-.11.086-.111.006-.003-.047.165-.055.207-.004.03.065-.047.06-.028-.039.12-.223.271-.014.144.013-.01.057-.089.059-.09.055-.03-.03.116-.022.154.01.069.109-.147.037.038.097-.108.14-.185.215-.335-.217.422-.204.644.052.174-.082.146-.022.168-.046.213-.017.032-.181.199-.01.19.022-.002.07-.143.08-.082-.169.3.014.024.02.023.073.05-.39.776-.46.917-.069.154-.08.336-.097.37-.06.11-.043-.004-.068.01-.027.02-.129.367-.141.384-.047.048-.055-.04-.06-.037-.066.056-.265.49-.339.596.031.015.16-.21.124-.035-.04.204-.168.127-.178.126-.435.765-.88 1.52-1.334 2.269.084.05.319-.483.337-.489.095-.015-.396.808-.492.893l.195-.195c.01.205-.282.402-.358.624-.023.07.081-.016.085-.014-.005.097-.1.188-.1.066-.055.206-.093.142-.177.269-.004.006.067-.018.022.096-.02.053-.174.305-.161.368.007.025.238.015.115-.104.23-.227-.006-.135.062-.24.011-.016.058.083.191-.222.097.155-.186.394-.203.46-.031.135.305-.267.257-.434.077.117.033-.023.098-.122.07-.11.071-.038.107-.1.097-.164-.011-.149.13-.236-.273-.015.116-.258.226-.33-.09.184-.187.373-.276.552l.048-.006-.084.135-.018-.045c-.073.288-.181.292-.194.31-.157.246-.322.528-.477.784-.024.039.062.066-.156.295-.07.073-.075-.051-.127.054.073.239-.043.145-.066.181-.065.105-.069.199-.074.21-.075.135-.195.317-.278.464 0 .003.092-.033.022.048-.023.028-.414.165-.504.464l.165-.162c-.066.06-.358.64-.218.553.086-.055.077-.358.219-.278-.15.152-.722 1.188-.807 1.242-.011.008-.012-.092-.027-.083-.012.009-.15.244-.186.26-.02.007.016-.11-.005-.116-.015-.002-.217.26-.172.321.023-.087.168-.262.149-.125-.003.018-.082.057-.086.078-.026.2.24-.246.287-.318-.108.333-.472.696-.637 1.053-.133.09.052-.248-.084-.135-.281.234.013.132.013.146 0 .114-.43.16-.233.319-.104.086-.106.03-.185.207l.083-.029c-.003.27-.537.388-.543.343-.01-.12.212-.23.22-.248.01-.027-.141-.255.216-.37-.062-.215-.377.34-.306.03-.096.174-.641.738-.65.883 0 .018.175.078-.009.182-.087.048.04-.136-.016-.127-.169.029-1.143 1.516-1.344 1.796-.014.017-.054-.025-.066-.008-.037.053-.111.3-.202.378.228-.128-.046.258-.129.349-.124.136-.198.063-.264.113-.25.191-.34.72-.666.765.187.136-.337.257-.456.406-.093.117-.107.389.09.287-.166.198-.304.446-.442.647-.023.033-.043-.054-.08.004-.003.006.045.056.014.107-.252.42-.22.142-.31.187a.428.428 0 0 0-.102.066c.167-.232.345-.505.398-.576-.162-.035-.364.512-.497.616-.007 0-.057-.065-.06-.061l-.058.076c-.073.11-.173.294-.079.294.034 0 .147-.142.272-.314-.021.057.077.082.074.092-.04.126-.3.308-.376.383-.016.018.03.054.029.057-.07.066-.179-.072-.104.116-.272.001.178-.275.05-.337-.1-.042-.752.864-.622.97-.017-.008-.045-.01-.084-.001-.09.021-.27.271-.28.333 0 .01.128.112.122.122-.014.024-.354.238-.37.41l.2-.136c-.294.362-.212.338-.076.248.006-.005.016-.008.02-.013.105-.07.23-.168.241-.161.027.014-.14.253-.28.39-.09.089-.17.135-.178.051-.001-.013.053-.067.098-.117.057-.064.098-.122-.014-.082a.14.14 0 0 0-.04.038c-.05.062-.126.177-.139.179-.065.008-.012-.142.02-.276.026-.099.04-.189-.015-.199a.278.278 0 0 1-.042.151c-.047.081-.125.148-.17.23-.03.057.023.122.019.129-.06.105-.083 0-.107.031-.012.018-.02.313-.187.12-.353.713.008.281.298-.092-.024.174-.246.371-.315.487-.024.041.058.073.02.145-.08.151-.662.69-.813.832.06-.114-.034-.144-.092-.066-.059.078.088.093.086.116-.003.024-.345.337-.383.405.191-.29.07-.29-.128-.072l.022-.147c-.085.156-.422.336-.456.438-.003.016.09.023.088.031-.031.086-.284.26-.273.287.009.022.14-.032.134.023-.003.011-.161.038-.22.144-.022.04.05.066.047.077-.036.092-.092-.026-.19.115-.072.104-.042.248-.185.351.485-.325.127-.011.006.194-.02.033.1.09-.098.22.14-.508-.184.024-.272.118-.005.004-.071-.048-.114-.002-.003.004.045.035.01.08-.336.438-.15.134-.264.177-.05.02-.162.267-.209.32-.01.013-.051-.03-.092.018-.072.087-.091.202-.137.26-.006.006-.078-.052-.15.072-.02.034-.025.088.034.063.193-.083.314-.442.521-.542.19-.091-.209.362-.23.386-.008.008.037-.108-.051-.025-.075.072-.08.312-.21.404a.856.856 0 0 1-.199.003c0-.007.104-.165.056-.17-.005 0-.086.088-.119.082-.04-.01-.338-.189-.363-.176-.06.035.028.054-.005.082-.029.024-.093.067-.153.114l-1.391 1.47-1.495-.84c-.22-.133-.399-.262-.433-.2.061.05.161.119.253.178-.276-.152-.308-.165-.337-.162-.022.006-.006.039-.038.03-.07-.018 0-.094-.116-.189-.04-.025-.473-.334-.479-.287.256.118.112.16.116.17.037.039.132.022.186.065.429.325-.086.093.003.194.034.036.145.04.16.055.048.046.007.114.047.133.094.045.055-.115.065-.119.077-.026.478.311.148.262.123.118.211.037.312.104l1.658.932 1.54-1.63a.064.064 0 0 1 .026-.008c.113-.014.095.03.06.08l-1.606 1.696-1.726-.97c-.087-.039-.172-.086-.216-.102a1.475 1.475 0 0 1-.39-.206c-.1-.072-.196-.154-.346-.258-.116-.08-.271-.115-.317-.148-.03-.023-.135-.439-.379-.135-.066-.11-.06-.449-.151-.518-.087-.066-.15.062-.161.06-.017-.005-.108-.105-.155-.123-.054-.02-.068.039-.145-.005-.179-.102-.085-.204-.094-.226-.107-.251-.16-.029-.21-.056-.051-.028-.49-.586-.618-.655l.177.07c-.015-.139-.186-.12-.085-.232-.18.163-.222-.12-.27-.163-.02-.017-.046.014-.069-.008-.089-.086-.258-.322-.32-.36-.26-.16.146.518.18.568-.078-.086-.57-.564-.44-.243.02.05.152.037.173.055.141.117-.022.079-.019.096.007.03.152.052.165.083.003.01-.1.025.013.154-.114 0-.398-.423-.452-.458-.02-.01-.051.224-.202-.217l-.026.046c-.159-.176-.311-.35-.465-.527.043-.006.18.042.064-.074-.067-.068-.082.045-.089.04-.078-.049-.987-1.259-1.158-1.493-.061-.078-.271-.263-.283-.28-.079-.098-.306-.494-.363-.563-.035-.042-.053.042-.079 0-.023-.04.049-.04.043-.054-.05-.106-.59-.785-.656-.998.053.12.487.572.514.535.002-.006-.048-.162-.082-.175.008-.076-.207-.127-.237-.228-.003-.011.085-.03.002-.185-.029-.054-.163-.145-.191-.325-.154-.168-.69-1.269-.794-1.298-.005 0 .056.167-.028.087-.11-.109.078-.079 0-.243a11.837 11.837 0 0 0-.278-.465c-.136-.088.038.312.032.322-.027 0-.21-.318-.212-.334-.001-.016.223.187.026-.108l.024.132c-.097-.136-.044-.193-.058-.231-.046-.12-.2-.188-.178-.447.006-.067.076-.01.08-.018.01-.085-.132-.09-.095-.229.004-.009.148.164-.024-.196l.014.09c-.043-.04-.222-.404-.239-.456-.052-.153.055-.057-.016-.202-.032.139-.232-.314-.159-.322-.1-.014-.2-.455-.261-.641-.042-.12-.158-.36-.165-.4-.01-.05.044-.06.029-.15-.004-.022-.12-.278-.126-.53-.001-.05.057-.174.098-.099.068.127.08.423.129.399.05-.028-.083-.373-.097-.472-.079-.48.039-.227.052-.245.031-.045-.022-.293-.019-.305.007-.047.072.117.098.113.031-.007.041-.26.062-.21.03.074.03.302.036.316.075.166.087-.103.109-.178.006-.023.042.049.042.032-.009-.264-.114-.018-.14-.194-.022-.161.065.03.067.022 0-.01-.034-.196-.022-.23.001-.01.196.43.236.392a5.467 5.467 0 0 1-.125-.434c.05-.025.054.2.066.223.02.04.02-.092.039-.091.012.002.083.133.068-.002-.004-.046-.063-.133-.052-.302.158.55.111.15.125.131.016-.019.117.228.042-.085.1-.038.033-.001.07.083.05.101.02-.153.095.242.042-.031-.04-.346-.038-.364 0-.015.04.048.042.021.033-.306.032-.101.075-.195.001-.015-.022-.284.021-.08.086.36.077.541.241.55-.024-.278-.187-.574-.199-.663-.02-.125.027-.002.033-.016.002-.006-.015-.109-.013-.114.09-.09.08.471.163.644.002-.052.006-.103.01-.153.018.061.038.126.058.187-.057-.308.01-.008.125.027.026.009-.072-.16.058.027-.04-.155-.005-.112-.076-.248.036.001.183.292.257.407-.127-.44-.173-.153-.221-.55-.065-.058-.005.118-.016.106-.043-.05-.036-.17-.16-.314-.02-.024-.047.093-.073-.068a.5.5 0 0 1 .024-.12c.032.009.036.107.05.11.012.001-.013-.106-.009-.106.037-.007.03.088.04.073.02-.035.037-.413.1.075-.116-.399-.06-.051 0 .116.016.041.04.045.065.1.032.071.049.162.067.2.02.04-.009-.208.096.132-.011-.186-.163-.472-.156-.646.012-.33.14.215.178.27.007.014.022-.042.027-.033.005.016.106.336.147.353.039.02-.047-.11-.023-.13.016-.002.206.34.132.141-.053-.13-.22-.376-.15-.428.07.19.16.39.265.589a6.485 6.485 0 0 1-.055-.353c.103.209.166.418.328.604-.17-.53.17.124.195.127.01 0-.025-.232-.026-.266.127.16.487.64.392.3.012.063.157.159.166.158.033-.041-.19-.297-.116-.273.084.027.07.13.133.207.329.384.498.14.792.543l.008-.04c.354.422.739.849 1.132 1.266.244.1.737.472.949.68.042.043.213.278.222.302.015.04-.159-.108-.113-.015.01.02.36.376.386.31-.036-.042-.192-.14-.202-.17-.068-.203 1.02.884 1.12.903l-.027-.113.199.215-.136-.038c.076.083.202.172.267.253.01.013-.066.024-.038.052.03.028.083-.03.134.002.057.036.248.271.328.338.304.25.643.47.922.744-.359-.214-.09.092.017.145.024.01.135-.105.423.18.182.179-.172.194.249.383-.144-.327.105-.11.308.042.009.006.035.03.07.06l.102-.118c-.063.381.051-.051.065-.075.02-.038.041.058.078-.004.002-.007-.058-.044.003-.135.127-.19.175-.106.233-.182.002-.008-.062-.027.026-.163.29-.448.035.034.03.054-.006.029.31.058-.037.35.115-.1.216-.037.229-.049.013-.014.155-.22.164-.238.05-.128-.083-.09-.079-.12.006-.024.282-.205.14-.418.267.025.104.199-.028.42.014.058.219-.13.23-.143.223-.281-.044-.244-.087-.38-.023-.072.166-.106-.046-.107.187-.264.14-.051.164-.057.036-.011.07-.13.084-.137.02-.01.02.083.086.032.01-.009.016-.175-.126-.073.152-.168.075-.207.255-.159-.151-.327.22.032.272-.005.14-.098-.083-.222-.088-.237-.024-.098.33-.397.373-.508.113.15-.226.281-.244.36-.057.26.281-.201.35.079l-.01-.288c.197-.008.13.177.312-.131-.063-.126-.143.206-.182.095-.022-.066.097-.232.075-.255-.026-.027-.108.144-.135.085-.057-.127.466-.58.19-.135.077-.097.27-.036.331-.114a.094.094 0 0 0 .019-.046c.004-.035-.07-.038-.14-.054-.06-.013-.117-.036-.117-.096 0-.057.05-.149.198-.297.1.062-.145.231-.145.244.004.016.238.141.256.144.054.002.388-.623.583-.65-.155-.05.32-.425.325-.502 0-.021-.113-.032-.109-.052.028-.124.353-.252.447-.356.105-.116.032-.152.037-.159.048-.05.054.026.082-.006.043-.052.339-.383.344-.407 0-.007-.115-.01-.066-.093.008-.015.086.06.235-.185.18-.295-.26.095-.255-.084.27-.065.141-.16.19-.197.017-.013.22-.043.326-.177l-.186.315c.095-.072.224-.267.309-.325.041-.028.102.072.168-.009.013-.017-.139-.254-.224.029-.088-.045.046-.104.064-.166 0-.013-.097-.138.03-.133.03.003.264.447.338-.153.002-.02-.081-.014-.08-.034.002-.013.103-.095.108-.112.003-.017-.087-.01-.086-.031.01-.109.283-.038.146.09l.195-.08c-.191-.07.023-.108.076-.178.34-.443-.001-.24.012-.352.023-.18.196.112.272-.119.006-.02-.282.096.133-.254l-.144.187c.171.08.179-.22.19-.236.12-.17.075-.024.213-.318.012-.026.089-.044.111-.103.096-.242-.262.209-.33.176-.033-.018.389-.472.417-.477.12-.02-.162.228-.042.235.046-.003.58-.691.73-.802.172-.124.42-.041.212-.21.243.122.138-.028.157-.045.23-.214.234-.217.4-.432.036-.047.131-.035.136-.059.002-.014-.079-.05-.058-.11.03-.085.437-.394.5-.395.06.002-.13.168-.04.183.127-.125.235-.27.365-.397.054-.053.069.007.092-.015.01-.01.152-.23.13-.233-.054-.009-.582.6-.508.387.014-.041.208-.072.078-.147.52-.504 1.04-1.004 1.568-1.508-.21.37-.597.64-.892.967-.042.045-.19.182-.116.21.268-.258.556-.618.834-.842.01-.008.03.063.068.038.07-.047.17-.3.22-.314.008.006-.025.156.045.157.185 0-.029-.208.042-.277.056-.052.52-.333.54-.483.022-.158-.308.242-.342.165.184-.303.494-.502.715-.742.002-.004-.077-.006-.033-.063.08-.1.169-.074.223-.11.058-.04.215-.216.26-.22.006 0 .037.084.034.091-.046.094-.154.055-.162.06-.028.023-.02.074-.045.095-.04.036-.09.034-.143.082-.035.034.055.046.02.078-.014.011-.276.04-.152.158.04.036 1.142-1.006 1.216-1.138l-.317.24c.222-.16.34-.46.504-.36.694-.69 1.39-1.374 2.087-2.058.133-.114.146.016.323-.205-.08.036-.155.064-.233.097.118-.084.618-.529.671-.61.008-.01-.048-.078.063-.199.098-.106.165-.084.228-.13.054-.04.091-.1.108-.11.012-.01.046.009.076-.012.095-.067-.053-.066.123-.073l-.047.067c.111-.087.284-.187.166-.027-.02.027-.029-.015-.047.003-.686.714-.08.197.122-.096.107-.034.427-.41.448-.419.028-.008.001.078.107.017.024-.015.462-.515.347-.3-.028.049-.252.266-.306.325.208-.07.381-.471.419-.503.145-.133-.185.324.123.011.233-.237-.032-.049.032-.158.037-.06.358-.302.277-.345.08-.098.067-.017.08-.026.014-.01.17-.214.24-.264.01-.005.024.044.034.038.02-.012.175-.192.18-.204.003-.005-.067.014-.059-.009.012-.027.183-.2.183-.213-.001-.022-.194.2-.195.14.105-.096.232-.27.265-.35a.943.943 0 0 1-.128.144c-.033-.05.16-.247.131-.153.023-.06-.017-.036-.012-.074.002-.01.062-.076.066-.093-.003 0-.08.05-.077.031.007-.037.192-.219.21-.23Zm-16.047 26.1c.063-.002-.005.138-.08.19l-1.484 1.568-1.596-.896a.295.295 0 0 1-.085-.075c-.035-.055.023-.038.12.004l1.547.87 1.438-1.521a.672.672 0 0 1 .14-.14Zm-4.849.212c.036-.108.204.17.268.208.01.007.072-.06.13-.02l.01.021c.004.03-.005.08 0 .085.024.024.468.324.245.282-.052-.01-.605-.513-.653-.576Zm-.161.03c-.003-.008.04-.093.105-.008.076.096-.064.085-.105.007Zm-.735-.598c.054.021.146.138.168.178 0 .01-.09.068-.023.123.055.043.052-.114.14-.006.088.108-.097.043-.092.055.01.019.192.124.146.17-.034.034-.178-.148-.226-.18-.062-.041-.05.082-.127-.018-.049-.063.073-.138.067-.155-.005-.013-.24-.133-.074-.17l.02.003Zm6.554-.403c-.037-.057-.158.109-.167.11-.015-.001-.17-.09-.19-.081-.029.016-.398.424-.491.462.372.002.192-.117.205-.132.032-.031.159-.06.205-.13l-.118.274c.068-.045.583-.464.556-.503Zm.438.048c.126-.023-.107.213-.084.085a.843.843 0 0 1 .084-.085Zm-6.801-.013c-.006-.04-.484-.542-.262-.206.008.016.268.322.262.206Zm-.84-.244c.093-.01.188.166.248.245-.083.003-.203-.162-.249-.245Zm7.362.03c-.038.033-.145.084-.159.12-.04.104.186-.047.159-.12Zm-6.418.061c-.033-.083-.228-.18-.207-.108.014.045.246.204.207.108Zm-.618-.2c.034.029.153.196.162.2.149.049-.047-.18-.162-.2Zm-.619.066c.057.023.124-.047.163.011.116.174-.018.102-.163-.012Zm7.878-.097c-.09-.005-.186.11-.101.122.007 0 .126-.072.101-.122Zm-7.999-.07c.013-.002.094-.272.188.066.013.05-.137-.019-.132-.001.01.037.023.062.036.078-.109-.088-.215-.191-.215-.213.003-.1.118.07.123.07Zm.013-.238c.025-.038.222.113.158.206-.03-.044-.173-.18-.158-.206Zm1.283.132c.038-.02-.025-.055-.049-.104-.026-.054-.114-.183-.237-.207.096.106.192.21.286.311Zm6.951-.139c-.035.025.017.137.024.136.06-.005.07-.148-.024-.136Zm-7.584.126c.036-.052-.158-.146-.148-.093.006.034.126.127.148.093Zm7.698-.404c-.012.007-.181.16-.144.19.068-.024.277-.247.144-.19Zm.285-.05c-.098.005-.152.2-.1.18.038-.013.196-.184.1-.18Zm-7.814.056c-.007-.224-.085-.03-.021.105.075-.02.023-.069.021-.105Zm7.855-.18c.014-.157-.145.057-.204.13.038.037.199-.116.204-.13Zm-8.284-.085c-.066.003.074.193.09.2.089.031.035-.209-.09-.2Zm.404.1c-.032-.197-.2-.07-.118.017.032.034.122.011.118-.017Zm-1.585-.336c.098.157-.044.03-.056.046-.034.048.202.239.228.307.106-.036-.124-.159-.14-.214v-.001c.001-.017.308-.005-.032-.138Zm1.063.117c-.012-.005-.042.142.024.143.05 0 .02-.122-.024-.143Zm9.121-.258c.024.116-.33.422-.35.324-.015-.08.25-.307.35-.324Zm-8.848.194c-.01-.05-.34-.36-.347-.253 0 .039.219.176.228.19.006.02-.11.023-.003.11.015-.026.125-.03.122-.047ZM6.3 24.238c-.102-.109-.142.084-.036.11a.304.304 0 0 0 .036-.11Zm-.066-.084c.025-.184-.32-.165-.183-.043a.669.669 0 0 0 .183.043Zm10.805-.41c-.044.033-.118.165-.155.122.044-.07.074-.152.155-.122Zm-11.607-.468c.016.097.148.175.136.11-.004-.017-.114-.138-.136-.11Zm11.239.13c.052-.028.12.007.122-.023 0-.01-.053-.057-.048-.091l-.074.113Zm.214-.327-.12.183c.059-.057.214-.13.12-.184v.001Zm.217-.231c-.377.123.034.224.046.158a.66.66 0 0 0-.046-.158Zm.336-.11c-.022.008-.099.176-.074.204.098-.054.178-.235.075-.204Zm.223-.279c-.04.016-.098.116-.068.156.054-.027.16-.19.068-.156ZM4.47 22.04c.059.048.28.422.31.403.031-.02-.254-.408-.31-.403Zm14.247-.428c.139-.038-.136.262-.107.117.002-.008.098-.113.107-.117Zm-14.75-.41c-.012.012.073.14.082.149.143.09-.047-.18-.081-.149Zm15.395-.345c.026.045-.086.274-.154.235-.093-.055.117-.204.154-.235Zm-15.55.072a.068.068 0 0 1-.025.04c.005-.034.014-.044.025-.04Zm15.78-.73c.296-.176-.734 1.02-.288.205 0 .057.002.114.003.17.094-.071.176-.195.132-.233.008.004.02.006.033.005.013-.002.071-.117.12-.147Zm-16.566-.247c-.043-.138.119-.134.132-.004.002.015-.073.19-.132.004ZM2.82 19.5c.041-.012.097.122.12.18-.032.022-.086-.132-.12-.18Zm7.36.001c-.014.015.094.105.101.107.054.015-.056-.15-.101-.107Zm-7.817-.835c.004.004.058.11.059.115.009.124-.152-.195-.059-.115Zm6.692-.142c-.094.021.17.27.144.165a.916.916 0 0 0-.144-.165Zm-.244-.362c.099-.006.25.233.19.22-.014-.003-.237-.21-.19-.22Zm4.353-.099c-.03-.126-.266.204-.196.306.046-.031.199-.29.196-.305Zm.383-.337c-.07.107.065.392.13.24.006-.017-.09-.226-.13-.24Zm8.397-.318c.008.06-.125.256-.195.254.04-.095.135-.17.195-.254Zm-20.175-.01c.024-.017.116.174.118.187.007.08-.115-.093-.118-.188Zm20.27-.232c.028.04-.092.202-.144.192.013-.065.102-.132.143-.192Zm-20.357.072c-.075-.035-.112-.217-.165-.304-.074-.117-.34-.254-.128-.254.097.195.19.373.293.558Zm12.65-.287c-.155.01-.26.155-.12.214.12-.159-.116-.064.12-.214Zm-12.966-.07c.018.029.056.157.081.209-.076-.027-.144-.31-.08-.21Zm.4-.147c-.03.059.074.19.105.287.03-.072-.068-.194-.105-.287Zm12.467-.546c.06-.025.056.056.076.06.008 0 .2-.075.117.05-.128.191-.13-.078-.21.014-.009.012-.07.254-.043.26.004-.004.03-.067.044-.07.055-.008.09.047.096.045.018-.009.17-.356.275-.339.033.006-.292.503-.32.514-.016.005-.147-.11-.17-.109-.01.001-.113.226-.145.24a.114.114 0 0 1-.023.006c.064.007-.077.17-.12.127-.014-.018.086-.12.096-.125h.01c-.07-.02.252-.403.107-.381.052-.146.098.105.127-.011.011-.04-.123-.192.082-.28h.001Zm-12.524.615c-.001.007.092.203.114.19-.037-.088-.098-.265-.114-.19Zm.08-.217c-.02.049.067.217.106.285.027-.06-.075-.188-.106-.285Zm13.097-.024c.017-.127-.206.015-.195.084.005.035.187-.03.195-.084Zm-13.347-.265c-.01.075.13.285.127.238-.002-.014-.122-.278-.127-.238Zm13.566-1.102c.07-.044.206-.046.196.001-.005.013-.158.093-.205.159-.137.192-.025.206-.031.218-.008.013-.155.083-.206.147-.125.16-.14.269-.379.435.056-.163-.107-.183.04-.295l.013.07c.131-.225.387-.392.577-.617.05-.057-.092-.062-.005-.118Zm8.414-.055c.048.029-.134.44-.157.453-.14.035.054-.411.157-.453Zm-7.725.156c-.014.006-.104.132-.067.155.057-.027.158-.193.067-.155Zm8.134-.414c-.028.228-.181.417.101.215-.267.414-.233.18-.25.19-.022.013-.037.096-.055.102-.42.12.115-.322.204-.507Zm-22.566.164c-.03-.045-.012.167.028.178.024.005-.01-.15-.028-.178Zm22.698-.116c.064-.09.088.083.02.103-.026.007-.036-.08-.02-.103Zm-.374.045c.01-.048.12-.09.13-.037.012.07-.13.05-.13.037Zm.752-.53c.025.12-.203.313-.165.167.006-.022.139-.116.165-.168Zm.166-.388c.366-.43.043-.017-.022.111-.024.048.049.05.03.095l-.03.057c-.155.254-.346-.03.009-.333l.012.07Zm-7.922.123c-.048-.035-.144.116-.099.122.015.002.136-.094.099-.122Zm8.308-.45c.023-.014.168-.023.123.083-.105-.09-.244.02-.192.168-.12-.027-.033-.184.07-.25Zm-21.305-.068c-.102-.096-.116-.47.064-.127.046.087-.01.053-.014.053.082.21.117.133.145.158.06.054-.029.081.081.173-.174-.154-.041-.003-.066.017-.106.074-.11-.266-.19-.343-.01-.01.01.097-.02.07Zm21.063.036c.026.045-.078.174-.108.226-.028-.072.057-.161.108-.226Zm-20.833.04c.028-.045.118.1.126.125-.002.008-.162-.069-.126-.126Zm-1.943.075c.081.035.024-.069.027-.108.002-.036.033-.068-.006-.132a6.533 6.533 0 0 0-.021.24Zm1.409-.342c-.02-.083.085.086.104.138-.016.01-.101-.127-.104-.138Zm13.495-.156c.142-.007-.215.31-.122.104.004-.01.114-.102.122-.104ZM2.058 12.98c.035.099.057.3.094.385.005.01.085-.07.058.075-.024.098-.186-.356-.152-.46Zm1.963.305.05.072c.008.074-.13-.13-.05-.072Zm12.904-.256c.136-.014-.183.228-.184.264-.097-.048.15-.26.184-.264Zm-14.442.005c0-.076.054.082.06.134-.017.006-.06-.122-.06-.134Zm.318-.42c.024.006.078.264.1.32-.041-.029-.136-.325-.1-.32Zm22.84-.018c-.015.01-.283.394-.134.306.045-.027.275-.385.135-.306ZM2.68 12.4c.003-.007.085.015.082.068-.003.175-.099.051.093.434-.108-.16-.044-.003-.077-.032-.026-.025-.037-.125-.057-.063.011-.082-.05-.388-.041-.407Zm-.27.121a.94.94 0 0 1 .032.171c-.012.1-.072-.144-.033-.17Zm.072.013c.016-.004.037.12.038.135-.006.074-.044-.088-.038-.135Zm23.553-.27c-.036.04-.112.15-.09.187.026.045.122-.13.09-.186Zm-7.487-.177c-.038.06-.172.175-.154.231.048-.069.247-.183.154-.231Zm-.565-.201c.658-.839.67-.526-.003.078-.053-.041-.037-.026.003-.078Zm7.944-.091c.013-.018.322-.293-.017-.099-.018.012-.114.263-.007.212.075-.035.014-.099.024-.113Zm.746-.667c-.022.01-.405.498-.297.538.021-.054.448-.609.297-.538Zm-.134.31c-.039.046.01.136.022.133.052-.017.056-.158-.022-.133Zm-7.396.012c-.163.039-.022.143.042.07.022-.026-.036-.07-.042-.07Zm.137-.138c-.024.042-.124.083-.129.091-.028.078.161.057.13-.09Zm8.09-1.536c-.023.001-.223.219-.232.23-.198.247-.526.74-.71 1.018-.048.072.01.065-.009.097-.015.026-.061-.055-.092.047-.014.048.134-.018.13.02-.003.024-.087.092-.084.137.002.014.127-.025.14-.054.02-.04-.053-.044-.028-.085.087-.134.2-.225.28-.35.007-.011-.084.047-.022-.048.01-.015.122-.066.19-.188.008-.389.28-.444.436-.824Zm-.597 1.37c.024-.042-.014-.171-.07-.1.012.033.02.192.07.1Zm-7.408-.142c-.043.036.028.148.037.148.086-.008.04-.158-.037-.148Zm-.449-.112c.024.07-.073.146-.132.202-.025-.04.1-.15.132-.202Zm8.006-.11c-.034.021-.08.112-.112.152.155-.087-.008.018.065.067.061-.09.222-.333.047-.22Zm-7.608-.278c.091.048-.14.184-.19.257-.094-.05.14-.185.19-.257Zm7.675.055c-.022.033-.1.176-.09.188.034.04.118-.144.09-.188Zm.514-.573c.007-.007.132-.096.132-.052-.263.52-.479.438-.132.052Zm-7.855.016c.139-.04-.158.247-.116.11.003-.006.108-.108.116-.11Zm.788-.108c-.056-.055-.21.175-.085.136.031-.01.102-.116.085-.136Zm-.15-.538c.016.075-.13.19-.192.251-.02-.087.12-.176.192-.25Zm7.255.093c.056-.043.057-.17-.013-.095-.061.067.007.098.013.095Zm-6.33-.735c.034.04-.119.133-.154.18-.034-.039.117-.13.155-.18Zm7.153-.486c-.021.042-.114.152-.103.175.015.029.136-.137.103-.175Zm-.13-.023c-.01-.052-.114.095-.128.152.027.042.129-.145.127-.152Zm.59-1.343c-.053.043-.11.24-.093.309-.011 0-.033.01-.066.035-.044.037-.912 1.38-.264.532.02-.026-.04-.016.038-.127.005-.007.038.012.054-.01.039-.054.237-.334.25-.41.005.003.012.003.022-.002.085-.039.095-.356.058-.327Zm-6.322.79a3.529 3.529 0 0 0-.303.254c-.06.188.53-.336.303-.255Zm.424-.247c-.06.04-.255.25-.14.198.02-.011.17-.167.14-.198Zm6.105-.383c.015.045-.156.257-.184.251.055-.095.116-.173.184-.25Zm-4.127-1.789c-.25.184-.42.425-.617.645-.033-.138-.239.374-.13.065-.08.123-.93 1.025-1.023 1.08-.03.017-.203-.14-.04-.177.022-.005.014.09.035.089.014-.003.237-.185.246-.2.005-.015-.064-.049-.06-.064.004-.018.181-.106.247-.172.125-.124.091-.174.101-.185.03-.03.112-.053.171-.112.307-.312.734-.799 1.07-.969Zm4.043 1.474c-.005.003-.117.148-.068.154.072.008.114-.183.068-.154Zm.273-.219c.014-.008.21.077.061.174-.026.016-.007-.116-.13.046.08-.13-.017-.165.069-.22Zm.348-.253c.025.018-.07.188-.08.199-.078.07.034-.146.08-.199Zm.33-.493c.02-.205.15-.145.146-.129-.046.204-.07.03-.077.032-.013.01-.042.156-.069.097Zm.043-.627c.023-.011.018.074-.005.104-.042.052-.067-.066.005-.104Zm.513-.3c.093-.08-.112.28-.079.137.003-.008.073-.131.08-.138Zm.348-.585c-.004.004-.007.007-.01.008.009.06-.268.504-.287.519-.116.105.24-.496.257-.514a.067.067 0 0 1 .02-.012c0-.032.056-.148.097-.14-.022.035-.068.13-.077.14Zm-.444.144c.014.068 0 .102-.07.206.082-.174-.038-.043.07-.206Zm-3.8-.332c.068-.14-.276.198-.28.22.035.01.271-.204.28-.22Zm-.413.026c.07.011-.137.18-.148.186-.085.036.065-.16.148-.186Zm4.541-.246c-.028.041-.104.169-.122.152.033-.06.087-.155.122-.152Zm.406-.234a.68.68 0 0 1-.084.3c-.11.137.076-.3.084-.3Zm-3.663.05c-.038.048-.178.153-.156.182.038-.049.177-.154.156-.182Zm-.272-.174c-.01.006-.21.187-.19.207.037-.021.312-.291.19-.207Zm-.167.114c.192-.06.38-.51.186-.27-.004.005.081-.005-.009.078-.008.007-.07-.017-.161.108-.018.026-.02.085-.016.084Zm1.104-.963c-.037.026-.522.564-.583.653.093-.062.591-.582.61-.619.003-.009-.023-.036-.027-.034Zm.129.545c-.083.016-.03.145.04.07.019-.022-.03-.07-.04-.07Zm.562-.432c-.045.042-.18.172-.175.214.04-.055.184-.175.175-.214Zm2.554-.178c-.012.094-.106.273-.172.383-.04-.024.145-.307.172-.383Zm-3.67.074c-.012.07-.154.195-.226.276-.052-.025.181-.218.227-.276Zm.684.155c-.128.074.03.112.067.015-.001-.006-.06-.017-.067-.015Zm.373-.524c.177-.03-.032.153-.17.167l-.02.123c-.157-.04.01.114-.169.133.033.222.3-.327.469-.303-.461.494.408-.249-.074-.023.319-.24.063-.11.082-.17.02-.063.186-.199.14-.223l-.258.296Zm-.683.305c-.008-.107.29-.333.148-.132-.014.019-.113.07-.148.132Zm.722-.668c-.021.111-.118.144-.214.249-.025.027.002.036 0 .04-.044.05-.036-.006-.065.024-.022.024-.355.427-.345.342.009-.062.545-.574.624-.655Zm.356.159c-.013.01-.186.229-.157.23.038-.023.292-.336.157-.23Zm.324.004c-.034.045-.142.151-.159.18-.058.1.163-.108.16-.18Zm-.004-.414c-.037.035-.05.083-.08.114-.049.048-.037-.017-.04-.014-.076.056-.091.188.043.049l-.107.174c.202-.167.105-.213.156-.264.07-.07.136-.018.144.015.017-.1.242-.358.373-.525-.14.134-.353.318-.489.45Zm-.245.079c-.023.015-.186.185-.174.22.111-.06.226-.255.174-.22Zm.556.063c-.12.034-.047.186.02.056.002-.008-.015-.056-.02-.056Zm.049-.21c-.192.267-.171.133-.229.163-.12.062.046.13.062.123.06-.03.152-.244.167-.286Zm1.82-.137c.033-.017-.02.122-.055.163-.078.09.046-.157.055-.163Zm-1.716-.5c-.162.115-.243.333-.259.348-.021.02-.026-.038-.032-.036a6.893 6.893 0 0 0-.236.265c-.006.01.087.004.058.067.061-.123.473-.547.488-.575.008-.018-.157.072.056-.11l-.075.041Zm-.32.395c.075-.044-.072.125-.118.161-.101.078.11-.156.118-.161Zm-.134-.092c-.111.096-.298.367-.27.223.016-.074.086-.078.092-.084.064-.059.174-.188.178-.139Zm.073-.21c.128-.073-.302.362-.338.388.014-.048.318-.375.338-.389Zm-.34.265c.027-.01.025.042-.023.094-.034.006-.039-.073.024-.094Zm.76-.207c-.067.076-.193.191-.198.25.065-.071.191-.19.198-.25Zm-.443-.086c-.012.02-.308.349-.291.26.015-.063.35-.358.291-.26Z"/></svg>