<svg xmlns="http://www.w3.org/2000/svg" width="174" height="41" fill="none" viewBox="0 0 174 41"><path fill="#FF4500" d="M20.187.641c-11.046 0-20 8.954-20 20a19.944 19.944 0 0 0 5.858 14.143l-3.81 3.809c-.755.755-.22 2.048.849 2.048h17.103c11.047 0 20-8.954 20-20s-8.953-20-20-20Z"/><path fill="url(#a)" d="M31.524 25.123a4.67 4.67 0 1 0 0-9.341 4.67 4.67 0 0 0 0 9.34Z"/><path fill="url(#b)" d="M8.85 25.123a4.67 4.67 0 1 0 0-9.341 4.67 4.67 0 0 0 0 9.34Z"/><path fill="url(#c)" d="M20.198 34.463c7.364 0 13.334-4.477 13.334-10s-5.97-10-13.334-10c-7.363 0-13.333 4.478-13.333 10 0 5.523 5.97 10 13.333 10Z"/><path fill="url(#d)" d="M16.258 23.508c-.078 1.681-1.202 2.292-2.511 2.292-1.31 0-2.308-.913-2.23-2.594.078-1.682 1.202-2.782 2.511-2.782 1.31 0 2.307 1.404 2.23 3.086v-.002Z"/><path fill="url(#e)" d="M24.141 23.508c.078 1.681 1.202 2.292 2.511 2.292 1.31 0 2.307-.913 2.23-2.594-.078-1.682-1.202-2.782-2.511-2.782-1.31 0-2.308 1.404-2.23 3.086v-.002Z"/><path fill="#FFC49C" d="M14.934 22.756c.286 0 .518-.253.518-.565 0-.312-.232-.565-.518-.565-.287 0-.519.253-.519.565 0 .312.232.565.519.565ZM27.263 22.756c.287 0 .519-.253.519-.565 0-.312-.232-.565-.519-.565-.286 0-.518.253-.518.565 0 .312.232.565.518.565Z"/><path fill="url(#f)" d="M20.198 27.108c-1.622 0-3.177.08-4.614.226a.368.368 0 0 0-.306.507 5.335 5.335 0 0 0 9.84 0 .369.369 0 0 0-.305-.507 45.874 45.874 0 0 0-4.615-.226Z"/><path fill="url(#g)" d="M27.5 13.104a3.31 3.31 0 1 0 0-6.618 3.31 3.31 0 0 0 0 6.618Z"/><path fill="url(#h)" d="M20.15 14.886c-.396 0-.716-.165-.716-.42a5.384 5.384 0 0 1 5.377-5.379.716.716 0 1 1 0 1.434 3.947 3.947 0 0 0-3.942 3.942c0 .256-.32.42-.717.42l-.002.003Z"/><path fill="#842123" d="M11.82 23.354c.073-1.585 1.127-2.622 2.35-2.622 1.16 0 2.056 1.183 2.09 2.654.031-1.645-.95-2.962-2.232-2.962-1.282 0-2.433 1.12-2.511 2.815-.078 1.695.92 2.561 2.23 2.561h.096c-1.193-.03-2.093-.887-2.02-2.444l-.002-.002ZM28.576 23.354c-.072-1.585-1.126-2.622-2.35-2.622-1.16 0-2.055 1.183-2.089 2.654-.031-1.645.95-2.962 2.232-2.962 1.309 0 2.433 1.12 2.51 2.815.079 1.695-.92 2.561-2.229 2.561h-.096c1.193-.03 2.093-.887 2.02-2.444l.002-.002Z"/><path fill="#FF4500" d="m64.549 13.698-2.957 7.028c-.372-.187-1.258-.396-2.095-.396-.837 0-1.676.209-2.491.605-1.608.815-2.794 2.444-2.794 4.794v12.869h-7.358v-25.04h7.149v3.514h.14c1.676-2.234 4.237-3.885 7.567-3.885 1.211 0 2.376.233 2.841.511h-.002ZM63.126 26.15c0-7.237 4.96-12.963 12.387-12.963 6.728 0 11.548 4.911 11.548 11.823 0 1.21-.116 2.35-.372 3.445H69.831c.769 2.63 3.05 4.678 6.472 4.678 1.886 0 4.564-.675 6.007-1.792l2.282 5.493c-2.12 1.442-5.354 2.14-8.195 2.14-7.94 0-13.271-5.12-13.271-12.822v-.003Zm17.158-2.304c0-3.211-2.189-4.911-4.867-4.911-3.028 0-5.076 1.953-5.728 4.911h10.595ZM150.194 2.308c2.469 0 4.492 2.025 4.492 4.49 0 2.466-2.026 4.491-4.492 4.491-2.467 0-4.493-2.025-4.493-4.49 0-2.466 2.026-4.491 4.493-4.491Zm3.677 36.292h-7.358V13.558h7.358V38.6ZM107.476 2.76l-.022 13.173h-.141c-2.026-1.932-4.214-2.724-7.077-2.724-7.055 0-11.735 5.679-11.735 12.869 0 7.19 4.377 12.894 11.501 12.894 2.981 0 5.797-1.024 7.614-3.352h.209v2.98h7.009V2.76h-7.358Zm.349 29.87h-.243l-1.642-1.705c-1.069 1.066-2.531 1.706-4.239 1.706-3.604 0-6.125-2.85-6.125-6.546s2.52-6.545 6.125-6.545c3.603 0 6.124 2.85 6.124 6.545v6.546ZM135.576 2.76l-.022 13.173h-.14c-2.026-1.932-4.215-2.724-7.078-2.724-7.055 0-11.735 5.679-11.735 12.869 0 7.19 4.377 12.894 11.501 12.894 2.981 0 5.798-1.024 7.614-3.352h.21v2.98h7.008V2.76h-7.358Zm.315 29.87h-.244l-1.642-1.705c-1.068 1.066-2.53 1.706-4.239 1.706-3.604 0-6.124-2.85-6.124-6.546s2.52-6.545 6.124-6.545c3.604 0 6.125 2.85 6.125 6.545v6.546ZM168.142 13.558h5.379v6.26h-5.379V38.6h-7.358V19.818h-5.354v-6.26h5.354V6.752h7.358v6.806Z"/><defs><radialGradient id="a" cx="0" cy="0" r="1" gradientTransform="matrix(175.189 0 0 35.1726 88.675 8.639)" gradientUnits="userSpaceOnUse"><stop stop-color="#FEFFFF"/><stop offset=".4" stop-color="#FEFFFF"/><stop offset=".51" stop-color="#F9FCFC"/><stop offset=".62" stop-color="#EDF3F5"/><stop offset=".7" stop-color="#DEE9EC"/><stop offset=".72" stop-color="#D8E4E8"/><stop offset=".76" stop-color="#CCD8DF"/><stop offset=".8" stop-color="#C8D5DD"/><stop offset=".83" stop-color="#CCD6DE"/><stop offset=".85" stop-color="#D8DBE2"/><stop offset=".88" stop-color="#EDE3E9"/><stop offset=".9" stop-color="#FFEBEF"/></radialGradient><radialGradient id="b" cx="0" cy="0" r="1" gradientTransform="matrix(175.189 0 0 35.1726 88.675 -54.62)" gradientUnits="userSpaceOnUse"><stop stop-color="#FEFFFF"/><stop offset=".4" stop-color="#FEFFFF"/><stop offset=".51" stop-color="#F9FCFC"/><stop offset=".62" stop-color="#EDF3F5"/><stop offset=".7" stop-color="#DEE9EC"/><stop offset=".72" stop-color="#D8E4E8"/><stop offset=".76" stop-color="#CCD8DF"/><stop offset=".8" stop-color="#C8D5DD"/><stop offset=".83" stop-color="#CCD6DE"/><stop offset=".85" stop-color="#D8DBE2"/><stop offset=".88" stop-color="#EDE3E9"/><stop offset=".9" stop-color="#FFEBEF"/></radialGradient><radialGradient id="c" cx="0" cy="0" r="1" gradientTransform="matrix(185.106 0 0 39.8689 88.72 4.653)" gradientUnits="userSpaceOnUse"><stop stop-color="#FEFFFF"/><stop offset=".4" stop-color="#FEFFFF"/><stop offset=".51" stop-color="#F9FCFC"/><stop offset=".62" stop-color="#EDF3F5"/><stop offset=".7" stop-color="#DEE9EC"/><stop offset=".72" stop-color="#D8E4E8"/><stop offset=".76" stop-color="#CCD8DF"/><stop offset=".8" stop-color="#C8D5DD"/><stop offset=".83" stop-color="#CCD6DE"/><stop offset=".85" stop-color="#D8DBE2"/><stop offset=".88" stop-color="#EDE3E9"/><stop offset=".9" stop-color="#FFEBEF"/></radialGradient><radialGradient id="d" cx="0" cy="0" r="1" gradientTransform="matrix(92.9288 0 0 27.444 91.377 29.141)" gradientUnits="userSpaceOnUse"><stop stop-color="#F60"/><stop offset=".5" stop-color="#FF4500"/><stop offset=".7" stop-color="#FC4301"/><stop offset=".82" stop-color="#F43F07"/><stop offset=".92" stop-color="#E53812"/><stop offset="1" stop-color="#D4301F"/></radialGradient><radialGradient id="e" cx="0" cy="0" r="1" gradientTransform="matrix(-92.9288 0 0 -27.444 82.924 29.141)" gradientUnits="userSpaceOnUse"><stop stop-color="#F60"/><stop offset=".5" stop-color="#FF4500"/><stop offset=".7" stop-color="#FC4301"/><stop offset=".82" stop-color="#F43F07"/><stop offset=".92" stop-color="#E53812"/><stop offset="1" stop-color="#D4301F"/></radialGradient><radialGradient id="f" cx="0" cy="0" r="1" gradientTransform="matrix(146.902 0 0 55.2388 86.434 46.227)" gradientUnits="userSpaceOnUse"><stop stop-color="#172E35"/><stop offset=".29" stop-color="#0E1C21"/><stop offset=".73" stop-color="#030708"/><stop offset="1"/></radialGradient><radialGradient id="g" cx="0" cy="0" r="1" gradientTransform="matrix(192.878 0 0 43.6201 88.745 2.053)" gradientUnits="userSpaceOnUse"><stop stop-color="#FEFFFF"/><stop offset=".4" stop-color="#FEFFFF"/><stop offset=".51" stop-color="#F9FCFC"/><stop offset=".62" stop-color="#EDF3F5"/><stop offset=".7" stop-color="#DEE9EC"/><stop offset=".72" stop-color="#D8E4E8"/><stop offset=".76" stop-color="#CCD8DF"/><stop offset=".8" stop-color="#C8D5DD"/><stop offset=".83" stop-color="#CCD6DE"/><stop offset=".85" stop-color="#D8DBE2"/><stop offset=".88" stop-color="#EDE3E9"/><stop offset=".9" stop-color="#FFEBEF"/></radialGradient><radialGradient id="h" cx="0" cy="0" r="1" gradientTransform="matrix(171.701 0 0 41.648 144.395 35.735)" gradientUnits="userSpaceOnUse"><stop offset=".48" stop-color="#7A9299"/><stop offset=".67" stop-color="#172E35"/><stop offset=".75"/><stop offset=".82" stop-color="#172E35"/></radialGradient></defs></svg>