<svg xmlns="http://www.w3.org/2000/svg" width="181" height="41" fill="none" viewBox="0 0 181 41"><path fill="red" d="M56.786 6.775A7.172 7.172 0 0 0 51.73 1.74C47.242.516 29.29.516 29.29.516s-17.953 0-22.44 1.177c-2.41.658-4.394 2.635-5.056 5.082-1.18 4.47-1.18 13.741-1.18 13.741s0 9.318 1.18 13.741a7.172 7.172 0 0 0 5.055 5.036c4.536 1.223 22.441 1.223 22.441 1.223s17.953 0 22.44-1.176a7.172 7.172 0 0 0 5.056-5.036c1.18-4.47 1.18-13.74 1.18-13.74s.048-9.319-1.18-13.79Z"/><path fill="#fff" d="M23.574 11.951v17.13l14.928-8.565-14.928-8.564Z"/><path fill="#282828" d="M83.671 37.363c-1.134-.753-1.937-1.93-2.41-3.576-.471-1.6-.708-3.765-.708-6.4v-3.624c0-2.682.284-4.847.803-6.494.567-1.647 1.418-2.823 2.552-3.576 1.18-.753 2.692-1.13 4.582-1.13 1.843 0 3.354.377 4.488 1.13 1.134.752 1.937 1.976 2.457 3.576.52 1.6.803 3.765.803 6.494v3.624c0 2.682-.236 4.8-.756 6.447-.52 1.6-1.323 2.823-2.457 3.576-1.133.753-2.692 1.13-4.63 1.13-1.983-.047-3.59-.424-4.724-1.177Zm6.378-3.953c.33-.8.473-2.164.473-4V21.6c0-1.789-.142-3.106-.473-3.954-.33-.846-.85-1.223-1.653-1.223-.756 0-1.323.424-1.607 1.223-.33.848-.472 2.165-.472 3.954v7.811c0 1.835.142 3.2.472 4 .284.8.85 1.224 1.654 1.224.756 0 1.276-.377 1.606-1.224ZM170.883 28.704c0 1.6.047 2.824.141 3.624.095.8.284 1.412.615 1.741.283.377.755.565 1.417.565.85 0 1.417-.33 1.748-.989.331-.658.472-1.74.52-3.294l4.866.283c.047.235.047.517.047.894 0 2.306-.614 4.047-1.89 5.176-1.275 1.13-3.071 1.694-5.386 1.694-2.787 0-4.724-.894-5.858-2.635-1.134-1.741-1.701-4.423-1.701-8.094v-4.377c0-3.764.567-6.494 1.748-8.235 1.182-1.74 3.166-2.588 5.953-2.588 1.937 0 3.449.377 4.488 1.082 1.04.706 1.748 1.836 2.173 3.295.426 1.505.615 3.576.615 6.211v4.283h-9.496v1.364Zm.708-11.812c-.283.377-.472.942-.567 1.742-.094.8-.141 2.023-.141 3.67v1.789h4.157v-1.789c0-1.6-.047-2.823-.142-3.67-.094-.847-.33-1.412-.614-1.742-.283-.329-.756-.517-1.323-.517-.661-.047-1.086.141-1.37.517ZM69.876 26.963l-6.425-23.2h5.622l2.268 10.494c.567 2.589.992 4.8 1.275 6.636h.142c.19-1.318.614-3.483 1.276-6.589l2.362-10.54h5.622l-6.52 23.2v11.105h-5.574V26.963h-.048ZM114.521 13.034v25.082h-4.441l-.472-3.059h-.142c-1.181 2.306-3.023 3.482-5.433 3.482-1.653 0-2.882-.564-3.685-1.647-.803-1.082-1.18-2.776-1.18-5.129v-18.73h5.668v18.4c0 1.13.142 1.93.378 2.4.237.471.662.706 1.229.706.472 0 .945-.14 1.417-.47.472-.283.803-.659.992-1.13V13.035h5.669ZM143.576 13.034v25.082h-4.441l-.472-3.059h-.142c-1.181 2.306-3.024 3.482-5.433 3.482-1.654 0-2.882-.564-3.685-1.647-.803-1.082-1.181-2.776-1.181-5.129v-18.73h5.669v18.4c0 1.13.142 1.93.378 2.4.236.471.661.706 1.228.706.473 0 .945-.14 1.418-.47.472-.283.803-.659.992-1.13V13.035h5.669Z"/><path fill="#282828" d="M129.923 8.328h-5.622v29.741h-5.528V8.328h-5.622V3.763h16.772v4.565ZM162.332 17.034c-.331-1.6-.898-2.73-1.654-3.435-.756-.706-1.842-1.083-3.165-1.083-1.04 0-2.032.283-2.929.894a5.759 5.759 0 0 0-2.079 2.306h-.047V2.493h-5.48v35.576h4.677l.567-2.353h.141c.426.847 1.087 1.506 1.985 2.024.897.47 1.842.753 2.929.753 1.937 0 3.307-.895 4.204-2.636.898-1.74 1.37-4.517 1.37-8.235v-3.953c-.047-2.87-.189-5.082-.519-6.635Zm-5.197 10.212c0 1.835-.095 3.247-.236 4.282-.142 1.035-.426 1.788-.756 2.212-.378.423-.851.658-1.418.658-.472 0-.897-.094-1.275-.329a2.72 2.72 0 0 1-.945-.988V18.869a3.85 3.85 0 0 1 .992-1.694c.473-.424.992-.659 1.512-.659.567 0 1.039.235 1.323.659.33.47.519 1.223.661 2.259.142 1.082.189 2.588.189 4.517v3.294h-.047Z"/></svg>