<svg xmlns="http://www.w3.org/2000/svg" width="139" height="41" fill="none" viewBox="0 0 139 41"><path fill="#E6650F" d="M35.734 7.378c0-1.348-1.089-2.44-2.432-2.44H8.008a2.436 2.436 0 0 0-2.432 2.44v25.364c0 1.347 1.089 2.439 2.432 2.439h25.294a2.436 2.436 0 0 0 2.432-2.44V7.379ZM40.6 32.742c0 4.041-3.267 7.318-7.297 7.318H8.008c-4.03 0-7.297-3.277-7.298-7.319V7.379C.71 3.336 3.978.06 8.008.06h25.294c4.03 0 7.297 3.276 7.297 7.318v25.364Z"/><path fill="#E6650F" d="M22.139 22.747c0 2.433-.06 4.157-.18 5.174a5.692 5.692 0 0 1-1.073 2.767c-.597.837-1.407 1.48-2.43 1.929-1.025.449-2.218.673-3.58.673-1.292 0-2.456-.21-3.49-.628-1.024-.429-1.849-1.067-2.475-1.914-.627-.848-1-1.77-1.119-2.767-.119-.997-.179-2.742-.179-5.234v-4.142c0-2.433.055-4.153.164-5.16a5.908 5.908 0 0 1 1.074-2.781c.607-.838 1.422-1.48 2.446-1.93 1.024-.448 2.217-.672 3.579-.672 1.293 0 2.45.214 3.475.643 1.034.418 1.864 1.052 2.49 1.899.627.847 1 1.77 1.119 2.767.119.996.179 2.741.179 5.234v4.142Zm-6.279-7.956c0-1.126-.064-1.844-.194-2.153-.119-.32-.372-.479-.76-.479a.87.87 0 0 0-.76.39c-.17.248-.254.996-.254 2.242v11.306c0 1.405.054 2.273.164 2.602.12.329.388.493.805.493.428 0 .701-.19.82-.568.12-.379.18-1.281.18-2.707V14.791ZM33.696 12.937v4.397l-4.444 11.47h4.444v3.977H23.421v-4.157l4.549-11.71h-4.086v-3.977h9.812ZM42.164 8.568h6.263c1.979 0 3.475.155 4.49.464 1.023.309 1.848.937 2.475 1.884.626.937.94 2.453.94 4.546 0 1.416-.225 2.403-.672 2.961-.437.559-1.307.987-2.61 1.286 1.452.33 2.436.878 2.953 1.645.517.758.776 1.924.776 3.5v2.243c0 1.635-.19 2.846-.567 3.634a2.99 2.99 0 0 1-1.775 1.615c-.815.289-2.485.434-5.01.434h-7.263V8.567Zm6.278 4.143v5.383c.269-.01.477-.015.627-.015.616 0 1.009-.15 1.178-.448.169-.31.253-1.182.253-2.617 0-.758-.07-1.287-.209-1.586-.139-.309-.323-.503-.551-.583-.22-.08-.652-.124-1.298-.134Zm0 9.152v6.774c.885-.03 1.447-.17 1.685-.419.249-.249.373-.862.373-1.839v-2.258c0-1.037-.11-1.665-.328-1.884-.219-.22-.795-.344-1.73-.374ZM64.25 20.622h-5.652V19.29c0-1.536.174-2.717.522-3.545.358-.837 1.069-1.575 2.132-2.213 1.064-.638 2.446-.957 4.146-.957 2.038 0 3.574.364 4.608 1.092 1.034.718 1.656 1.605 1.865 2.662.208 1.046.313 3.21.313 6.49v9.96h-5.861v-1.765c-.368.708-.845 1.241-1.432 1.6-.576.349-1.267.523-2.073.523a5.146 5.146 0 0 1-2.908-.882c-.875-.598-1.312-1.9-1.312-3.903v-1.63c0-1.486.233-2.497.7-3.036.468-.538 1.626-1.166 3.475-1.884 1.979-.778 3.038-1.301 3.177-1.57.14-.27.209-.818.209-1.645 0-1.037-.08-1.71-.239-2.02-.149-.318-.403-.478-.76-.478-.408 0-.661.135-.76.404-.1.26-.15.942-.15 2.049v2.079Zm1.909 2.721c-.965.708-1.526 1.301-1.685 1.78-.15.478-.224 1.166-.224 2.063 0 1.027.064 1.69.194 1.99.139.299.407.448.805.448.378 0 .622-.115.73-.344.12-.24.18-.857.18-1.854v-4.083ZM80.281 12.935l-.238 2.602c.875-1.864 2.142-2.851 3.803-2.961v6.984c-1.104 0-1.914.15-2.431.448-.517.3-.835.718-.955 1.257-.119.528-.179 1.754-.179 3.678v7.836h-6.025V12.935h6.025ZM98.893 12.935v15.283c0 2.064-.05 3.4-.15 4.008-.089.598-.422 1.231-.998 1.9-.577.677-1.383 1.19-2.416 1.54-1.024.359-2.317.538-3.878.538-1.919 0-3.46-.329-4.623-.987-1.163-.648-1.764-1.93-1.804-3.843h5.846c0 .877.318 1.316.954 1.316.457 0 .76-.135.91-.404.149-.27.223-.833.223-1.69v-1.495a5.695 5.695 0 0 1-1.64 1.061 4.554 4.554 0 0 1-1.79.36c-1.083 0-1.978-.22-2.684-.659-.696-.438-1.173-1.012-1.431-1.72-.259-.717-.388-1.734-.388-3.05v-7.208c0-1.884.338-3.24 1.014-4.068.676-.827 1.705-1.241 3.087-1.241.755 0 1.441.154 2.058.464.626.309 1.183.772 1.67 1.39l.433-1.495h5.607Zm-6.04 5.264c0-.907-.055-1.486-.164-1.735-.1-.25-.328-.374-.686-.374-.348 0-.597.145-.746.434-.139.28-.208.837-.208 1.675v6.67c0 .887.054 1.465.164 1.734.109.26.338.39.686.39.397 0 .656-.16.775-.48.12-.319.179-1.041.179-2.168V18.2ZM106.424 20.622h-5.652V19.29c0-1.536.174-2.717.522-3.545.358-.837 1.069-1.575 2.132-2.213 1.064-.638 2.446-.957 4.146-.957 2.038 0 3.574.364 4.608 1.092 1.034.718 1.656 1.605 1.864 2.662.209 1.046.314 3.21.314 6.49v9.96h-5.861v-1.765c-.368.708-.845 1.241-1.432 1.6-.577.349-1.268.523-2.073.523a5.145 5.145 0 0 1-2.908-.882c-.875-.598-1.312-1.9-1.312-3.903v-1.63c0-1.486.233-2.497.701-3.036.467-.538 1.625-1.166 3.474-1.884 1.979-.778 3.038-1.301 3.177-1.57.139-.27.209-.818.209-1.645 0-1.037-.08-1.71-.239-2.02-.149-.318-.403-.478-.76-.478-.408 0-.662.135-.761.404-.099.26-.149.942-.149 2.049v2.079Zm1.909 2.721c-.965.708-1.526 1.301-1.685 1.78-.15.478-.224 1.166-.224 2.063 0 1.027.064 1.69.194 1.99.139.299.407.448.805.448.378 0 .621-.115.731-.344.119-.24.179-.857.179-1.854v-4.083ZM122.634 8.568v3.156h-6.204V8.568h6.204Zm0 4.367V32.78h-6.204V12.934h6.204ZM130.941 12.935l-.105 1.824c.438-.727.97-1.27 1.596-1.63.636-.369 1.367-.553 2.192-.553 1.034 0 1.879.244 2.536.733.656.488 1.078 1.106 1.267 1.854.189.738.283 1.974.283 3.709v13.907h-6.024V19.036c0-1.366-.045-2.198-.135-2.497-.089-.3-.338-.449-.745-.449-.428 0-.696.175-.806.524-.109.339-.164 1.256-.164 2.751V32.78h-6.024V12.934h6.129Z"/></svg>