<svg xmlns="http://www.w3.org/2000/svg" width="157" height="41" fill="none" viewBox="0 0 157 41"><path fill="#3A437B" d="M52.957 25.329c.13.541.257 1.243.32 1.753h.064c.128-.764.226-1.37.352-1.753l3.037-10.26c.064-.223.257-.286.446-.286h1.219c.286 0 .317.159.382.318L61.4 25.743c.096.415.158.83.224 1.243h.063c.032-.384.126-.955.192-1.243l2.27-9.112h-1.727c-.223 0-.352-.096-.352-.35v-1.115c0-.255.129-.382.352-.382h5.244c.224 0 .35.127.35.382v1.21c0 .257-.125.385-.35.385h-1.279l-3.804 13.444c-.033.128-.097.317-.384.317h-1.247c-.318 0-.381-.19-.417-.317l-2.524-9.877c-.16-.635-.289-1.783-.352-2.517h-.064a14.18 14.18 0 0 1-.48 2.485l-3.005 9.941c-.032.127-.095.287-.352.287H52.48c-.256 0-.32-.19-.352-.318l-3.293-13.444H47.62c-.257 0-.352-.128-.352-.386v-1.21c0-.254.095-.38.352-.38h5.594c.255 0 .385.126.385.38v1.117c0 .253-.13.349-.385.349h-2.079l1.822 8.697Zm30.562 4.366c0 .253-.13.38-.384.38h-3.837c-.255 0-.384-.127-.384-.38V19.053c0-1.372-.35-2.582-2.078-2.582-2.079 0-3.486 1.243-4.285 1.942V28.1h1.79c.255 0 .384.125.384.38v1.216c0 .253-.129.38-.385.38H68.3c-.257 0-.384-.127-.384-.38v-1.213c0-.257.127-.38.384-.38h1.822V7.957h-1.918c-.257 0-.384-.128-.384-.385V6.362c0-.254.127-.38.384-.38h3.898c.385 0 .448.189.448.477v9.95c1.024-.831 2.654-2.072 4.988-2.072 3.55 0 3.805 2.485 3.805 4.779V28.1h1.791c.254 0 .385.124.385.38v1.214Zm4.813 0c0 .253-.128.38-.384.38h-1.662c-.256 0-.384-.127-.384-.38V16.759h-2.495c-.253 0-.384-.128-.384-.386v-1.21c0-.255.13-.382.384-.382h4.508c.352 0 .417.191.417.478v14.436Zm3.992 0c0 .253.13.38.385.38h6.288c.257 0 .385-.127.385-.38v-1.213c0-.257-.129-.38-.385-.38h-1.83v-9.338c0-.668.162-1.433.355-2.005h1.731c.258 0 .387-.128.387-.386v-1.21c0-.255-.13-.382-.386-.382h-2.886c-.9 0-1.158 1.626-1.285 2.23-.833-.893-1.988-2.676-3.85-2.676-.736 0-1.573.254-1.573.54 0 .066.066.16.099.257l.702 1.625c.037.064.066.223.196.223.159 0 .448-.288 1.058-.288 1.122 0 2.246 1.66 3.015 2.487v8.92h-2.02c-.255 0-.386.125-.386.38v1.216Zm16.372-.193a.63.63 0 0 1 .063.225c0 .348-1.536.795-2.717.795-1.566 0-2.622-.636-3.005-1.528-.45-.988-.45-3.598-.45-4.622V9.208h-1.917c-.256 0-.383-.128-.383-.383v-1.21c0-.255.127-.382.383-.382h3.902c.383 0 .446.19.446.477v16.729c0 .985.033 2.612.099 2.993.062.352.35 1.115 1.276 1.115.83 0 1.438-.414 1.663-.414.189 0 .189.096.222.191l.418 1.178Zm1.518-9.684c0-1.211 0-2.037-.384-3.185-.126-.383-.575-.987-.575-1.18 0-.127.16-.19.29-.255l1.244-.766c.128-.063.192-.095.258-.095.449 0 1.023 1.37 1.15 1.88.768-.541 2.333-1.88 4.703-1.88 3.421 0 4.988 3.821 4.988 7.773 0 4.588-1.631 8.412-5.341 8.412-1.952 0-3.034-.543-3.901-1.082v5.25c0 .224-.096.347-.226.383l-1.598.589c-.259.063-.16.032-.384.063-.224 0-.224-.255-.224-.414V19.818Zm2.43 7.519c1.025.54 2.015 1.052 3.612 1.052 2.75 0 3.002-3.122 3.002-6.214 0-2.678-.223-5.703-2.811-5.703-1.66 0-3.003.922-3.803 1.561v9.304Zm16.595 3.185c-4.317 0-6.17-3.471-6.17-8.027 0-4.397 1.853-8.156 6.491-8.156 4.378 0 6.234 3.504 6.234 7.996 0 4.46-1.887 8.187-6.555 8.187Zm3.933-8.218c0-3.124-.864-5.991-3.741-5.991-2.878 0-3.743 2.742-3.743 5.892 0 3.633.834 6.342 3.771 6.342 2.849 0 3.713-2.582 3.713-6.243Zm10.062 8.218c-4.316 0-6.169-3.471-6.169-8.027 0-4.397 1.853-8.156 6.49-8.156 4.379 0 6.234 3.504 6.234 7.996-.001 4.46-1.886 8.187-6.555 8.187Zm3.932-8.218c0-3.124-.863-5.991-3.741-5.991-2.879 0-3.743 2.742-3.743 5.892 0 3.633.833 6.342 3.77 6.342 2.851 0 3.714-2.582 3.714-6.243ZM148.177 8.251a.612.612 0 0 1-.062-.222c0-.353 1.536-.796 2.714-.796 1.571 0 2.626.636 3.007 1.528.451.99.451 3.599.451 4.62v15.166h1.917c.255 0 .383.127.383.381v1.21c0 .258-.128.384-.383.384h-3.901c-.383 0-.449-.19-.449-.478V13.316c0-.987-.032-2.61-.097-2.993-.065-.35-.349-1.115-1.275-1.115-.833 0-1.44.415-1.663.415-.192 0-.192-.095-.225-.192l-.417-1.18ZM88.332 9.265c0-.514-.545-.93-1.216-.93-.67 0-1.214.416-1.214.93v2.59c0 .512.544.929 1.214.929.672 0 1.216-.417 1.216-.929v-2.59ZM40.713 11.885v6.01c-.854-.304-3.59-.431-5.537.034 2.389.09 5.537 1.194 5.537 3.139v1.109c-.854-.429-3.688-.31-4.477-.16 1.833-.138 4.477 1.047 4.477 2.122v5.218c-1.707-1.58-6.161-2.985-10.475-2.172 3.226-2.05 8.13-2.174 10.357-1.543-2.052-2.188-8.015-3.367-12.861-1.857 2.393-2.218 6.025-3.02 9.954-3.29-2.472-1.442-8.962-1.126-14.211 1.091 3.696-3.555 9.466-6.42 15.745-5.53-4.333-1.516-10.947-1.063-15.783 1.07 3.085-3.361 8.78-4.731 12.941-4.137-5.459-1.564-11.567-1.13-17.458 1.953 8.83-7.007 21.791-3.057 21.791-3.057Zm-7.972 17.91c3.133-.422 5.087.143 7.007 1.64-2.04-.416-3.673-.146-4.794.185 2.011.465 3.222.722 4.45 1.626-2.097-.392-4.232-.035-6.25.685 1.98-.203 3.788.61 4.18 1.312 1.662-.755 2.953-1.909 3.38-2.976v-2.273c0-.97-4.576-2.481-7.973-.199ZM35.804.735H5.707c-2.761 0-5.12 2-5.12 4.752v30.004c0 2.753 2.359 5.244 5.12 5.244h8.795c-10.219-7.872-7.726-23.286.9-27.382-8.626 5.07-8.626 19.51-1.071 24.544-1.043-2.022-1.946-4.665-1.511-7.149 1.202 7.773 8.953 9.456 8.953 9.456-.468-.441-1.5-1.692-1.819-2.41 2.747 2.931 7.786 2.747 11.79 2.205-1.681-.3-3.54-1.274-4.24-2.22 5.111 2.01 9.229 1.583 13.18-1.214.08-.173.028-.519.028-.785v-2.212c-2.56 4.867-16.496 5.263-17.504-2.272-.99 1.734-.33 4.805 1.424 6.114-4.35-.414-6.178-6.519-3.541-10.382-2.362 2.123-2.95 4.927-2.9 7.449-2.686-3.817-.262-10.254 1.009-11.7-1.688.749-3.473 3.03-4.509 5.406-.177-4.898 2.365-9.544 6.516-12.544-4.384 1.69-9.805 6.852-10.043 13.4C9.055 16.595 22.42 6.043 40.712 11.751V5.488c.001-2.753-2.147-4.753-4.908-4.753Z"/></svg>